<svg width="594" height="589" viewBox="0 0 594 589" fill="none" xmlns="http://www.w3.org/2000/svg">
<g clip-path="url(#clip0)">
<path d="M585.253 248.935C570.599 153.119 510.516 35.4007 391.814 23.0807C391.814 23.0807 301.691 12.1306 212.848 28.7268C160.121 38.5759 113.887 67.8971 84.6295 110.039C55.3744 152.181 45.6023 203.567 57.4608 252.556C65.1628 284.375 70.3687 317.309 68.9404 350.005C66.4546 406.909 67.8849 460.028 123.17 493.963C172.533 524.265 234.656 550.99 293.924 555.671C334.203 558.852 379.371 553.705 418.19 543.229C616.028 489.848 599.907 344.754 585.253 248.935Z" fill="#F4F7FA"/>
<path d="M314.787 453.606C297.979 458.255 284.892 438.909 295.483 425.069C298.772 420.772 301.893 416.14 304.768 411.147C326.116 374.071 315.082 349.73 334.308 282.615C346.464 240.177 355.377 210.685 381.048 200.278C401.164 192.125 429.166 196.668 442.792 212.515C454.12 225.692 456.836 248.225 455.51 263.472C454.43 275.898 450.608 284.139 455.867 292.183C461.244 300.401 469.763 298.718 475.111 305.158C485.957 318.217 470.025 348.151 467.45 352.989C438.808 406.806 375.919 431.912 348.355 442.532C339.07 446.11 327.837 449.998 314.787 453.606Z" fill="url(#paint0_linear)"/>
<g opacity="0.5">
<path opacity="0.5" d="M227.865 472.348L227.702 470.899C254.645 467.887 278.622 462.202 298.965 454.003C328.95 441.922 350.12 424.666 361.889 402.721C371.109 385.528 374.407 366.099 378.976 339.21C382.623 317.743 383.267 302.197 383.837 288.482C384.583 270.543 385.172 256.375 392.187 237.391C399.306 218.131 410.896 200.142 426.636 183.928L427.685 184.944C412.088 201.011 400.606 218.829 393.558 237.896C386.621 256.664 386.038 270.732 385.296 288.541C384.724 302.3 384.076 317.893 380.414 339.454C375.997 365.464 372.508 386.008 363.174 403.411C351.241 425.667 329.82 443.145 299.509 455.359C279.046 463.604 254.94 469.321 227.865 472.348Z" fill="white"/>
<path opacity="0.5" d="M382.232 324.392L381.582 323.885C381.457 323.787 369.026 313.977 358.72 295.972C349.209 279.356 339.592 252.143 347.783 216.879L349.205 217.208C341.12 252.013 350.607 278.857 359.988 295.248C368.82 310.682 379.196 319.979 381.84 322.21C403.133 287.174 429.694 268.587 448.287 259.153C468.591 248.85 484.076 246.927 484.231 246.908L484.402 248.357C484.25 248.376 468.972 250.283 448.886 260.486C430.356 269.9 403.823 288.507 382.655 323.686L382.232 324.392Z" fill="white"/>
<path opacity="0.5" d="M370.62 382.08L370.438 381.581C370.353 381.345 361.695 357.65 348.364 335.595C335.118 313.682 295.151 296.978 294.75 296.811L295.308 295.462C295.715 295.63 336.12 312.516 349.615 334.839C361.944 355.238 370.296 377.024 371.626 380.582C418.606 378.343 491.265 288.507 491.997 287.597L493.136 288.509C492.952 288.739 474.425 311.728 450.288 334.616C417.799 365.421 391.175 381.384 371.15 382.062L370.62 382.08Z" fill="white"/>
<path opacity="0.5" d="M335.623 453.486C319.345 453.486 308.941 452.13 308.792 452.11L307.35 451.917L308.366 450.877C324.459 434.429 328.053 413.738 319.049 389.379C312.309 371.142 300.656 357.617 300.538 357.483L301.64 356.526C301.759 356.662 313.587 370.389 320.418 388.874C329.312 412.936 325.855 434.325 310.43 450.832C315.716 451.402 335.015 453.118 360.248 450.997C387.548 448.701 427.573 441.319 463.222 419.174L532.495 376.143L533.267 377.382L463.994 420.414C428.087 442.719 387.804 450.15 360.334 452.456C351.198 453.219 342.833 453.486 335.623 453.486Z" fill="white"/>
</g>
<path d="M280.662 455.314C304 468.969 335.68 483.039 371.751 486.595C380.956 487.503 437.82 493.108 444.34 469.52C446.637 461.212 440.746 456.297 443.623 445.135C447.032 431.909 457.482 430.342 470.649 418.997C478.506 412.227 501.5 392.415 494.552 370.108C490.399 356.778 475.743 343.16 461.15 338.749C439.744 332.281 422.667 346.886 394.2 372.102C368.965 394.454 367.421 402.62 348.967 418.398C335.275 430.108 313.785 444.716 280.662 455.314Z" fill="url(#paint1_linear)"/>
<g opacity="0.5">
<path opacity="0.5" d="M292.657 455.627C278.066 455.627 263.765 453.578 249.805 449.47C222.741 441.508 197.931 426.442 176.067 404.691L177.098 403.657C198.787 425.235 223.389 440.177 250.219 448.07C285.956 458.583 324.009 455.485 363.321 438.866C404.278 421.552 436.341 393.897 456.025 373.749C469.638 359.815 479.28 341.255 484.679 318.581L486.1 318.919C480.639 341.853 470.871 360.644 457.071 374.767C437.292 395.011 405.07 422.797 363.89 440.21C339.596 450.482 315.765 455.627 292.657 455.627Z" fill="white"/>
<path opacity="0.5" d="M412.909 412.014L412.805 411.367C412.73 410.89 405.58 363.31 435.838 332.816L436.875 333.844C409.06 361.877 413.42 404.709 414.158 410.487C482.259 406.785 503.001 369.711 507.747 358.407C507.879 358.091 507.967 357.894 508.008 357.827L509.265 358.568L508.635 358.197L509.273 358.553C509.24 358.619 509.181 358.759 509.094 358.971C504.25 370.511 483.046 408.44 413.561 411.979L412.909 412.014Z" fill="white"/>
<path opacity="0.5" d="M431.701 466.826C431.62 466.826 431.54 466.826 431.461 466.826C416.149 466.779 391.987 462.057 363.837 439.819L363.531 439.577L363.562 439.188C363.59 438.824 366.785 402.352 392.289 364.965L417.978 327.305L419.185 328.127L393.495 365.787C369.625 400.781 365.467 434.93 365.055 438.919C380.426 450.999 404.329 465.283 431.467 465.367C431.545 465.367 431.622 465.367 431.699 465.367C447.845 465.367 457.562 460.256 457.66 460.205L458.351 461.489C457.939 461.709 448.204 466.826 431.701 466.826Z" fill="white"/>
</g>
<path d="M458.261 151.011C460.736 152.267 463.848 151.113 465.209 148.436C466.57 145.758 465.665 142.568 463.189 141.313C463.061 141.247 462.931 141.193 462.798 141.14C463.259 139.658 463.605 138.164 463.837 136.67C463.98 136.67 464.123 136.668 464.267 136.654C467.091 136.401 469.335 133.808 469.276 130.861C469.216 127.914 466.879 125.728 464.053 125.98C463.905 125.995 463.76 126.017 463.617 126.043C463.322 124.582 462.918 123.155 462.407 121.775C462.537 121.7 462.666 121.621 462.792 121.533C465.209 119.842 465.981 116.504 464.518 114.078C463.055 111.651 459.909 111.055 457.492 112.746C457.368 112.834 457.252 112.928 457.138 113.021C456.182 111.967 455.137 110.99 454.004 110.098C454.084 109.968 454.161 109.836 454.232 109.697C455.593 107.019 457.372 104.094 454.876 102.877C449.104 100.062 446.626 102.472 445.265 105.151C445.194 105.289 445.135 105.429 445.076 105.572C443.686 105.185 442.28 104.916 440.864 104.768C440.872 104.619 440.88 104.471 440.876 104.318C440.817 101.371 441.693 99.7752 438.857 99.7202C432.673 99.6001 430.587 102.281 430.646 105.228C430.65 105.383 430.662 105.533 430.676 105.682C429.26 106.085 427.869 106.602 426.514 107.225C426.448 107.092 426.383 106.962 426.306 106.836C424.843 104.41 421.697 103.813 419.28 105.505C416.864 107.196 416.092 110.534 417.555 112.96C417.63 113.084 417.711 113.2 417.795 113.316C416.725 114.385 415.723 115.547 414.796 116.793C414.676 116.717 414.555 116.644 414.427 116.579C411.951 115.323 408.84 116.477 407.479 119.154C406.118 121.832 407.023 125.022 409.498 126.277C409.627 126.343 409.757 126.398 409.889 126.45C409.429 127.932 409.082 129.426 408.85 130.92C408.708 130.92 408.565 130.922 408.42 130.936C405.596 131.189 403.353 133.782 403.412 136.729C403.471 139.676 405.81 141.862 408.634 141.61C408.781 141.598 408.928 141.573 409.07 141.549C409.366 143.01 409.769 144.437 410.281 145.817C410.15 145.892 410.022 145.972 409.895 146.059C407.479 147.75 406.707 151.088 408.17 153.515C409.633 155.941 414.48 157.068 416.896 155.377C417.021 155.289 415.438 154.665 415.552 154.571C416.507 155.625 417.553 156.602 418.685 157.494C418.606 157.624 418.529 157.756 418.457 157.895C417.096 160.573 417.999 163.763 420.476 165.018C422.952 166.274 426.063 165.12 427.424 162.444C427.496 162.305 427.555 162.165 427.614 162.022C429.004 162.409 430.409 162.678 431.826 162.826C431.817 162.975 431.809 163.123 431.813 163.276C431.872 166.223 434.211 168.409 437.036 168.157C439.86 167.904 442.103 165.311 442.044 162.364C442.04 162.21 442.028 162.059 442.013 161.91C443.429 161.507 444.821 160.99 446.176 160.368C446.241 160.5 446.306 160.63 446.384 160.756C447.847 163.182 450.993 163.779 453.409 162.087C455.826 160.396 456.598 157.058 455.135 154.632C455.06 154.508 454.978 154.392 454.895 154.278C455.964 153.209 456.967 152.047 457.894 150.801C458.012 150.873 458.132 150.946 458.261 151.011ZM427.396 151.404C418.406 146.845 415.126 135.266 420.067 125.543C425.01 115.82 436.304 111.633 445.294 116.192C454.283 120.751 457.564 132.331 452.623 142.053C447.68 151.776 436.386 155.963 427.396 151.404Z" fill="url(#paint2_linear)"/>
<path d="M464.27 136.656C467.094 136.403 469.337 133.81 469.278 130.863C469.219 127.916 466.882 125.73 464.056 125.982C463.909 125.995 463.762 126.019 463.62 126.043C463.324 124.582 462.921 123.155 462.409 121.775C462.54 121.7 462.668 121.621 462.794 121.533C465.211 119.842 468.202 115.755 466.497 113.491C463.261 109.195 459.911 111.055 457.495 112.747C457.371 112.834 457.254 112.928 457.14 113.021C456.185 111.967 455.139 110.99 454.007 110.099C454.086 109.968 454.163 109.836 454.235 109.698C454.976 108.24 455.042 106.632 454.553 105.267C452.218 109.37 449.915 113.491 447.653 117.635C454.826 122.885 457.108 133.23 452.625 142.049C448.827 149.523 441.276 153.72 433.902 153.195C433.574 154.048 433.25 154.905 432.898 155.747C431.942 158.037 430.856 160.28 429.768 162.521C430.452 162.649 431.139 162.751 431.828 162.822C431.82 162.971 431.812 163.119 431.816 163.272C431.875 166.219 433.666 168.723 438.786 168.452C441.618 168.301 442.105 165.307 442.046 162.36C442.042 162.206 442.03 162.055 442.016 161.906C443.432 161.503 444.823 160.986 446.178 160.364C446.243 160.496 446.309 160.626 446.386 160.752C447.849 163.178 452.927 164.21 455.345 162.519C457.762 160.828 456.602 157.054 455.139 154.628C455.064 154.504 454.983 154.388 454.899 154.272C455.969 153.203 456.971 152.041 457.898 150.795C458.018 150.871 458.139 150.944 458.267 151.009C460.743 152.265 463.854 151.111 465.215 148.434C466.576 145.756 465.674 142.566 463.196 141.311C463.068 141.245 462.937 141.191 462.805 141.138C463.265 139.656 463.612 138.162 463.844 136.668C463.982 136.672 464.125 136.67 464.27 136.656Z" fill="url(#paint3_linear)"/>
<path d="M460.924 151.314C463.4 152.57 466.511 151.416 467.872 148.74C469.233 146.061 468.33 142.872 465.853 141.616C465.724 141.551 465.594 141.496 465.462 141.443C465.922 139.961 466.268 138.467 466.501 136.973C466.643 136.973 466.786 136.971 466.931 136.957C469.755 136.704 471.998 134.111 471.939 131.164C471.88 128.217 469.543 126.031 466.717 126.283C466.57 126.296 466.423 126.32 466.281 126.345C465.985 124.883 465.582 123.456 465.07 122.076C465.201 122.001 465.329 121.922 465.455 121.834C467.872 120.143 468.644 116.805 467.181 114.379C465.718 111.953 462.572 111.356 460.156 113.048C460.032 113.135 459.915 113.229 459.801 113.322C458.848 112.268 457.8 111.291 456.668 110.4C456.747 110.269 456.824 110.137 456.896 109.999C458.257 107.32 457.354 104.131 454.877 102.875C452.401 101.619 449.29 102.773 447.929 105.45C447.857 105.588 447.798 105.728 447.739 105.871C446.349 105.484 444.944 105.216 443.527 105.067C443.536 104.918 443.544 104.77 443.54 104.617C443.481 101.67 441.144 99.484 438.317 99.7364C435.493 99.9888 433.25 102.582 433.309 105.529C433.311 105.684 433.325 105.834 433.34 105.983C431.924 106.386 430.532 106.903 429.177 107.526C429.112 107.393 429.047 107.263 428.969 107.137C427.506 104.711 424.36 104.114 421.944 105.806C419.527 107.497 418.755 110.835 420.218 113.261C420.293 113.385 420.375 113.501 420.458 113.617C419.389 114.686 418.386 115.848 417.459 117.094C417.339 117.019 417.219 116.945 417.09 116.88C414.615 115.624 411.503 116.778 410.142 119.455C408.781 122.133 409.684 125.323 412.162 126.579C412.29 126.644 412.42 126.699 412.553 126.752C412.092 128.233 411.746 129.727 411.514 131.221C411.371 131.221 411.228 131.223 411.084 131.238C408.26 131.49 406.016 134.083 406.075 137.03C406.134 139.977 408.474 142.163 411.298 141.911C411.444 141.899 411.591 141.874 411.734 141.85C412.029 143.311 412.433 144.738 412.944 146.118C412.814 146.193 412.685 146.273 412.559 146.36C410.142 148.052 409.37 151.39 410.833 153.816C412.296 156.242 415.442 156.838 417.858 155.147C417.983 155.059 418.099 154.966 418.213 154.872C419.169 155.926 420.214 156.903 421.347 157.795C421.267 157.925 421.19 158.057 421.119 158.196C419.757 160.874 420.66 164.064 423.138 165.32C425.613 166.575 428.725 165.421 430.086 162.745C430.157 162.606 430.216 162.466 430.275 162.323C431.665 162.71 433.071 162.979 434.487 163.127C434.479 163.276 434.471 163.425 434.475 163.577C434.534 166.524 436.873 168.71 439.697 168.458C442.521 168.206 444.764 165.613 444.705 162.665C444.703 162.511 444.689 162.36 444.675 162.212C446.091 161.809 447.482 161.292 448.837 160.669C448.903 160.801 448.968 160.931 449.045 161.057C450.508 163.484 453.654 164.08 456.071 162.389C458.487 160.697 459.259 157.359 457.796 154.933C457.721 154.809 457.64 154.693 457.556 154.577C458.626 153.508 459.628 152.346 460.555 151.101C460.675 151.176 460.796 151.249 460.924 151.314ZM430.059 151.705C421.07 147.146 417.787 135.567 422.73 125.844C427.673 116.121 438.967 111.934 447.957 116.493C456.947 121.053 460.227 132.632 455.286 142.355C450.343 152.077 439.049 156.264 430.059 151.705Z" fill="url(#paint4_linear)"/>
<path d="M392.026 100.477C396.875 102.938 402.97 100.679 405.637 95.4316C408.304 90.1865 406.533 83.938 401.682 81.4793C401.431 81.351 401.175 81.2452 400.918 81.1414C401.819 78.239 402.499 75.3121 402.953 72.3853C403.231 72.3853 403.51 72.3792 403.795 72.3548C409.329 71.8622 413.72 66.782 413.604 61.0097C413.488 55.2354 408.907 50.9551 403.375 51.4477C403.086 51.4741 402.803 51.5189 402.519 51.5698C401.941 48.7081 401.15 45.9135 400.15 43.2086C400.405 43.06 400.657 42.9053 400.906 42.7323C405.639 39.4187 407.153 32.8792 404.286 28.1266C401.419 23.3741 395.256 22.2058 390.522 25.5193C390.28 25.6883 390.052 25.8735 389.826 26.0587C387.955 23.9928 385.905 22.0796 383.686 20.3332C383.843 20.0768 383.996 19.8183 384.133 19.5476C386.8 14.3005 390.284 8.57096 385.396 6.18756C374.088 0.673796 369.236 5.39377 366.569 10.6389C366.43 10.9116 366.312 11.1864 366.198 11.4632C363.478 10.704 360.721 10.1789 357.948 9.88986C357.966 9.59881 357.979 9.30572 357.973 9.01059C357.856 3.23834 359.572 0.114075 354.018 0.00620148C341.904 -0.229899 337.819 5.02334 337.933 10.7956C337.939 11.0968 337.964 11.392 337.994 11.685C335.219 12.4748 332.493 13.4863 329.84 14.7075C329.714 14.4491 329.583 14.1946 329.433 13.9463C326.566 9.19377 320.402 8.02548 315.669 11.339C310.934 14.6526 309.422 21.1922 312.289 25.9447C312.435 26.189 312.596 26.4169 312.759 26.6408C310.663 28.7352 308.698 31.0087 306.885 33.449C306.651 33.3025 306.412 33.158 306.162 33.0318C301.312 30.5711 295.218 32.8303 292.551 38.0774C289.884 43.3225 291.654 49.5711 296.506 52.0298C296.756 52.158 297.013 52.2638 297.27 52.3676C296.369 55.27 295.689 58.1969 295.234 61.1237C294.957 61.1237 294.678 61.1298 294.395 61.1542C288.861 61.6468 284.47 66.727 284.584 72.4993C284.7 78.2736 289.281 82.5539 294.813 82.0614C295.102 82.0349 295.385 81.9901 295.668 81.9392C296.247 84.8009 297.038 87.5955 298.038 90.3005C297.783 90.449 297.531 90.6037 297.282 90.7767C292.547 94.0903 291.035 100.63 293.902 105.382C296.769 110.135 306.262 112.343 310.995 109.032C311.237 108.863 308.136 107.638 308.36 107.452C310.231 109.518 312.281 111.431 314.499 113.178C314.345 113.434 314.19 113.693 314.053 113.963C311.386 119.209 313.157 125.457 318.008 127.916C322.857 130.377 328.952 128.117 331.619 122.87C331.757 122.597 331.876 122.323 331.99 122.046C334.71 122.805 337.467 123.33 340.24 123.619C340.223 123.91 340.209 124.203 340.215 124.498C340.331 130.271 344.912 134.553 350.444 134.058C355.978 133.566 360.369 128.486 360.253 122.713C360.246 122.412 360.222 122.117 360.191 121.824C362.967 121.034 365.693 120.023 368.346 118.801C368.472 119.06 368.602 119.314 368.753 119.563C371.62 124.315 377.782 125.484 382.517 122.17C387.252 118.856 388.764 112.317 385.897 107.564C385.75 107.32 385.589 107.094 385.426 106.868C387.523 104.774 389.487 102.498 391.301 100.06C391.537 100.207 391.775 100.351 392.026 100.477ZM331.564 101.245C313.953 92.3134 307.527 69.6315 317.207 50.5847C326.888 31.5379 349.013 23.3354 366.622 32.2685C384.232 41.1997 390.659 63.8816 380.979 82.9284C371.298 101.975 349.174 110.176 331.564 101.245Z" fill="url(#paint5_linear)"/>
<path d="M403.793 72.3568C409.327 71.8642 413.718 66.784 413.602 61.0117C413.486 55.2395 408.905 50.9571 403.373 51.4496C403.084 51.4761 402.801 51.5209 402.517 51.5718C401.939 48.7101 401.148 45.9155 400.148 43.2105C400.402 43.062 400.655 42.9073 400.904 42.7343C405.637 39.4207 411.495 31.4157 408.155 26.9807C401.817 18.5645 395.256 22.2078 390.52 25.5213C390.278 25.6902 390.05 25.8734 389.823 26.0607C387.953 23.9948 385.903 22.0816 383.684 20.3352C383.841 20.0788 383.994 19.8203 384.131 19.5496C385.581 16.694 385.71 13.5473 384.752 10.8708C380.18 18.9105 375.669 26.9847 371.237 35.1017C385.286 45.3863 389.758 65.6503 380.976 82.9284C373.535 97.5687 358.743 105.789 344.299 104.76C343.655 106.429 343.021 108.108 342.332 109.76C340.46 114.246 338.333 118.641 336.203 123.027C337.542 123.279 338.889 123.477 340.238 123.619C340.222 123.91 340.207 124.203 340.213 124.498C340.33 130.271 343.838 135.176 353.867 134.645C359.415 134.352 360.369 128.486 360.253 122.713C360.247 122.412 360.222 122.117 360.192 121.824C362.967 121.034 365.693 120.023 368.346 118.801C368.472 119.06 368.602 119.314 368.753 119.563C371.62 124.317 381.567 126.336 386.301 123.023C391.036 119.709 388.764 112.319 385.897 107.564C385.75 107.32 385.589 107.092 385.426 106.868C387.523 104.774 389.487 102.5 391.301 100.06C391.535 100.206 391.773 100.351 392.024 100.477C396.873 102.938 402.968 100.679 405.635 95.4315C408.302 90.1864 406.531 83.9379 401.68 81.4792C401.429 81.351 401.173 81.2451 400.916 81.1413C401.816 78.2389 402.497 75.3121 402.951 72.3873C403.231 72.3873 403.51 72.3812 403.793 72.3568Z" fill="url(#paint6_linear)"/>
<path d="M397.242 101.07C402.092 103.53 408.186 101.271 410.853 96.024C413.52 90.7789 411.75 84.5304 406.898 82.0717C406.647 81.9435 406.391 81.8376 406.134 81.7338C407.035 78.8314 407.715 75.9046 408.17 72.9777C408.447 72.9777 408.726 72.9716 409.011 72.9472C414.545 72.4546 418.936 67.3744 418.82 61.6022C418.704 55.8279 414.123 51.5475 408.591 52.0401C408.302 52.0665 408.019 52.1113 407.736 52.1622C407.157 49.3005 406.366 46.506 405.366 43.801C405.621 43.6524 405.873 43.4977 406.122 43.3247C410.855 40.0112 412.369 33.4716 409.502 28.719C406.635 23.9665 400.472 22.7982 395.738 26.1117C395.496 26.2807 395.268 26.4659 395.042 26.6511C393.171 24.5852 391.121 22.672 388.902 20.9257C389.059 20.6692 389.21 20.4107 389.349 20.14C392.016 14.8929 390.245 8.64639 385.394 6.18769C380.544 3.72695 374.45 5.98619 371.783 11.2333C371.644 11.5061 371.526 11.7808 371.412 12.0576C368.692 11.2985 365.935 10.7733 363.162 10.4843C363.178 10.1933 363.193 9.90017 363.187 9.60504C363.07 3.83279 358.49 -0.44959 352.956 0.0429646C347.422 0.53552 343.031 5.61576 343.147 11.388C343.153 11.6892 343.178 11.9844 343.208 12.2775C340.433 13.0672 337.707 14.0787 335.052 15.3C334.926 15.0415 334.795 14.787 334.645 14.5387C331.778 9.78619 325.614 8.6179 320.881 11.9314C316.146 15.245 314.634 21.7846 317.501 26.5371C317.647 26.7814 317.808 27.0093 317.971 27.2332C315.875 29.3276 313.911 31.6011 312.097 34.0415C311.863 33.8949 311.624 33.7504 311.374 33.6242C306.524 31.1635 300.43 33.4227 297.763 38.6699C295.096 43.917 296.866 50.1635 301.718 52.6222C301.968 52.7504 302.225 52.8563 302.482 52.9601C301.581 55.8625 300.901 58.7893 300.446 61.7161C300.169 61.7161 299.89 61.7222 299.607 61.7467C294.073 62.2392 289.682 67.3195 289.796 73.0917C289.912 78.866 294.493 83.1463 300.025 82.6538C300.314 82.6273 300.597 82.5826 300.88 82.5317C301.459 85.3934 302.25 88.1879 303.25 90.8929C302.995 91.0415 302.743 91.1962 302.494 91.3692C297.759 94.6827 296.247 101.222 299.114 105.975C301.981 110.727 308.144 111.896 312.878 108.582C313.12 108.411 313.348 108.228 313.574 108.043C315.445 110.109 317.495 112.022 319.713 113.768C319.557 114.025 319.404 114.283 319.267 114.554C316.6 119.801 318.371 126.047 323.222 128.506C328.071 130.967 334.166 128.708 336.833 123.461C336.972 123.19 337.09 122.913 337.204 122.636C339.924 123.395 342.681 123.921 345.454 124.21C345.438 124.501 345.423 124.794 345.429 125.089C345.546 130.861 350.126 135.143 355.658 134.651C361.192 134.158 365.583 129.078 365.467 123.306C365.461 123.005 365.436 122.709 365.405 122.416C368.181 121.627 370.907 120.615 373.56 119.394C373.686 119.65 373.816 119.907 373.967 120.155C376.834 124.908 382.996 126.076 387.731 122.762C392.466 119.449 393.978 112.909 391.111 108.157C390.964 107.912 390.804 107.687 390.641 107.461C392.737 105.366 394.701 103.093 396.515 100.652C396.753 100.799 396.992 100.943 397.242 101.07ZM336.78 101.837C319.169 92.9058 312.743 70.2239 322.423 51.1771C332.104 32.1303 354.23 23.9298 371.838 32.861C389.449 41.7921 395.875 64.474 386.195 83.5209C376.514 102.568 354.391 110.768 336.78 101.837Z" fill="url(#paint7_linear)"/>
<path d="M588.778 520.038L14.0733 515.076V529.759C14.0733 533.744 16.5795 537.133 19.974 537.738L182.483 566.65C184.412 566.994 186.366 567.083 188.314 566.921L582.533 533.956C586.051 533.661 588.778 530.262 588.778 526.169V520.038Z" fill="#BFC8D6"/>
<path d="M387.063 239.07V484.695C387.063 487.792 385.934 490.685 384.127 492.83C382.372 494.93 379.956 496.312 377.291 496.512L113.214 515.97L14.7539 523.248H14.7396L14.0733 523.263L11.9339 523.393C5.39746 523.871 0 518.742 0 511.96V240.245C0 233.463 5.47896 227.791 12.0154 227.791H377.282C382.672 227.791 387.063 232.94 387.063 239.07Z" fill="#BFC8D6"/>
<path d="M392.906 239.07V484.695C392.906 489.429 390.276 493.654 386.613 495.514C386.56 495.541 386.49 495.569 386.437 495.596C386.089 495.765 385.726 495.922 385.359 496.046C385.278 496.076 385.192 496.105 385.111 496.135C385.044 496.15 384.976 496.172 384.917 496.186C384.65 496.268 384.383 496.327 384.108 496.379C383.782 496.447 383.45 496.489 383.108 496.512L381.258 496.632L118.428 515.951H118.414L17.8347 523.358C16.8648 523.431 15.9174 523.423 15.0148 523.254C14.9251 523.24 14.8436 523.246 14.756 523.246H14.7417C14.5196 523.246 14.2242 523.112 14.0021 523.047C9.30758 521.766 5.84375 517.38 5.84375 511.96V240.245C5.84375 233.463 11.3064 227.791 17.8429 227.791H383.11C388.497 227.791 392.906 232.94 392.906 239.07Z" fill="white"/>
<path d="M371.73 479.193L31.5187 502.524C26.1987 502.889 21.877 498.698 21.877 493.16V255.274C21.877 249.738 26.1987 245.229 31.5187 245.207L371.73 243.742C376.172 243.723 379.766 247.794 379.766 252.837V469.509C379.766 474.552 376.172 478.888 371.73 479.193Z" fill="#D8DEE8"/>
<path d="M213.374 235.399C213.374 237.922 211.493 239.976 209.173 239.984C206.848 239.992 204.961 237.947 204.961 235.417C204.961 232.887 206.848 230.833 209.173 230.831C211.495 230.829 213.374 232.875 213.374 235.399Z" fill="white"/>
<path opacity="0.48" d="M17.8368 523.368L381.26 496.644L383.11 496.508C385.581 496.326 387.827 495.105 389.542 493.255C363.39 491.826 347.147 482.555 336.668 472.975C315.626 453.737 319.276 434.767 296.583 422.118C268.28 406.342 246.026 426.331 224.548 406.608C211.528 394.65 217.92 385.734 201.899 367.865C184.154 348.073 172.599 354.727 154.766 336.914C132.217 314.39 143.494 296.868 124.07 280.697C100.506 261.08 75.0939 279.238 52.6626 260.423C42.9883 252.308 37.6784 240.511 34.9074 227.965H17.8388C11.3024 227.965 5.98846 233.463 5.98846 240.245V511.958C5.98846 518.742 11.3024 523.848 17.8368 523.368Z" fill="white"/>
<path d="M400.319 495.02L14.0733 523.293L182.485 553.255C184.414 553.599 186.368 553.689 188.316 553.526L588.78 520.038L406.466 495.211C404.425 494.934 402.369 494.869 400.319 495.02Z" fill="url(#paint8_linear)"/>
<path d="M70.4319 523.535L391.993 499.646L491.516 513.089L172.723 538.625L70.4319 523.535Z" fill="#D8DEE8"/>
<path opacity="0.3" d="M363.694 227.791V473.054C363.694 475.318 363.24 477.528 362.582 479.62C361.657 482.586 360.067 485.315 358.068 487.66C354.22 492.17 348.641 495.24 342.422 495.714L77.9445 515.652L62.347 516.829C58.5857 517.118 55.0221 516.599 51.8313 515.43C45.4211 513.1 40.6492 508.154 38.7482 501.838C38.1716 499.953 37.976 497.949 37.976 495.848V227.793H363.694V227.791Z" fill="#BFC8D6"/>
<path d="M348.349 78.4648L68.1967 69.8431C54.6205 69.4258 43.5505 79.3095 43.5505 91.9226V490.674C43.5505 503.287 54.6205 512.676 68.1967 511.655L348.349 490.54C360.086 489.655 369.548 479.514 369.548 467.882V100.176C369.548 88.5459 360.086 78.8271 348.349 78.4648Z" fill="url(#paint9_linear)"/>
<path opacity="0.74" d="M51.4521 492.492V89.7486C51.4521 82.4905 57.8174 76.7916 65.6457 77.0175L350.568 85.2912C357.335 85.4886 362.806 91.0919 362.806 97.8106V470.548C362.806 477.267 357.337 483.115 350.568 483.613L65.6457 504.59C57.8195 505.168 51.4521 499.752 51.4521 492.492Z" fill="white"/>
<path d="M348.349 78.4648L68.1967 69.8431C54.6205 69.4258 43.5505 79.3095 43.5505 91.9226V108.305L369.546 115.284V100.178C369.548 88.5459 360.086 78.8271 348.349 78.4648Z" fill="url(#paint10_linear)"/>
<path d="M87.315 90.8398C87.315 94.9247 83.7554 98.1508 79.3543 98.0449C74.9451 97.9391 71.3631 94.5278 71.3631 90.4286C71.3631 86.3274 74.9451 83.1034 79.3543 83.2255C83.7554 83.3456 87.315 86.7548 87.315 90.8398Z" fill="white"/>
<path d="M115.034 91.5561C115.034 95.6126 111.521 98.8183 107.179 98.7145C102.829 98.6107 99.2937 95.2238 99.2937 91.1491C99.2937 87.0763 102.827 83.8727 107.179 83.9928C111.521 84.1129 115.034 87.4997 115.034 91.5561Z" fill="white"/>
<path d="M142.384 92.2647C142.384 96.2947 138.918 99.48 134.633 99.3762C130.34 99.2724 126.854 95.91 126.854 91.8637C126.854 87.8174 130.34 84.6342 134.633 84.7522C138.918 84.8703 142.384 88.2347 142.384 92.2647Z" fill="white"/>
<path d="M184.638 182.998C184.638 207.457 164.589 227.194 139.429 227.084C113.787 226.97 92.6329 206.354 92.6329 181.038C92.6329 155.723 113.787 136.006 139.429 136.985C164.589 137.948 184.638 158.539 184.638 182.998Z" fill="url(#paint11_linear)"/>
<path opacity="0.9" d="M179.353 182.886C179.353 204.484 161.628 221.88 139.429 221.737C116.855 221.593 98.2729 203.423 98.2729 181.158C98.2729 158.894 116.855 141.516 139.429 142.334C161.628 143.136 179.353 161.287 179.353 182.886Z" fill="white"/>
<path d="M136.133 185.481C137.131 186.277 138.252 186.751 139.437 186.774C140.629 186.796 141.758 186.361 142.759 185.593C145.253 183.68 146.968 179.711 146.968 175.683C146.968 170.043 143.602 166.398 139.44 166.284C135.263 166.17 131.868 169.652 131.868 175.323C131.864 179.39 133.608 183.462 136.133 185.481Z" fill="url(#paint12_linear)"/>
<path d="M157.015 200.162C156.286 198.648 155.332 197.236 154.303 195.953C154.201 195.829 153.998 195.709 153.879 195.587C153.869 195.575 153.835 195.565 153.824 195.552C153.794 195.516 153.749 195.481 153.719 195.444C153.67 195.387 153.617 195.332 153.566 195.278C153.545 195.247 153.517 195.218 153.486 195.19C153.382 195.064 153.266 194.944 153.154 194.824C153.136 194.803 153.115 194.783 153.095 194.765C153.054 194.72 153.011 194.677 152.969 194.634C152.965 194.628 152.959 194.624 152.952 194.618C152.922 194.583 152.889 194.551 152.859 194.52C152.818 194.482 152.779 194.441 152.741 194.402C152.716 194.374 152.692 194.349 152.663 194.325C152.586 194.248 152.506 194.17 152.429 194.097C152.412 194.081 152.396 194.066 152.38 194.052C152.28 193.957 152.178 193.865 152.076 193.771C152.033 193.733 151.993 193.692 151.95 193.655C151.87 193.586 151.789 193.513 151.705 193.442C151.685 193.425 151.667 193.409 151.646 193.393C149.346 191.423 146.563 189.971 143.504 189.251C143.402 189.224 143.301 189.202 143.199 189.18C143.195 189.18 143.195 189.184 143.195 189.184C143.193 189.188 143.188 189.19 143.186 189.194C142.278 188.998 141.347 188.874 140.399 188.815C140.079 188.795 139.763 188.77 139.439 188.764C138.076 188.738 136.746 189.855 135.46 189.125H135.417C135.417 189.125 135.413 189.133 135.413 189.131C135.409 189.131 135.409 189.129 135.407 189.129C135.403 189.133 135.401 189.127 135.397 189.127C135.397 189.127 135.397 189.127 135.393 189.127C135.379 189.127 135.368 189.119 135.354 189.112C135.35 189.108 135.35 189.127 135.348 189.127C135.344 189.127 135.344 189.127 135.344 189.127C129.366 190.586 124.413 194.301 122.035 199.672C121.055 201.892 120.5 204.335 120.5 206.922V207.516L158.476 207.948V207.361C158.476 204.811 157.747 202.381 157.015 200.166V200.162Z" fill="url(#paint13_linear)"/>
<path d="M119.535 178.398C123.76 178.494 127.177 172.933 127.177 167.249C127.177 161.564 123.76 157.882 119.535 157.756C115.294 157.628 111.849 161.122 111.849 166.84C111.849 172.557 115.294 178.305 119.535 178.398Z" fill="url(#paint14_linear)"/>
<path d="M132.119 185.911C132.129 185.907 132.137 185.477 132.147 185.477H132.151C132.406 185.477 132.667 185.911 132.929 185.622C132.948 185.64 132.927 185.866 132.944 185.884C132.948 185.889 132.915 186.1 132.915 186.104V186.098L132.995 185.479H132.991C132.991 185.479 132.991 185.49 132.987 185.49L132.972 185.479H132.968C132.237 185.479 131.444 184.386 130.601 183.772C130.611 183.792 130.625 183.943 130.635 183.963C130.631 183.959 130.625 184.02 130.621 184.018C127.514 181.777 123.895 180.442 119.751 180.352C109.182 180.122 100.777 188.323 100.777 198.632V198.731L118.532 198.998C118.536 198.998 118.4 199.073 118.402 199.067C120.69 192.809 125.686 187.867 132.119 185.911Z" fill="url(#paint15_linear)"/>
<path d="M132.993 186.149C133.127 186.234 133.223 186.32 133.3 186.407C133.223 186.316 133.127 186.228 132.993 186.143V186.149Z" fill="url(#paint16_linear)"/>
<path d="M158.79 179.284C162.894 179.375 166.211 173.896 166.211 168.295C166.211 162.694 162.894 159.067 158.79 158.942C154.674 158.818 151.326 162.264 151.326 167.896C151.326 173.53 154.672 179.19 158.79 179.284Z" fill="url(#paint17_linear)"/>
<path d="M158.199 181.232C154.35 181.148 151.056 182.233 148.075 184.158C147.113 184.777 146.355 185.485 145.534 186.271C145.538 186.271 145.613 186.275 145.617 186.275C145.964 186.379 146.343 186.192 146.683 186.316C153.089 188.593 157.765 194.268 159.998 199.621L176.007 199.863V199.767C176.003 189.747 168.385 181.453 158.199 181.232Z" fill="url(#paint18_linear)"/>
<path d="M318.414 158.393L211.789 154.949V142.289L318.414 146.252V158.393Z" fill="white"/>
<path d="M341.053 186.033L211.789 183.247V170.587L341.053 174.006V186.033Z" fill="white"/>
<path d="M341.053 212.916L211.789 211.544V198.884L341.053 200.889V212.916Z" fill="white"/>
<path d="M341.053 407.461L72.3002 425.854V412.517L341.053 395.436V407.461Z" fill="white"/>
<path d="M341.053 433.637L72.3002 454.884V442.332L341.053 422.319V433.637Z" fill="white"/>
<path opacity="0.42" d="M203.757 372.813L72.3002 379.562V251.671L203.757 251.05V372.813Z" fill="white"/>
<path d="M191.34 280.388L84.7151 282.077V268.798L191.34 267.63V280.388Z" fill="white"/>
<path d="M191.34 305.903L84.7151 308.636V296.137L191.34 293.894V305.903Z" fill="white"/>
<path d="M191.34 332.169L84.7151 335.975V322.696L191.34 319.411V332.169Z" fill="white"/>
<path d="M191.34 357.684L84.7151 362.534V349.256L191.34 344.927V357.684Z" fill="white"/>
<path opacity="0.42" d="M341.053 365.722L224.935 371.71V250.949L341.053 250.409V365.722Z" fill="white"/>
<path d="M253.416 358.535L237.349 359.253V319.45L253.416 318.968V358.535Z" fill="white"/>
<path d="M278.977 357.332L262.911 358.091V296.04L278.977 295.676V357.332Z" fill="white"/>
<path d="M305.269 356.107L288.472 356.86V275.939L305.269 275.703V356.107Z" fill="white"/>
<path d="M328.638 354.979L314.032 355.694V262.701L328.638 262.554V354.979Z" fill="white"/>
<path d="M413.108 287.664C406.057 280.144 425.58 251.885 436.029 239.504C445.157 228.686 454.54 217.569 466.062 218.977C476.179 220.213 486.022 230.87 486.611 241.083C488.2 268.559 423.135 298.356 413.108 287.664Z" fill="url(#paint19_linear)"/>
<path d="M497.785 578.033C499.113 579.112 499.356 581.803 499.517 583.563C499.588 584.349 499.624 584.742 499.535 585.021C498.893 587.046 494.963 587.26 488.797 587.888C479.053 588.884 476.154 589.649 475.392 588.2C474.677 586.842 476.407 584.62 476.602 584.375C477.65 583.059 478.933 582.578 481.419 581.762C486.016 580.25 489.121 579.423 490.062 579.173C495.932 577.604 496.913 577.325 497.785 578.033Z" fill="url(#paint20_linear)"/>
<path d="M491.99 569.141L491.014 580.231C491.291 580.767 494.59 582.372 497.212 580.997L499.717 570.095L491.99 569.141Z" fill="url(#paint21_linear)"/>
<path d="M420.515 576.607C422.106 578.361 422.469 581.593 421.085 583.187C419.726 584.752 417.681 583.578 411.88 583.751C405.667 583.936 404.045 585.402 399.824 584.239C398.118 583.769 395.107 582.625 395.164 581.41C395.204 580.555 396.737 580.114 401.859 578.398C409.129 575.966 409.098 575.831 410.641 575.577C414.52 574.934 418.414 574.29 420.515 576.607Z" fill="url(#paint22_linear)"/>
<path d="M416.536 566.485L413.418 576.839C413.655 577.394 416.821 579.247 419.539 578.074L424.166 568.026L416.536 566.485Z" fill="url(#paint23_linear)"/>
<path d="M444.22 339.724C443.774 374.521 441.396 413.644 435.693 456.151C430.057 498.162 422.155 536.12 413.539 569.499C417.514 570.568 421.489 571.636 425.464 572.705C435.55 563.31 448.275 548.521 454.414 527.622C458.224 514.651 456.955 507.985 459.371 492.032C463.22 466.629 471.016 453.321 479.072 432.836C486.312 414.428 494.87 387.413 499.458 351.303C481.047 347.444 462.633 343.583 444.22 339.724Z" fill="url(#paint24_linear)"/>
<path d="M480.107 336.405C482.54 380.66 484.541 425.738 486.059 471.615C487.198 506.041 488.033 540.031 488.587 573.574C492.648 574.075 496.709 574.575 500.77 575.076C504.694 567.777 509.906 556.622 513.476 542.319C517.812 524.952 516.807 514.636 518.71 496.636C520.844 476.447 523.943 472.047 529.434 446.578C540.577 394.891 546.15 369.046 533.719 352.969C529.682 347.75 517.033 334.659 480.107 336.405Z" fill="url(#paint25_linear)"/>
<path d="M539.292 225.179C529.78 222.507 515.843 219.382 498.773 218.42C474.426 217.046 462.254 216.358 453.627 222.148C433.704 235.525 449.128 266.397 440.974 342.926C439.808 353.856 439.548 364.861 438.704 375.819C437.308 393.963 436.988 394.948 438.254 396.788C446.18 408.318 475.747 390.928 519.085 397.801C543.334 401.648 554.331 410.508 560.975 404.117C568.722 396.663 562.077 376.615 556.356 359.357C549.789 339.547 545.732 339.293 542.006 324.374C538.11 308.781 540.465 300.752 541.072 276.162C541.364 264.4 541.303 246.89 539.292 225.179Z" fill="url(#paint26_linear)"/>
<g opacity="0.3">
<path opacity="0.3" d="M480.358 368.852C491.685 367.967 499.034 374.364 508.81 369.38C522.217 362.543 526.527 341.273 525.671 326.22C524.373 303.347 511.298 297.318 513.552 282.533C514.77 274.538 520.485 263.922 541.003 253.078C541.276 262.206 541.226 269.985 541.073 276.167C540.466 300.756 538.11 308.785 542.006 324.378C545.733 339.297 549.789 339.552 556.356 359.362C562.078 376.619 568.722 396.668 560.975 404.121C554.333 410.512 543.334 401.65 519.086 397.805C481.743 391.882 454.638 403.958 442.779 400.042C457.112 376.383 470.109 369.654 480.358 368.852Z" fill="url(#paint27_linear)"/>
</g>
<path d="M523.841 226.748C531.93 220.109 548.198 227.626 552.546 229.634C576.795 240.839 598.566 271.031 593.17 302.938C592.361 307.723 588.61 330.106 569.637 340.95C552.517 350.736 529.401 348.218 510.88 334.359C508.349 332.116 505.817 329.873 503.286 327.628C500.796 324.94 498.306 322.251 495.814 319.562C499.729 316.31 506.379 311.618 515.721 308.606C528.036 304.637 537.001 311.759 542.717 306.345C546.659 302.608 546.669 296.007 545.695 292.006C543.733 283.942 536.618 281.674 530.679 275.953C516.726 262.507 514.154 234.7 523.841 226.748Z" fill="url(#paint28_linear)"/>
<path d="M407.583 330.911L516.017 329.295L487.182 343.195L407.306 337.974L407.583 330.911Z" fill="url(#paint29_linear)"/>
<path d="M519.843 332.173C519.843 334.201 518.574 336.012 516.667 336.704L482.018 350.272L481.861 340.864L516.017 329.293C517.934 328.744 519.843 330.181 519.843 332.173Z" fill="url(#paint30_linear)"/>
<path d="M503.146 325.764C503.812 325.616 499.904 317.839 496.835 318.736C493.769 319.634 478.764 328.319 477.401 331.897C476.038 335.473 476.038 335.473 476.038 335.473C476.038 335.473 482.583 335.984 486.642 334.622C490.7 333.258 497.734 326.969 503.146 325.764Z" fill="url(#paint31_linear)"/>
<path d="M478.985 274.864L486.628 344.381C486.89 346.781 483.53 350.353 481.116 350.239L368.99 343.364C367.148 343.276 365.613 341.923 365.302 340.105L351.228 272.963C350.809 270.521 355.206 267.997 357.685 268.066L475.187 271.365C477.149 271.422 478.771 272.914 478.985 274.864Z" fill="url(#paint32_linear)"/>
<path d="M476.421 276.891L484.064 346.409C484.327 348.808 482.383 350.874 479.971 350.76L366.426 345.391C364.584 345.304 363.05 343.95 362.738 342.132L351.138 274.683C350.719 272.238 352.642 270.022 355.124 270.093L472.625 273.393C474.585 273.45 476.207 274.941 476.421 276.891Z" fill="url(#paint33_linear)"/>
<path opacity="0.3" d="M409.749 329.1C419.663 324.903 416.163 316.898 427.871 306.923C443.315 293.764 459.057 299.472 464.569 289.272C466.284 286.095 467.106 281.153 464.114 273.155L472.623 273.393C474.585 273.448 476.207 274.94 476.419 276.889L484.062 346.407C484.325 348.804 482.381 350.872 479.969 350.758L366.424 345.389C364.582 345.302 363.048 343.948 362.736 342.13L361.135 332.823C364.58 330.908 368.696 329.165 373.501 328.192C390.16 324.82 398.334 333.934 409.749 329.1Z" fill="url(#paint34_linear)"/>
<path d="M359.272 335.668C359.087 335.108 359.478 334.53 360.069 334.502C362.469 334.38 368.034 334.331 371.107 336.21C375.098 338.652 380.259 343.109 375.913 345.356L371.854 347.457C371.669 347.552 371.465 347.583 371.259 347.538C369.817 347.221 363.747 345.877 363.085 345.541C362.482 345.238 360.167 338.377 359.272 335.668Z" fill="url(#paint35_linear)"/>
<path d="M496.955 191.848C496.894 199.057 497.699 204.777 498.461 208.693C499.333 213.179 499.963 214.339 500.766 215.279C501.974 216.696 503.804 217.882 514.146 220.445C519.774 221.839 520.499 221.8 520.623 222.358C521.231 225.079 505.882 234.356 490.028 232.12C480.323 230.752 471.494 225.222 472.036 222.317C472.582 219.395 482.275 220.964 485.164 215.676C487.173 211.998 484.922 206.775 482.259 202.45C484.836 197.624 494.376 196.676 496.955 191.848Z" fill="url(#paint36_linear)"/>
<path d="M478.946 194.7C476.655 191.661 476.515 186.355 479.153 183.003C481.425 180.116 484.997 179.705 487.137 179.459C493.337 178.745 501.159 181.33 503.879 187.028C505.491 190.407 502.005 197.425 501.458 198.687C500.839 200.114 499.718 200.602 498.681 201.681C497.245 203.177 494.993 205.556 491.32 209.533C491.034 208.359 490.6 206.906 489.912 205.33C489.647 204.724 488.581 202.357 486.967 200.393C483.736 196.456 481.116 197.58 478.946 194.7Z" fill="url(#paint37_linear)"/>
<path d="M496.558 206.187C496.558 206.187 492.483 212.865 484.368 212.338C477.102 211.866 476.038 195.591 480.68 192.137C482.228 190.985 485.327 190.507 487.85 191.213C489.339 191.63 489.843 192.247 492.29 192.882C494.547 193.466 495.183 193.218 495.866 193.79C496.717 194.506 497.341 196.263 495.919 201.02C497.304 199.617 498.969 199.08 500.146 199.635C500.334 199.725 500.833 200.063 501.114 200.578C502.131 202.436 500.43 204.809 496.558 206.187Z" fill="url(#paint38_linear)"/>
<path d="M496.193 192.815C495.843 193.076 496.915 194.382 496.994 196.231C497.149 199.819 493.514 204.124 489.805 204.49C487.613 204.706 487.01 203.385 483.385 203.004C481.142 202.768 479.273 203.053 478.098 203.309C476.959 207.244 478.03 211.166 480.663 212.988C483.497 214.948 487.118 213.759 488.632 213.26C489.645 212.928 492.89 211.868 494.586 208.896C496.352 205.799 494.618 203.932 496.646 201.836C497.668 200.78 499.011 200.322 500.319 198.276C500.674 197.72 500.912 197.228 501.057 196.898C499.182 194.912 496.701 192.439 496.193 192.815Z" fill="url(#paint39_linear)"/>
<path d="M480.737 204.767C480.737 204.767 482.305 205.585 485.017 205.434C485.15 205.426 485.295 205.465 485.311 205.534C485.374 205.79 483.634 206.942 482.03 206.493C480.893 206.173 480.007 205.096 480.16 204.824C480.225 204.706 480.484 204.72 480.737 204.767Z" fill="url(#paint40_linear)"/>
</g>
<defs>
<linearGradient id="paint0_linear" x1="307.972" y1="277.27" x2="439.474" y2="390.492" gradientUnits="userSpaceOnUse">
<stop stop-color="#FF9085"/>
<stop offset="1" stop-color="#FB6FBB"/>
</linearGradient>
<linearGradient id="paint1_linear" x1="424.637" y1="322.169" x2="373.265" y2="460.212" gradientUnits="userSpaceOnUse">
<stop stop-color="#AA80F9"/>
<stop offset="0.9964" stop-color="#6165D7"/>
</linearGradient>
<linearGradient id="paint2_linear" x1="518.021" y1="156.577" x2="440.72" y2="134.678" gradientUnits="userSpaceOnUse">
<stop stop-color="#311944"/>
<stop offset="1" stop-color="#A03976"/>
</linearGradient>
<linearGradient id="paint3_linear" x1="517.819" y1="157.292" x2="440.517" y2="135.394" gradientUnits="userSpaceOnUse">
<stop stop-color="#311944"/>
<stop offset="1" stop-color="#A03976"/>
</linearGradient>
<linearGradient id="paint4_linear" x1="438.681" y1="107.771" x2="439.888" y2="205.296" gradientUnits="userSpaceOnUse">
<stop stop-color="#FF9085"/>
<stop offset="1" stop-color="#FB6FBB"/>
</linearGradient>
<linearGradient id="paint5_linear" x1="509.089" y1="111.379" x2="357.664" y2="68.4823" gradientUnits="userSpaceOnUse">
<stop stop-color="#311944"/>
<stop offset="1" stop-color="#A03976"/>
</linearGradient>
<linearGradient id="paint6_linear" x1="508.692" y1="112.78" x2="357.266" y2="69.8834" gradientUnits="userSpaceOnUse">
<stop stop-color="#311944"/>
<stop offset="1" stop-color="#A03976"/>
</linearGradient>
<linearGradient id="paint7_linear" x1="353.67" y1="15.7741" x2="356.034" y2="206.815" gradientUnits="userSpaceOnUse">
<stop stop-color="#FF9085"/>
<stop offset="1" stop-color="#FB6FBB"/>
</linearGradient>
<linearGradient id="paint8_linear" x1="148.318" y1="524.272" x2="723.022" y2="524.272" gradientUnits="userSpaceOnUse">
<stop offset="0.494" stop-color="#EBEFF2"/>
<stop offset="1" stop-color="white"/>
</linearGradient>
<linearGradient id="paint9_linear" x1="43.5512" y1="290.779" x2="369.547" y2="290.779" gradientUnits="userSpaceOnUse">
<stop offset="0.00359712" stop-color="#E38DDD"/>
<stop offset="1" stop-color="#9571F6"/>
</linearGradient>
<linearGradient id="paint10_linear" x1="208.281" y1="87.3743" x2="180.497" y2="338.771" gradientUnits="userSpaceOnUse">
<stop stop-color="#40447E"/>
<stop offset="0.9964" stop-color="#3C3B6B"/>
</linearGradient>
<linearGradient id="paint11_linear" x1="171.684" y1="38.9389" x2="119.415" y2="265.683" gradientUnits="userSpaceOnUse">
<stop offset="0.00359712" stop-color="#E38DDD"/>
<stop offset="1" stop-color="#9571F6"/>
</linearGradient>
<linearGradient id="paint12_linear" x1="149.461" y1="133.28" x2="113.925" y2="283.314" gradientUnits="userSpaceOnUse">
<stop offset="0.00359712" stop-color="#E38DDD"/>
<stop offset="1" stop-color="#9571F6"/>
</linearGradient>
<linearGradient id="paint13_linear" x1="156.522" y1="134.626" x2="120.734" y2="285.72" gradientUnits="userSpaceOnUse">
<stop offset="0.00359712" stop-color="#E38DDD"/>
<stop offset="1" stop-color="#9571F6"/>
</linearGradient>
<linearGradient id="paint14_linear" x1="128.878" y1="127.689" x2="93.0821" y2="278.819" gradientUnits="userSpaceOnUse">
<stop offset="0.00359712" stop-color="#E38DDD"/>
<stop offset="1" stop-color="#9571F6"/>
</linearGradient>
<linearGradient id="paint15_linear" x1="131.334" y1="130.258" x2="96.8349" y2="275.91" gradientUnits="userSpaceOnUse">
<stop offset="0.00359712" stop-color="#E38DDD"/>
<stop offset="1" stop-color="#9571F6"/>
</linearGradient>
<linearGradient id="paint16_linear" x1="146.308" y1="130.826" x2="109.752" y2="285.164" gradientUnits="userSpaceOnUse">
<stop offset="0.00359712" stop-color="#E38DDD"/>
<stop offset="1" stop-color="#9571F6"/>
</linearGradient>
<linearGradient id="paint17_linear" x1="165.966" y1="137.872" x2="130.706" y2="286.74" gradientUnits="userSpaceOnUse">
<stop offset="0.00359712" stop-color="#E38DDD"/>
<stop offset="1" stop-color="#9571F6"/>
</linearGradient>
<linearGradient id="paint18_linear" x1="173.023" y1="141.439" x2="139.091" y2="284.699" gradientUnits="userSpaceOnUse">
<stop offset="0.00359712" stop-color="#E38DDD"/>
<stop offset="1" stop-color="#9571F6"/>
</linearGradient>
<linearGradient id="paint19_linear" x1="446.138" y1="277.103" x2="376.199" y2="612.876" gradientUnits="userSpaceOnUse">
<stop stop-color="#FFC444"/>
<stop offset="0.9964" stop-color="#F36F56"/>
</linearGradient>
<linearGradient id="paint20_linear" x1="475.347" y1="582.993" x2="499.614" y2="583.696" gradientUnits="userSpaceOnUse">
<stop stop-color="#444B8C"/>
<stop offset="0.9964" stop-color="#26264F"/>
</linearGradient>
<linearGradient id="paint21_linear" x1="491.016" y1="575.341" x2="499.719" y2="575.341" gradientUnits="userSpaceOnUse">
<stop stop-color="#FFC444"/>
<stop offset="0.9964" stop-color="#F36F56"/>
</linearGradient>
<linearGradient id="paint22_linear" x1="396.548" y1="576.318" x2="421.413" y2="583.162" gradientUnits="userSpaceOnUse">
<stop stop-color="#444B8C"/>
<stop offset="0.9964" stop-color="#26264F"/>
</linearGradient>
<linearGradient id="paint23_linear" x1="413.419" y1="572.471" x2="424.168" y2="572.471" gradientUnits="userSpaceOnUse">
<stop stop-color="#FFC444"/>
<stop offset="0.9964" stop-color="#F36F56"/>
</linearGradient>
<linearGradient id="paint24_linear" x1="405.02" y1="534.382" x2="473.688" y2="379.42" gradientUnits="userSpaceOnUse">
<stop stop-color="#40447E"/>
<stop offset="0.9964" stop-color="#3C3B6B"/>
</linearGradient>
<linearGradient id="paint25_linear" x1="438.804" y1="541.721" x2="525.937" y2="396.313" gradientUnits="userSpaceOnUse">
<stop stop-color="#40447E"/>
<stop offset="0.9964" stop-color="#3C3B6B"/>
</linearGradient>
<linearGradient id="paint26_linear" x1="509.772" y1="290.357" x2="439.833" y2="626.129" gradientUnits="userSpaceOnUse">
<stop stop-color="#FFC444"/>
<stop offset="0.9964" stop-color="#F36F56"/>
</linearGradient>
<linearGradient id="paint27_linear" x1="528.983" y1="502.542" x2="498.282" y2="356.556" gradientUnits="userSpaceOnUse">
<stop stop-color="#FFC444"/>
<stop offset="0.9964" stop-color="#F36F56"/>
</linearGradient>
<linearGradient id="paint28_linear" x1="555.209" y1="260.086" x2="499.886" y2="525.689" gradientUnits="userSpaceOnUse">
<stop stop-color="#FFC444"/>
<stop offset="0.9964" stop-color="#F36F56"/>
</linearGradient>
<linearGradient id="paint29_linear" x1="445.692" y1="375.693" x2="458.784" y2="338.559" gradientUnits="userSpaceOnUse">
<stop stop-color="#311944"/>
<stop offset="1" stop-color="#893976"/>
</linearGradient>
<linearGradient id="paint30_linear" x1="502.995" y1="321.904" x2="498.195" y2="355.099" gradientUnits="userSpaceOnUse">
<stop stop-color="#311944"/>
<stop offset="1" stop-color="#893976"/>
</linearGradient>
<linearGradient id="paint31_linear" x1="476.039" y1="327.114" x2="503.221" y2="327.114" gradientUnits="userSpaceOnUse">
<stop stop-color="#FFC444"/>
<stop offset="0.9964" stop-color="#F36F56"/>
</linearGradient>
<linearGradient id="paint32_linear" x1="407.694" y1="324.811" x2="433.231" y2="288.51" gradientUnits="userSpaceOnUse">
<stop stop-color="#444B8C"/>
<stop offset="0.9964" stop-color="#26264F"/>
</linearGradient>
<linearGradient id="paint33_linear" x1="456.749" y1="384.847" x2="400.879" y2="271.239" gradientUnits="userSpaceOnUse">
<stop stop-color="#311944"/>
<stop offset="1" stop-color="#893976"/>
</linearGradient>
<linearGradient id="paint34_linear" x1="484.089" y1="311.96" x2="361.137" y2="311.96" gradientUnits="userSpaceOnUse">
<stop stop-color="#311944"/>
<stop offset="1" stop-color="#893976"/>
</linearGradient>
<linearGradient id="paint35_linear" x1="359.227" y1="341.004" x2="377.565" y2="341.004" gradientUnits="userSpaceOnUse">
<stop stop-color="#FFC444"/>
<stop offset="0.9964" stop-color="#F36F56"/>
</linearGradient>
<linearGradient id="paint36_linear" x1="498.13" y1="191.918" x2="493.451" y2="271.541" gradientUnits="userSpaceOnUse">
<stop stop-color="#FFC444"/>
<stop offset="0.9964" stop-color="#F36F56"/>
</linearGradient>
<linearGradient id="paint37_linear" x1="505.936" y1="228.499" x2="487.784" y2="181.841" gradientUnits="userSpaceOnUse">
<stop stop-color="#311944"/>
<stop offset="1" stop-color="#6B3976"/>
</linearGradient>
<linearGradient id="paint38_linear" x1="477.882" y1="201.626" x2="501.403" y2="201.626" gradientUnits="userSpaceOnUse">
<stop stop-color="#FFC444"/>
<stop offset="0.9964" stop-color="#F36F56"/>
</linearGradient>
<linearGradient id="paint39_linear" x1="500.319" y1="230.709" x2="482.149" y2="184.003" gradientUnits="userSpaceOnUse">
<stop stop-color="#311944"/>
<stop offset="1" stop-color="#6B3976"/>
</linearGradient>
<linearGradient id="paint40_linear" x1="480.143" y1="205.663" x2="485.313" y2="205.663" gradientUnits="userSpaceOnUse">
<stop stop-color="#FFC444"/>
<stop offset="0.9964" stop-color="#F36F56"/>
</linearGradient>
<clipPath id="clip0">
<rect width="594" height="589" fill="white"/>
</clipPath>
</defs>
</svg>
