<svg width="698" height="700" viewBox="0 0 698 700" fill="none" xmlns="http://www.w3.org/2000/svg">
<g clip-path="url(#clip0)">
<path d="M165.632 42.0732C142.492 75.8682 169.624 130.661 135.287 156.077C101.863 180.82 60.8013 140.264 29.303 161.563C-17.4249 193.156 -8.8912 337.725 59.4266 427.548C79.9728 454.56 97.141 465.071 104.744 495.622C121.07 561.221 63.6899 600.244 74.6107 632.689C99.1971 705.742 477.32 767.042 629.042 547.494C699.9 444.955 710.504 296.892 647.193 184.435C532.788 -18.7747 217.556 -33.759 165.632 42.0732Z" fill="#F4F7FA"/>
<path d="M400.618 40.1047L62.006 28.6225C54.264 28.3605 47.9758 34.3696 47.9758 42.0444V658.292C47.9758 665.969 54.264 671.832 62.006 671.392L400.618 652.1C407.621 651.701 413.288 645.476 413.288 638.198V53.7164C413.288 46.4358 407.621 40.3426 400.618 40.1047Z" fill="url(#paint0_linear)"/>
<g opacity="0.3">
<path opacity="0.3" d="M261.686 495.158C255.928 424.695 299.132 395.611 282.654 331.771C262.29 252.86 183.966 249.478 157.29 172.093C147.069 142.444 143.032 97.6212 172.287 32.3626L62.0033 28.6225C54.2613 28.3605 47.9731 34.3696 47.9731 42.0444V658.292C47.9731 665.969 54.2613 671.832 62.0033 671.392L363.93 654.192C287.117 594.601 265.225 538.466 261.686 495.158Z" fill="#D8DEE8"/>
</g>
<path opacity="0.3" d="M400.617 47.8852L62.0057 36.7949C58.8316 36.6915 56.2477 39.1649 56.2477 42.3088V657.838C56.2477 660.982 58.8316 663.397 62.0057 663.22L400.617 644.32C403.492 644.159 405.828 641.597 405.828 638.609V53.4785C405.828 50.4884 403.492 47.979 400.617 47.8852Z" fill="url(#paint1_linear)"/>
<path opacity="0.6" d="M336.666 513.863L131.204 521.281C126.353 521.456 122.416 525.533 122.416 530.388C122.416 535.243 126.353 539.027 131.204 538.839L336.666 530.907C341.229 530.732 344.924 526.778 344.924 522.076C344.926 517.377 341.232 513.699 336.666 513.863Z" fill="url(#paint2_linear)"/>
<path opacity="0.6" d="M336.666 544.223L131.204 552.559C126.353 552.756 122.416 556.852 122.416 561.707C122.416 566.562 126.353 570.329 131.204 570.12L336.666 561.27C341.229 561.073 344.924 557.104 344.924 552.403C344.926 547.699 341.232 544.038 336.666 544.223Z" fill="url(#paint3_linear)"/>
<path opacity="0.6" d="M336.666 574.583L131.204 583.835C126.353 584.054 122.416 588.166 122.416 593.022C122.416 597.877 126.353 601.624 131.204 601.396L336.666 591.628C341.229 591.411 344.924 587.424 344.924 582.722C344.926 578.023 341.232 574.379 336.666 574.583Z" fill="url(#paint4_linear)"/>
<path opacity="0.6" d="M230.123 72.5296L126.77 69.5972C124.366 69.5299 122.418 71.4216 122.418 73.8252C122.418 76.2288 124.366 78.2286 126.77 78.2935L230.123 81.0986C232.455 81.1611 234.343 79.2958 234.343 76.9307C234.341 74.5655 232.452 72.5945 230.123 72.5296Z" fill="url(#paint5_linear)"/>
<path opacity="0.6" d="M230.123 87.7903L126.77 85.0862C124.366 85.0237 122.418 86.9202 122.418 89.3238C122.418 91.7275 124.366 93.7225 126.77 93.7826L230.123 96.3593C232.455 96.417 234.343 94.5469 234.343 92.1818C234.341 89.819 232.452 87.8528 230.123 87.7903Z" fill="url(#paint6_linear)"/>
<path opacity="0.6" d="M230.123 103.053L126.77 100.578C124.366 100.52 122.418 102.421 122.418 104.825C122.418 107.228 124.366 109.221 126.77 109.274L230.123 111.622C232.455 111.675 234.343 109.8 234.343 107.438C234.341 105.072 232.452 103.109 230.123 103.053Z" fill="url(#paint7_linear)"/>
<path opacity="0.35" d="M262.466 495.131C256.708 424.676 299.902 395.594 283.429 331.764C263.07 252.86 184.762 249.48 158.094 172.105C148.298 143.682 144.181 101.311 169.653 40.3209L62.831 36.8212C59.6594 36.7179 57.0755 39.1912 57.0755 42.3352V657.792C57.0755 660.936 59.6594 663.349 62.831 663.174L355.521 646.836C286.116 589.95 265.858 536.644 262.466 495.131Z" fill="white"/>
<path d="M328.466 657.215C306.686 656.845 286.889 606.282 285.171 564.954C284.506 548.965 283.844 533.06 293.064 517.052C308.623 490.033 332.513 497.124 346.469 475.114C367.078 442.612 329.33 404.531 349.825 377.529C364.902 357.667 390.1 371.981 408.381 350.156C429.587 324.839 408.892 289.798 428.527 277.03C439.932 269.613 449.92 279.482 482.747 272.002C495.59 269.074 502.01 267.613 507.396 263.106C526.282 247.309 511.829 220.418 525.802 200.407C541.183 178.381 581.776 177.905 607.034 184.849C652.292 197.292 678.673 241.899 685.15 279.621C686.537 287.702 694.737 340.462 661.284 374.248C636.956 398.815 599.945 403.918 593.942 404.745C570.555 407.968 564.838 401.909 557.312 408.096C535.562 425.981 578.209 480.839 553.524 523.862C543.445 541.427 523.66 554.378 504.92 558.164C474.626 564.286 458.082 544.228 443.039 554.318C423.577 567.37 442.634 606.729 421.516 622.466C406.575 633.599 391.388 618.103 365.079 629.612C341.723 639.827 341.361 657.434 328.466 657.215Z" fill="url(#paint8_linear)"/>
<path opacity="0.5" d="M323.752 618.702C333.802 619.608 334.896 592.473 362.598 552.785C392.851 509.442 412.966 511.118 441.309 471.95C473.666 427.238 453.854 416.21 481.351 381.211C518.614 333.775 558.869 349.118 603.884 293.368C617.387 276.643 635.277 253.831 628.171 230.333C622.01 209.957 597.862 191.74 574.224 195.353C573.235 195.504 553.404 198.855 543.078 216.12C530.413 237.301 546.804 254.756 534.571 271.226C528.163 279.852 516.513 282.539 493.212 287.916C459.699 295.646 452.945 289.339 444.63 296.978C425.837 314.241 453.252 352.947 434.654 373.632C418.688 391.393 388.991 373.421 375.191 390.208C358.537 410.47 394.706 445.27 379.248 477.21C365.94 504.71 331.563 494.537 312.473 524.071C289.926 558.947 309.249 617.394 323.752 618.702Z" fill="#F4F7FA"/>
<path d="M470.068 613.885C485.612 613.508 485.033 584.883 511.198 573.824C540.142 561.592 561.707 587.801 581.481 575.143C603.699 560.919 586.706 521.278 611.482 503.457C628.411 491.283 642.33 505.479 663.956 493.732C686.496 481.488 706.385 447.047 694.392 416.242C684.385 390.542 655.686 376.361 633.842 378.259C615.973 379.815 611.938 391.328 596.015 389.552C576.177 387.338 574.881 368.621 553.701 362.138C532.627 355.687 505.577 365.542 491.876 383.583C480.482 398.585 480.811 415.968 481.096 431.13C481.864 471.833 501.741 485.666 493.368 502.126C482.92 522.662 447.76 509.411 434.246 530.07C417.332 555.924 447.71 614.431 470.068 613.885Z" fill="url(#paint9_linear)"/>
<path opacity="0.5" d="M459.778 584.859C465.533 585.452 465.468 566.88 481.783 549.823C500.489 530.27 516.664 537.865 538.138 521.79C564.747 501.873 551.977 481.178 575.464 461.303C608.387 433.442 654.684 456.166 664.628 435.019C670.436 422.664 660.672 402.063 647.551 396.28C633.55 390.107 625.45 405.091 602.301 403.909C580.617 402.801 578.125 389.165 551.082 384.749C537.898 382.598 520.579 379.769 510.56 389.081C490.931 407.327 507.868 464.235 513.039 481.608C517.796 497.59 521.38 503.633 517.772 510.664C508.322 529.08 469.873 514.622 454.629 534.988C441.88 552.023 452.343 584.092 459.778 584.859Z" fill="#F4F7FA"/>
<path d="M462.153 26.8943L109.108 14.9242C101.037 14.6502 94.4804 20.9164 94.4804 28.9181V671.433C94.4804 679.437 101.037 685.549 109.108 685.09L462.153 664.977C469.456 664.561 475.363 658.071 475.363 650.48V41.0877C475.363 33.497 469.454 27.1418 462.153 26.8943Z" fill="url(#paint10_linear)"/>
<g opacity="0.3">
<path opacity="0.3" d="M317.298 501.345C311.293 427.878 356.339 397.554 339.161 330.992C317.929 248.716 236.265 245.19 208.454 164.509C197.797 133.596 193.589 86.8625 224.091 18.8229L109.108 14.9242C101.037 14.6502 94.4804 20.9164 94.4804 28.9181V671.433C94.4804 679.437 101.037 685.549 109.108 685.09L423.906 667.157C343.813 605.025 320.988 546.499 317.298 501.345Z" fill="#D8DEE8"/>
</g>
<path d="M462.153 35.0089L109.108 23.4451C105.8 23.3369 103.105 25.916 103.105 29.1945V670.959C103.105 674.238 105.8 676.754 109.108 676.569L462.153 656.864C465.149 656.696 467.587 654.026 467.587 650.908V40.8377C467.584 37.7202 465.149 35.1051 462.153 35.0089Z" fill="url(#paint11_linear)"/>
<path d="M395.476 520.848L181.255 528.58C176.197 528.763 172.092 533.015 172.092 538.077C172.092 543.139 176.197 547.083 181.255 546.889L395.476 538.618C400.233 538.435 404.087 534.313 404.087 529.412C404.087 524.511 400.233 520.677 395.476 520.848Z" fill="#D8DEE8"/>
<path d="M395.476 552.501L181.255 561.19C176.197 561.395 172.092 565.666 172.092 570.728C172.092 575.79 176.197 579.718 181.255 579.499L395.476 570.271C400.233 570.067 404.087 565.928 404.087 561.027C404.087 556.126 400.233 552.309 395.476 552.501Z" fill="#D8DEE8"/>
<path d="M395.476 584.157L181.255 593.803C176.197 594.031 172.092 598.319 172.092 603.381C172.092 608.443 176.197 612.352 181.255 612.111L395.476 601.927C400.233 601.701 404.087 597.545 404.087 592.642C404.087 587.741 400.233 583.943 395.476 584.157Z" fill="#D8DEE8"/>
<path d="M284.389 60.7014L176.632 57.644C174.127 57.5719 172.095 59.5453 172.095 62.0523C172.095 64.5569 174.127 66.6432 176.632 66.7129L284.389 69.6381C286.819 69.703 288.789 67.7585 288.789 65.2924C288.789 62.8238 286.819 60.7711 284.389 60.7014Z" fill="#D8DEE8"/>
<path d="M284.389 76.6135L176.632 73.794C174.127 73.7291 172.095 75.7073 172.095 78.2119C172.095 80.7165 174.127 82.798 176.632 82.8605L284.389 85.5454C286.819 85.6055 288.789 83.6561 288.789 81.19C288.789 78.7287 286.819 76.6784 284.389 76.6135Z" fill="#D8DEE8"/>
<path d="M284.389 92.5279L176.632 89.9464C174.127 89.8863 172.095 91.8693 172.095 94.3739C172.095 96.8785 174.127 98.9576 176.632 99.0129L284.389 101.46C286.819 101.515 288.789 99.5609 288.789 97.0948C288.789 94.6311 286.819 92.5856 284.389 92.5279Z" fill="#D8DEE8"/>
<path d="M242.869 263.448C249.865 250.187 262.96 240.769 278.302 239.012L279.375 173.487C235.646 174.631 197.977 201.645 181.101 240.365L242.869 263.448Z" fill="url(#paint12_linear)"/>
<path d="M328.636 293.245C324.903 315.015 306.25 331.723 283.674 331.934C277 331.997 270.647 330.61 264.903 328.062L230.631 384.504C246.473 392.934 264.553 397.539 283.674 397.188C340.529 396.145 386.58 351.572 391.769 295.637L328.636 293.245Z" fill="url(#paint13_linear)"/>
<path d="M220.046 378.077L254.416 321.587C244.062 313.073 237.44 300.067 237.44 285.455C237.44 281.924 237.829 278.485 238.563 275.177L176.72 252.182C173.462 262.753 171.706 273.992 171.706 285.64C171.709 324.211 190.902 358.05 220.046 378.077Z" fill="url(#paint14_linear)"/>
<path d="M290.547 239.257C311.178 242.478 327.211 259.635 329.126 280.903L433.613 285.039C433.613 284.994 433.613 284.946 433.613 284.9C433.613 203.768 371.782 136.353 292.323 130.366L290.547 239.257Z" fill="url(#paint15_linear)"/>
<path opacity="0.35" d="M318.111 501.318C312.108 427.861 357.143 397.539 339.97 330.985C318.742 248.718 237.097 245.192 209.294 164.521C199.08 134.887 194.788 90.7083 221.344 27.1203L109.967 23.4715C106.658 23.3634 103.967 25.9425 103.967 29.221V670.911C103.967 674.19 106.661 676.707 109.967 676.522L415.132 659.489C342.769 600.177 321.647 544.598 318.111 501.318Z" fill="white"/>
<path d="M200.04 200.869L29.1783 199.165C25.3157 199.127 22.1776 196.043 22.1776 192.279V127.169C22.1776 123.405 25.3133 120.427 29.1783 120.518L177.922 124.068C181.581 124.155 184.544 127.191 184.544 130.849V186.808L200.04 200.869Z" fill="url(#paint16_linear)"/>
<path opacity="0.67" d="M160.545 147.597L47.3926 145.386V137.582L160.545 139.947V147.597Z" fill="white"/>
<path opacity="0.67" d="M160.545 162.894L47.3926 160.998V153.193L160.545 155.246V162.894Z" fill="white"/>
<path opacity="0.67" d="M160.545 178.193L47.3926 176.609V168.802L160.545 170.545V178.193Z" fill="white"/>
<path opacity="0.3" d="M290.26 389.429L495.712 385.004C501.06 384.889 505.39 389.29 505.39 394.83V490.668C505.39 496.21 501.06 500.849 495.712 501.03L279.166 508.342C273.564 508.531 269.018 504.08 269.018 498.398V373.123L290.26 389.429Z" fill="url(#paint17_linear)"/>
<path opacity="0.67" d="M305.588 470.561L470.32 465.627V477.21L305.588 482.346V470.561Z" fill="white"/>
<path opacity="0.67" d="M305.588 446.994L470.32 442.46V454.044L305.588 458.776V446.994Z" fill="white"/>
<path opacity="0.67" d="M305.588 423.426L470.32 419.294V430.877L305.588 435.209V423.426Z" fill="white"/>
<path d="M477.733 666.114C477.733 666.114 455.291 676.397 454.929 678.031C454.567 679.666 469.374 677.449 475.423 677.67C481.471 677.892 486.442 676.089 485.888 673.524C485.333 670.959 483.2 664.51 483.2 664.51L477.733 666.114Z" fill="url(#paint18_linear)"/>
<path d="M476.891 657.814L478.282 667.945C478.282 667.945 481.843 669.205 484.227 667.7L485.221 656.583L476.891 657.814Z" fill="url(#paint19_linear)"/>
<path d="M582.686 657.804L585.308 662.001C586.042 663.174 586.263 664.59 585.915 665.929C585.01 669.426 583.201 676.24 582.41 678.019C581.333 680.442 566.798 681.913 566.798 681.913C566.798 681.913 565.498 680.088 568.511 677.872C571.525 675.658 573.463 675.305 574.521 672.046C575.579 668.786 576.268 659.568 576.268 659.568L582.686 657.804Z" fill="url(#paint20_linear)"/>
<path d="M571.784 647.149C572.741 647.909 577.443 662.097 577.443 662.097C577.443 662.097 578.96 664.03 581.824 661.165C584.689 658.299 583.12 659.879 583.12 659.879L582.549 645.916L571.784 647.149Z" fill="url(#paint21_linear)"/>
<path d="M464.041 454.258C462.928 484.488 462.959 517.329 464.78 552.41C466.829 591.914 470.845 628.418 475.874 661.508C477.714 661.564 479.647 661.568 481.667 661.506C483.033 661.465 484.352 661.395 485.631 661.304C488.183 654.434 491.197 645.402 493.891 634.614C496.722 623.271 498.423 613.099 499.627 603.372C503.871 569.125 498.795 566.149 502.245 540.767C505.301 518.288 509.72 517.399 514.833 485.483C520.382 450.852 516.176 445.669 514.132 443.797C505.436 435.829 485.06 441.314 464.041 454.258Z" fill="url(#paint22_linear)"/>
<path opacity="0.3" d="M514.135 443.794C505.839 436.197 486.917 440.855 466.949 452.529C490.012 477.373 492.56 493.521 489.827 504.008C486.739 515.86 477.272 519.295 477.337 532.248C477.419 548.165 491.768 552.347 491.504 569.192C491.329 580.33 485.029 580.229 483.572 593.99C481.85 610.272 490.096 615.861 487.459 627.91C486.324 633.095 483.066 639.871 473.76 646.868C474.444 651.812 475.144 656.706 475.876 661.506C477.716 661.559 479.65 661.566 481.67 661.503C483.035 661.463 484.357 661.393 485.633 661.301C488.186 654.432 491.202 645.399 493.893 634.612C496.724 623.269 498.425 613.097 499.63 603.369C503.874 569.122 498.797 566.147 502.247 540.764C505.304 518.285 509.723 517.396 514.836 485.481C520.382 450.849 516.179 445.665 514.135 443.794Z" fill="url(#paint23_linear)"/>
<path d="M478.29 453.714C498.166 482.702 519.617 518.788 538.827 561.998C553.344 594.651 563.888 625.317 571.642 652.651C572.684 653.132 575.14 654.088 578.276 653.665C582.551 653.088 585.109 650.346 585.778 649.582C588.861 629.965 588.475 613.361 587.385 601.379C586.687 593.707 585.452 580.931 580.534 565.168C575.023 547.511 571.261 546.526 564.083 527.85C556.631 508.462 558.413 503.616 551.264 479.349C548.328 469.379 543.414 454.546 535.327 436.807C516.313 442.441 497.3 448.078 478.29 453.714Z" fill="url(#paint24_linear)"/>
<path d="M397.547 412.814C397.734 419.869 409.307 426.08 418.623 427.986C440.407 432.44 465.665 416.581 477.654 399.039C480.007 395.595 482.622 391.417 483.253 391.742C484.678 392.472 471.581 414.03 465.903 438.55C462.997 451.094 463.758 456.969 458.326 465.319C457.095 467.211 455.579 469.179 456.112 471.42C457.446 477.025 470.24 478.479 479.115 479.489C488.486 480.553 497.223 480.452 505.86 480.325C519.689 480.123 520.778 479.402 523.933 480.955C533.551 485.683 532.899 497.016 540.137 498.525C546.214 499.794 552.38 492.995 554.335 490.838C564.495 479.63 563.953 466.12 565.755 452.491C569.944 420.806 587.126 386.093 603.935 364.117C609.033 357.451 612.576 353.947 612.799 347.753C613.45 329.569 584.698 309.499 560.76 307.194C554.198 306.562 542.45 306.761 531.435 307.802C527.033 308.218 522.347 308.828 517.309 309.713C505.093 311.854 496.588 313.345 487.92 317.318C452.969 333.338 460.596 369.003 422.769 393.66C409.768 402.135 397.347 405.425 397.547 412.814Z" fill="white"/>
<path d="M540.746 288.333C540.746 288.333 542.248 296.726 545.703 302.699C548.826 308.098 561.736 310.035 564.426 310.975C567.115 311.915 560.366 316.609 553.19 318.308C546.015 320.01 525.025 321.123 520.913 318.859C516.8 316.594 523.583 315.902 528.52 313.301C533.458 310.701 535.111 300.127 533.58 295.632C532.054 291.14 540.746 288.333 540.746 288.333Z" fill="url(#paint25_linear)"/>
<path d="M527.105 285.902C521.896 282.174 520.454 272.091 523.348 269.827C524.175 269.18 524.965 269.476 536.716 274.199C542.553 276.545 545.422 277.792 546.367 280.376C546.945 281.953 546.852 284.083 546.214 285.761C545.885 286.623 545.244 287.698 543.824 289.751C542.562 291.57 542.646 291.51 542.26 292.039C541.329 293.31 539.537 295.45 536.25 297.93C536.068 297.002 535.777 295.851 535.295 294.594C535.108 294.111 534.357 292.222 533.167 290.63C531.118 287.893 528.794 287.114 527.105 285.902Z" fill="url(#paint26_linear)"/>
<path d="M540.449 295.493C540.449 295.493 537.042 300.579 530.73 299.889C525.08 299.271 524.806 286.503 528.542 283.96C529.789 283.112 532.222 282.845 534.165 283.482C535.312 283.859 535.684 284.359 537.572 284.939C539.311 285.472 539.818 285.299 540.329 285.77C540.969 286.359 541.396 287.756 540.122 291.428C541.252 290.378 542.567 290.015 543.469 290.491C543.613 290.568 543.99 290.849 544.191 291.26C544.923 292.748 543.517 294.546 540.449 295.493Z" fill="url(#paint27_linear)"/>
<path opacity="0.3" d="M428.104 411.728C443.9 408.163 450.193 408.278 458.005 401.974C471.011 391.475 472.963 375.498 480.521 375.692C484.093 375.784 486.994 379.44 489.057 383.016C487.154 386.002 485.252 388.987 483.349 391.972C483.342 391.859 483.316 391.77 483.253 391.739C482.622 391.417 480.007 395.592 477.654 399.037C465.665 416.581 440.41 432.437 418.623 427.983C412.376 426.707 405.133 423.489 400.968 419.383C411.721 415.747 420.905 413.353 428.104 411.728Z" fill="url(#paint28_linear)"/>
<path d="M402.378 425.335C402.378 425.335 393.465 424.448 388.154 422.169C382.842 419.893 379.411 423.162 379.901 425.424C380.388 427.685 389.125 430.837 392.616 430.949C396.109 431.065 402.378 425.335 402.378 425.335Z" fill="url(#paint29_linear)"/>
<path d="M594.333 472.568C603.903 473.424 625.443 473.814 640.677 459.692C666.041 436.185 653.458 391.441 644.629 372.198C634.507 350.135 618.397 337.785 608.606 330.278C596.459 320.967 589.046 315.284 580.126 316.556C557.058 319.846 541.082 367.212 553.745 380.774C557.89 385.213 561.995 382.699 573.993 386.528C577.899 387.776 607.061 397.08 612.14 418.597C615.693 433.658 606.646 451.291 590.543 463.137C591.809 466.281 593.071 469.425 594.333 472.568Z" fill="white"/>
<path opacity="0.3" d="M487.075 464.766C497.91 457.906 499.512 450.955 511.642 446.258C527.402 440.155 534.976 447.907 542.788 441.648C552.087 434.199 543.855 421.224 550.813 398.707C551.993 394.885 560.964 365.854 581.548 362.158C591.147 360.432 603.824 364.116 608.709 372.265C612.531 378.642 608.97 383.396 613.618 390.436C618.262 397.472 623.819 395.751 629.74 401.62C639.142 410.939 640.584 430.586 632.096 441.698C628.137 446.881 622.991 448.931 613.31 452.789C607.397 455.144 601.9 456.611 597.167 457.541C609.021 446.143 615.172 431.442 612.142 418.602C608.978 405.19 596.454 396.522 586.524 391.595C576.587 410.331 568.466 432.043 565.76 452.498C563.958 466.127 564.5 479.637 554.34 490.845C552.384 493.001 546.219 499.801 540.142 498.532C532.903 497.02 533.556 485.69 523.938 480.962C520.781 479.409 519.691 480.13 505.865 480.332C497.228 480.459 488.491 480.563 479.119 479.495C471.226 478.597 460.255 477.339 456.98 473.131C471.226 472.734 480.736 468.778 487.075 464.766Z" fill="url(#paint30_linear)"/>
<path d="M588.052 480.101L589.168 476.816C590.946 471.578 588.024 465.99 582.645 464.35L371.77 399.993L365.345 421.813L575.155 486.558C580.502 488.209 586.279 485.325 588.052 480.101Z" fill="url(#paint31_linear)"/>
<path d="M162.22 340.878C178.342 277.062 241.524 238.604 304.007 256.629C367.637 274.983 404.065 344.056 384.733 409.165C365.854 472.746 301.113 507.048 240.701 487.43C181.332 468.153 146.463 403.243 162.22 340.878ZM366.377 403.534C382.355 349.043 351.869 291.33 298.736 275.843C246.403 260.59 193.236 292.606 179.518 346.185C166.061 398.738 195.446 453.517 245.576 469.655C296.447 486.031 350.715 456.95 366.377 403.534Z" fill="url(#paint32_linear)"/>
<path opacity="0.3" d="M371.768 399.993L398.655 408.199C400.5 416.79 404.087 421.712 407.697 424.712C421.279 435.992 439.414 423.691 464.715 436.915C477.411 443.552 474.998 447.775 486.9 452.407C506.573 460.062 515.579 449.457 532.992 456.426C550.604 463.473 552.339 478.707 562.329 478.159C566.602 477.926 572.103 474.811 578.235 463.004L582.645 464.35C588.024 465.992 590.946 471.578 589.168 476.818L588.052 480.104C586.279 485.324 580.505 488.211 575.152 486.56L365.343 421.816L371.768 399.993Z" fill="#D8DEE8"/>
<path opacity="0.56" d="M240.595 478.388C293.215 495.353 349.396 465.31 365.643 410.033C382.226 353.606 350.658 293.825 295.612 277.812C241.428 262.049 186.425 295.233 172.26 350.688C158.379 405.039 188.769 461.678 240.595 478.388Z" fill="white"/>
<path d="M158.134 346.351C174.257 282.535 237.438 244.077 299.921 262.102C363.551 280.456 399.979 349.529 380.647 414.639C361.768 478.22 297.028 512.522 236.615 492.903C177.246 473.626 142.379 408.716 158.134 346.351ZM362.294 409.005C378.272 354.514 347.786 296.801 294.652 281.314C242.32 266.061 189.153 298.077 175.434 351.659C161.978 404.212 191.362 458.99 241.492 475.126C292.361 491.504 346.63 462.423 362.294 409.005Z" fill="url(#paint33_linear)"/>
<path d="M164.243 348.226C179.523 288.03 239.167 251.862 298.052 268.914C357.956 286.258 392.278 351.298 374.143 412.644C356.411 472.631 295.377 505.097 238.333 486.632C182.224 468.466 149.291 407.127 164.243 348.226ZM362.294 409.005C378.272 354.514 347.786 296.801 294.652 281.314C242.32 266.061 189.153 298.077 175.434 351.659C161.978 404.212 191.362 458.99 241.492 475.126C292.361 491.504 346.63 462.423 362.294 409.005Z" fill="url(#paint34_linear)"/>
<path d="M593.522 470.545L591.392 465.238C591.392 465.238 587.913 465.449 585.058 463.399C583.504 462.281 580.742 461.949 579.938 462.171C579.137 462.394 576.107 462.259 579.559 463.911C583.014 465.562 582.985 466.788 581.546 468.144C580.106 469.499 574.629 472.412 572.657 472.554C570.685 472.694 574.25 475.751 576.239 476.14C578.228 476.53 581.488 477.023 585.524 474.643C586.994 473.778 593.522 470.545 593.522 470.545Z" fill="url(#paint35_linear)"/>
<path d="M533.405 320.133C533.232 323.767 534.907 326.99 537.649 328.3C539.398 329.134 541.113 328.968 542.011 328.805C543.671 325.692 545.333 322.582 546.994 319.469C545.211 319.642 543.366 319.787 541.466 319.897C538.666 320.058 535.974 320.13 533.405 320.133Z" fill="url(#paint36_linear)"/>
<path d="M536.456 327.584C536.456 327.584 530.857 390.569 511.23 400.652C511.733 402.669 511.23 419.054 511.23 419.054C511.23 419.054 529.525 413.535 530.569 413.901C531.613 414.266 552.727 379.202 542.013 328.807L536.456 327.584Z" fill="url(#paint37_linear)"/>
<path d="M369.781 80.9207V202.044C369.781 206.066 373.032 209.325 377.034 209.325H608.457C611.94 209.325 614.759 206.292 614.759 202.552V89.8694L369.781 80.9207Z" fill="url(#paint38_linear)"/>
<path d="M608.457 75.3082L377.034 65.8427C373.032 65.6792 369.781 68.8064 369.781 72.8276V85.24L614.759 93.8883V82.3412C614.757 78.5988 611.94 75.45 608.457 75.3082Z" fill="url(#paint39_linear)"/>
<path d="M386.4 75.8898C386.4 77.6685 384.965 79.0578 383.197 78.9929C381.427 78.928 379.987 77.4281 379.987 75.6446C379.987 73.8611 381.424 72.4742 383.197 72.5415C384.965 72.6136 386.4 74.1111 386.4 75.8898Z" fill="white"/>
<path d="M419.551 193.637L401.399 193.552V103.464L419.551 104.015V193.637Z" fill="white"/>
<path d="M419.551 193.637L401.399 193.552V150.78L419.551 151.085V193.637Z" fill="url(#paint40_linear)"/>
<path d="M444.49 193.75L426.603 193.668V104.229L444.49 104.772V193.75Z" fill="white"/>
<path d="M444.49 193.749L426.603 193.668V172.437L444.49 172.626V193.749Z" fill="url(#paint41_linear)"/>
<path d="M469.074 193.86L451.441 193.781V104.983L469.074 105.519V193.86Z" fill="white"/>
<path d="M469.074 193.86L451.441 193.781V182.715L469.074 182.849V193.86Z" fill="url(#paint42_linear)"/>
<path d="M493.31 193.971L475.926 193.891V105.729L493.31 106.257V193.971Z" fill="white"/>
<path d="M493.31 193.971L475.926 193.891V124.825L493.31 125.256V193.971Z" fill="url(#paint43_linear)"/>
<path d="M517.206 194.079L500.066 194V106.462L517.206 106.983V194.079Z" fill="white"/>
<path d="M517.206 194.079L500.066 194V133.217L517.206 133.601V194.079Z" fill="url(#paint44_linear)"/>
<path d="M540.765 194.185L523.863 194.108V107.185L540.765 107.697V194.185Z" fill="white"/>
<path d="M540.765 194.185L523.863 194.108V119.823L540.765 120.273V194.185Z" fill="url(#paint45_linear)"/>
<path d="M563.996 194.29L547.332 194.213V107.897L563.996 108.404V194.29Z" fill="white"/>
<path d="M563.996 194.29L547.332 194.213V141.194L563.996 141.535V194.29Z" fill="url(#paint46_linear)"/>
<path d="M586.908 194.394L570.474 194.319V108.601L586.908 109.101V194.394Z" fill="white"/>
<path d="M586.908 194.394L570.474 194.319V164.56L586.908 164.781V194.394Z" fill="url(#paint47_linear)"/>
</g>
<defs>
<linearGradient id="paint0_linear" x1="158.195" y1="220.18" x2="344.587" y2="568.222" gradientUnits="userSpaceOnUse">
<stop stop-color="#FF9085"/>
<stop offset="1" stop-color="#FB6FBB"/>
</linearGradient>
<linearGradient id="paint1_linear" x1="398.146" y1="66.5295" x2="147.53" y2="475.862" gradientUnits="userSpaceOnUse">
<stop stop-color="white"/>
<stop offset="0.9964" stop-color="#EBEFF2"/>
</linearGradient>
<linearGradient id="paint2_linear" x1="122.417" y1="526.353" x2="344.926" y2="526.353" gradientUnits="userSpaceOnUse">
<stop stop-color="white"/>
<stop offset="0.9964" stop-color="#EBEFF2"/>
</linearGradient>
<linearGradient id="paint3_linear" x1="122.417" y1="557.172" x2="344.926" y2="557.172" gradientUnits="userSpaceOnUse">
<stop stop-color="white"/>
<stop offset="0.9964" stop-color="#EBEFF2"/>
</linearGradient>
<linearGradient id="paint4_linear" x1="122.417" y1="587.991" x2="344.926" y2="587.991" gradientUnits="userSpaceOnUse">
<stop stop-color="white"/>
<stop offset="0.9964" stop-color="#EBEFF2"/>
</linearGradient>
<linearGradient id="paint5_linear" x1="122.417" y1="75.3464" x2="234.341" y2="75.3464" gradientUnits="userSpaceOnUse">
<stop stop-color="white"/>
<stop offset="0.9964" stop-color="#EBEFF2"/>
</linearGradient>
<linearGradient id="paint6_linear" x1="122.417" y1="90.723" x2="234.341" y2="90.723" gradientUnits="userSpaceOnUse">
<stop stop-color="white"/>
<stop offset="0.9964" stop-color="#EBEFF2"/>
</linearGradient>
<linearGradient id="paint7_linear" x1="122.417" y1="106.1" x2="234.341" y2="106.1" gradientUnits="userSpaceOnUse">
<stop stop-color="white"/>
<stop offset="0.9964" stop-color="#EBEFF2"/>
</linearGradient>
<linearGradient id="paint8_linear" x1="273.975" y1="434.019" x2="695.628" y2="398.411" gradientUnits="userSpaceOnUse">
<stop stop-color="#AA80F9"/>
<stop offset="0.9964" stop-color="#6165D7"/>
</linearGradient>
<linearGradient id="paint9_linear" x1="429.329" y1="487.023" x2="697.999" y2="487.023" gradientUnits="userSpaceOnUse">
<stop offset="0.00359712" stop-color="#E38DDD"/>
<stop offset="1" stop-color="#9571F6"/>
</linearGradient>
<linearGradient id="paint10_linear" x1="429.957" y1="59.9052" x2="258.774" y2="388.975" gradientUnits="userSpaceOnUse">
<stop offset="0.00359712" stop-color="#E38DDD"/>
<stop offset="1" stop-color="#9571F6"/>
</linearGradient>
<linearGradient id="paint11_linear" x1="459.575" y1="54.4461" x2="198.276" y2="481.226" gradientUnits="userSpaceOnUse">
<stop stop-color="white"/>
<stop offset="0.9964" stop-color="#EBEFF2"/>
</linearGradient>
<linearGradient id="paint12_linear" x1="225.405" y1="163.178" x2="248.802" y2="374.284" gradientUnits="userSpaceOnUse">
<stop stop-color="#FFC444"/>
<stop offset="0.9964" stop-color="#F36F56"/>
</linearGradient>
<linearGradient id="paint13_linear" x1="306.878" y1="331.319" x2="400.476" y2="520.015" gradientUnits="userSpaceOnUse">
<stop offset="0.00359712" stop-color="#E38DDD"/>
<stop offset="1" stop-color="#9571F6"/>
</linearGradient>
<linearGradient id="paint14_linear" x1="170.702" y1="255.409" x2="295.966" y2="416.161" gradientUnits="userSpaceOnUse">
<stop stop-color="#AA80F9"/>
<stop offset="0.9964" stop-color="#6165D7"/>
</linearGradient>
<linearGradient id="paint15_linear" x1="429.945" y1="114.128" x2="329.837" y2="253.466" gradientUnits="userSpaceOnUse">
<stop stop-color="#FF9085"/>
<stop offset="1" stop-color="#FB6FBB"/>
</linearGradient>
<linearGradient id="paint16_linear" x1="127.713" y1="109.024" x2="31.2975" y2="424.322" gradientUnits="userSpaceOnUse">
<stop stop-color="#FFC444"/>
<stop offset="0.9964" stop-color="#F36F56"/>
</linearGradient>
<linearGradient id="paint17_linear" x1="235.955" y1="644.901" x2="423.783" y2="383.465" gradientUnits="userSpaceOnUse">
<stop stop-color="#FF9085"/>
<stop offset="1" stop-color="#FB6FBB"/>
</linearGradient>
<linearGradient id="paint18_linear" x1="466.763" y1="630.65" x2="472.536" y2="701.797" gradientUnits="userSpaceOnUse">
<stop stop-color="#311944"/>
<stop offset="1" stop-color="#A03976"/>
</linearGradient>
<linearGradient id="paint19_linear" x1="481.265" y1="670.234" x2="480.069" y2="596.536" gradientUnits="userSpaceOnUse">
<stop stop-color="#FFC444"/>
<stop offset="0.9964" stop-color="#F36F56"/>
</linearGradient>
<linearGradient id="paint20_linear" x1="572.206" y1="622.096" x2="577.979" y2="693.24" gradientUnits="userSpaceOnUse">
<stop stop-color="#311944"/>
<stop offset="1" stop-color="#A03976"/>
</linearGradient>
<linearGradient id="paint21_linear" x1="577.914" y1="668.666" x2="576.719" y2="594.965" gradientUnits="userSpaceOnUse">
<stop stop-color="#FFC444"/>
<stop offset="0.9964" stop-color="#F36F56"/>
</linearGradient>
<linearGradient id="paint22_linear" x1="463.422" y1="550.882" x2="517.813" y2="550.751" gradientUnits="userSpaceOnUse">
<stop stop-color="#444B8C"/>
<stop offset="0.9964" stop-color="#3E4177"/>
</linearGradient>
<linearGradient id="paint23_linear" x1="463.422" y1="550.884" x2="517.813" y2="550.754" gradientUnits="userSpaceOnUse">
<stop stop-color="#444B8C"/>
<stop offset="0.9964" stop-color="#3E4177"/>
</linearGradient>
<linearGradient id="paint24_linear" x1="478.51" y1="545.474" x2="588.005" y2="545.212" gradientUnits="userSpaceOnUse">
<stop stop-color="#444B8C"/>
<stop offset="0.9964" stop-color="#3E4177"/>
</linearGradient>
<linearGradient id="paint25_linear" x1="544.58" y1="294.809" x2="532.918" y2="397.498" gradientUnits="userSpaceOnUse">
<stop stop-color="#FFC444"/>
<stop offset="0.9964" stop-color="#F36F56"/>
</linearGradient>
<linearGradient id="paint26_linear" x1="547.735" y1="318.757" x2="531.29" y2="270.452" gradientUnits="userSpaceOnUse">
<stop stop-color="#444B8C"/>
<stop offset="0.9964" stop-color="#3E4177"/>
</linearGradient>
<linearGradient id="paint27_linear" x1="534.122" y1="282.99" x2="543.286" y2="358.654" gradientUnits="userSpaceOnUse">
<stop stop-color="#FFC444"/>
<stop offset="0.9964" stop-color="#F36F56"/>
</linearGradient>
<linearGradient id="paint28_linear" x1="400.969" y1="402.218" x2="489.057" y2="402.218" gradientUnits="userSpaceOnUse">
<stop stop-color="#AA80F9"/>
<stop offset="0.9964" stop-color="#6165D7"/>
</linearGradient>
<linearGradient id="paint29_linear" x1="382.224" y1="420.357" x2="399.186" y2="430.615" gradientUnits="userSpaceOnUse">
<stop stop-color="#FFC444"/>
<stop offset="0.9964" stop-color="#F36F56"/>
</linearGradient>
<linearGradient id="paint30_linear" x1="456.978" y1="430.211" x2="637.703" y2="430.211" gradientUnits="userSpaceOnUse">
<stop stop-color="#AA80F9"/>
<stop offset="0.9964" stop-color="#6165D7"/>
</linearGradient>
<linearGradient id="paint31_linear" x1="365.343" y1="443.508" x2="589.687" y2="443.508" gradientUnits="userSpaceOnUse">
<stop stop-color="#444B8C"/>
<stop offset="0.9964" stop-color="#26264F"/>
</linearGradient>
<linearGradient id="paint32_linear" x1="158.437" y1="372.56" x2="389.918" y2="372.56" gradientUnits="userSpaceOnUse">
<stop stop-color="#444B8C"/>
<stop offset="0.9964" stop-color="#26264F"/>
</linearGradient>
<linearGradient id="paint33_linear" x1="242.931" y1="502.904" x2="280.292" y2="331.643" gradientUnits="userSpaceOnUse">
<stop stop-color="#444B8C"/>
<stop offset="0.9964" stop-color="#26264F"/>
</linearGradient>
<linearGradient id="paint34_linear" x1="298.296" y1="252.239" x2="246.156" y2="481.914" gradientUnits="userSpaceOnUse">
<stop stop-color="#444B8C"/>
<stop offset="0.9964" stop-color="#26264F"/>
</linearGradient>
<linearGradient id="paint35_linear" x1="577.353" y1="485.797" x2="586.495" y2="462.261" gradientUnits="userSpaceOnUse">
<stop stop-color="#FFC444"/>
<stop offset="0.9964" stop-color="#F36F56"/>
</linearGradient>
<linearGradient id="paint36_linear" x1="538.402" y1="293.937" x2="541.436" y2="338.304" gradientUnits="userSpaceOnUse">
<stop stop-color="#444B8C"/>
<stop offset="0.9964" stop-color="#26264F"/>
</linearGradient>
<linearGradient id="paint37_linear" x1="528.133" y1="388.205" x2="528.133" y2="277.595" gradientUnits="userSpaceOnUse">
<stop stop-color="#444B8C"/>
<stop offset="0.9964" stop-color="#26264F"/>
</linearGradient>
<linearGradient id="paint38_linear" x1="510.741" y1="62.1946" x2="461.129" y2="276.153" gradientUnits="userSpaceOnUse">
<stop stop-color="#D8DEE8"/>
<stop offset="1" stop-color="white"/>
</linearGradient>
<linearGradient id="paint39_linear" x1="510.965" y1="51.7289" x2="409.643" y2="217.059" gradientUnits="userSpaceOnUse">
<stop stop-color="#FF9085"/>
<stop offset="1" stop-color="#FB6FBB"/>
</linearGradient>
<linearGradient id="paint40_linear" x1="420.163" y1="141.919" x2="397.057" y2="213.891" gradientUnits="userSpaceOnUse">
<stop stop-color="#FF9085"/>
<stop offset="1" stop-color="#FB6FBB"/>
</linearGradient>
<linearGradient id="paint41_linear" x1="440.921" y1="166.288" x2="428.106" y2="206.203" gradientUnits="userSpaceOnUse">
<stop stop-color="#FF9085"/>
<stop offset="1" stop-color="#FB6FBB"/>
</linearGradient>
<linearGradient id="paint42_linear" x1="463.589" y1="177.872" x2="455.651" y2="202.598" gradientUnits="userSpaceOnUse">
<stop stop-color="#FF9085"/>
<stop offset="1" stop-color="#FB6FBB"/>
</linearGradient>
<linearGradient id="paint43_linear" x1="499.504" y1="112.857" x2="463.997" y2="223.457" gradientUnits="userSpaceOnUse">
<stop stop-color="#FF9085"/>
<stop offset="1" stop-color="#FB6FBB"/>
</linearGradient>
<linearGradient id="paint44_linear" x1="521.854" y1="122.318" x2="490.324" y2="220.528" gradientUnits="userSpaceOnUse">
<stop stop-color="#FF9085"/>
<stop offset="1" stop-color="#FB6FBB"/>
</linearGradient>
<linearGradient id="paint45_linear" x1="548.212" y1="107.298" x2="510.292" y2="225.417" gradientUnits="userSpaceOnUse">
<stop stop-color="#FF9085"/>
<stop offset="1" stop-color="#FB6FBB"/>
</linearGradient>
<linearGradient id="paint46_linear" x1="567.305" y1="131.347" x2="539.542" y2="217.826" gradientUnits="userSpaceOnUse">
<stop stop-color="#FF9085"/>
<stop offset="1" stop-color="#FB6FBB"/>
</linearGradient>
<linearGradient id="paint47_linear" x1="585.676" y1="157.636" x2="569.02" y2="209.519" gradientUnits="userSpaceOnUse">
<stop stop-color="#FF9085"/>
<stop offset="1" stop-color="#FB6FBB"/>
</linearGradient>
<clipPath id="clip0">
<rect width="698" height="700" fill="white"/>
</clipPath>
</defs>
</svg>
