<svg width="16" height="16" viewBox="0 0 16 16" fill="none" xmlns="http://www.w3.org/2000/svg">
<path d="M12.9498 10.0503C12.1874 9.28794 11.2799 8.72353 10.2898 8.38187C11.3502 7.65149 12.0469 6.42914 12.0469 5.04701C12.0469 2.81556 10.2315 1.00012 8.00003 1.00012C5.76858 1.00012 3.95314 2.81556 3.95314 5.04701C3.95314 6.42919 4.64983 7.65154 5.71031 8.38187C4.72019 8.72353 3.8127 9.28794 3.05027 10.0503C1.72814 11.3725 1 13.1303 1 15.0001H2.09375C2.09375 11.7435 4.74329 9.09385 8.00003 9.09385C11.2568 9.09385 13.9063 11.7434 13.9063 15.0001H15.0001C15.0001 13.1303 14.2719 11.3724 12.9498 10.0503ZM8.00003 8.00009C6.37167 8.00009 5.04689 6.67534 5.04689 5.04696C5.04689 3.41858 6.37167 2.09382 8.00003 2.09382C9.62838 2.09382 10.9532 3.41858 10.9532 5.04696C10.9532 6.67534 9.62838 8.00009 8.00003 8.00009Z" fill="#5068A5"/>
</svg>
