<svg width="16" height="16" viewBox="0 0 16 16" fill="none" xmlns="http://www.w3.org/2000/svg">
<path d="M7.83333 1.38667V1.81977L8.26201 1.88155C10.2782 2.17213 11.8333 3.9075 11.8333 6V7.85867C11.8333 9.32464 12.4757 10.7092 13.5953 11.6561C13.7505 11.7897 13.8333 11.9739 13.8333 12.1667C13.8333 12.5339 13.5339 12.8333 13.1667 12.8333H2.16667C1.79948 12.8333 1.5 12.5339 1.5 12.1667C1.5 11.972 1.58432 11.7884 1.7322 11.6613C2.8573 10.7094 3.5 9.32509 3.5 7.85867V6C3.5 3.90744 5.05454 2.17213 7.0713 1.88156L7.5 1.81979V1.38667V0.666667C7.5 0.574468 7.57448 0.5 7.66667 0.5C7.75885 0.5 7.83333 0.574468 7.83333 0.666667V1.38667Z" stroke="#5068A5"/>
<mask id="path-2-inside-1" fill="white">
<path d="M7.66808 16C8.87542 16 9.88542 15.1393 10.1174 14H5.21875C5.45075 15.1393 6.46075 16 7.66808 16Z"/>
</mask>
<path d="M7.66808 16C8.87542 16 9.88542 15.1393 10.1174 14H5.21875C5.45075 15.1393 6.46075 16 7.66808 16Z" fill="#5068A5"/>
<path d="M10.1174 14L31.0218 18.2567L36.2326 -7.33333H10.1174V14ZM5.21875 14V-7.33333H-20.8964L-15.6856 18.2567L5.21875 14ZM7.66808 37.3333C19.2361 37.3333 28.8104 29.1167 31.0218 18.2567L-10.7869 9.74329C-9.03952 1.16192 -1.48527 -5.33333 7.66808 -5.33333V37.3333ZM10.1174 -7.33333H5.21875V35.3333H10.1174V-7.33333ZM-15.6856 18.2567C-13.4742 29.1167 -3.89994 37.3333 7.66808 37.3333V-5.33333C16.8214 -5.33333 24.3757 1.16192 26.1231 9.74329L-15.6856 18.2567Z" fill="#5068A5" mask="url(#path-2-inside-1)"/>
</svg>
