<svg width="282" height="280" viewBox="0 0 282 280" fill="none" xmlns="http://www.w3.org/2000/svg">
<path d="M213.236 16.272C222.864 29.692 211.974 51.726 226.155 61.746C239.96 71.5 256.619 55.101 269.621 63.485C288.908 75.923 286.022 133.789 258.398 170.013C250.09 180.907 243.098 185.185 240.11 197.438C233.695 223.749 257.38 239.112 253.041 252.137C243.272 281.465 88.5411 307.609 25.4244 220.438C-4.05377 179.725 -9.02556 120.542 16.4501 75.286C62.4839 -6.49196 191.632 -13.84 213.236 16.272Z" fill="#F4F7FA"/>
<path d="M35.2174 131.317H21.214C17.8914 131.317 15.1976 128.635 15.1976 125.327V78.772H35.2174V131.317Z" fill="url(#paint0_linear)"/>
<path d="M207.374 33.83L29.3126 23.575C25.2116 23.376 21.5194 27.831 21.5194 31.573V259.856C21.5194 265.045 26.8427 266.089 30.9437 265.672L207.374 247.733C210.597 247.405 213.199 244.469 213.199 241.173V40.081C213.199 36.785 210.597 33.987 207.374 33.83Z" fill="url(#paint1_linear)"/>
<path d="M210.303 32.0172L31.889 23.2792C27.788 23.0782 24.4484 25.9712 24.4484 29.7422V259.808C24.4484 263.578 27.788 266.293 31.889 265.873L210.303 247.59C213.526 247.26 216.128 244.301 216.128 240.979V38.3162C216.128 34.9952 213.526 32.1752 210.303 32.0172Z" fill="url(#paint2_linear)"/>
<path opacity="0.3" d="M31.8888 262.752C29.6771 262.974 27.8722 261.503 27.8722 259.471V29.8949C27.8722 27.8629 29.6761 26.2949 31.8888 26.3989L210.303 34.7899C212.044 34.8719 213.46 36.3999 213.46 38.1969V241.241C213.46 243.038 212.045 244.642 210.303 244.817L31.8888 262.752Z" fill="url(#paint3_linear)"/>
<path d="M198.803 239.372L46.2056 254.01V42.2061L198.803 47.9281V239.372Z" fill="white"/>
<path opacity="0.3" d="M137.769 48.965L76.7827 49.725L78.1507 36.032C78.2542 34.253 79.5458 32.792 81.2473 32.532L91.5755 30.952C92.7919 30.766 93.8384 29.966 94.3698 28.817L95.4897 26.395L122.505 28.056L137.769 48.965Z" fill="#97A6B7"/>
<path d="M170.337 40.0811C170.047 38.5321 168.801 37.4441 167.23 37.3741L157.485 36.9391C153.062 36.7421 149.82 33.1641 149.982 28.6331L150.358 18.1321C150.427 16.1901 149.034 14.6341 147.12 14.5201L143.918 14.3301C141.476 14.1851 139.851 12.0421 140.194 9.56407C140.792 5.23407 137.812 1.49707 133.493 1.20407C129.14 0.909068 125.078 4.22007 124.43 8.60507C124.334 9.25707 124.113 9.90107 123.754 10.4751C122.748 12.0811 120.985 12.9661 119.26 12.8631L115.957 12.6671C113.957 12.5481 112.054 13.9461 111.548 15.9141L108.802 26.5731C107.615 31.1831 103.134 34.5141 98.3773 34.3021L87.6875 33.8251C85.9368 33.7471 84.2183 34.7631 83.4127 36.3561L76.9715 49.0821C76.4442 50.1241 77.094 51.2501 78.2431 51.2881L170.946 54.3541C171.961 54.3881 172.822 53.3801 172.635 52.3791L170.337 40.0811ZM132.178 10.2921C130.902 10.2131 130.015 9.10807 130.201 7.82407C130.387 6.54007 131.573 5.56607 132.849 5.64807C134.124 5.73107 135.005 6.83607 134.82 8.11607C134.635 9.39707 133.454 10.3711 132.178 10.2921Z" fill="url(#paint4_linear)"/>
<path d="M170.886 40.366C170.597 38.817 169.35 37.729 167.779 37.659L158.035 37.224C153.611 37.027 150.369 33.449 150.532 28.918L150.907 18.417C150.977 16.475 149.584 14.919 147.669 14.805L144.467 14.615C142.026 14.47 140.4 12.327 140.743 9.84898C141.342 5.51899 138.361 1.78199 134.043 1.48899C129.689 1.19399 125.628 4.50399 124.98 8.88999C124.883 9.54199 124.662 10.186 124.303 10.76C123.297 12.366 121.535 13.251 119.809 13.148L116.507 12.952C114.506 12.833 112.604 14.231 112.097 16.199L109.351 26.858C108.164 31.468 103.684 34.799 98.9267 34.587L88.2368 34.11C86.4861 34.032 84.7676 35.048 83.9621 36.641L77.5208 49.367C76.9935 50.409 77.6434 51.535 78.7924 51.573L171.496 54.639C172.51 54.673 173.371 53.665 173.184 52.664L170.886 40.366ZM132.728 10.577C131.451 10.498 130.564 9.39298 130.75 8.10898C130.936 6.82499 132.122 5.85099 133.399 5.93298C134.673 6.01599 135.554 7.11999 135.369 8.40099C135.185 9.68099 134.002 10.656 132.728 10.577Z" fill="#97A6B7"/>
<path opacity="0.5" d="M155.021 46.214C146.751 41.132 140.407 44.735 135.253 39.003C129.736 32.866 133.457 24.788 127.748 20.976C124.093 18.535 120.834 20.688 116.583 20.027C115.027 19.785 113.366 19.169 111.639 17.969L109.349 26.859C108.162 31.469 103.682 34.8 98.9247 34.588L88.2349 34.111C86.4842 34.033 84.7657 35.049 83.9591 36.642L77.5179 49.368C76.9906 50.41 77.6404 51.536 78.7895 51.574L163.038 54.36C160.915 51.003 158.28 48.217 155.021 46.214Z" fill="white"/>
<path d="M183.922 75.2809L127.543 74.5639V67.5769L183.922 68.5499V75.2809Z" fill="#D8DEE8"/>
<path d="M183.922 87.0637L127.543 86.7957V79.8098L183.922 80.3338V87.0637Z" fill="#D8DEE8"/>
<path d="M183.922 98.847L127.543 99.029V92.042L183.922 92.117V98.847Z" fill="#D8DEE8"/>
<path d="M183.922 110.63L127.543 111.261V104.274L183.922 103.9V110.63Z" fill="#D8DEE8"/>
<path d="M163.938 130.038L63.9706 132.435V125.159L163.938 123.217V130.038Z" fill="#D8DEE8"/>
<path d="M163.938 141.98L63.9706 145.174V137.898L163.938 135.159V141.98Z" fill="#D8DEE8"/>
<path d="M163.938 153.923L63.9706 157.913V150.636L163.938 147.102V153.923Z" fill="#D8DEE8"/>
<path d="M163.938 165.865L63.9706 170.651V163.375L163.938 159.044V165.865Z" fill="#D8DEE8"/>
<path d="M183.922 129.559L170.772 129.874V123.084L183.922 122.828V129.559Z" fill="#D8DEE8"/>
<path d="M183.922 141.342L170.772 141.762V134.972L183.922 134.612V141.342Z" fill="#D8DEE8"/>
<path d="M183.922 153.125L170.772 153.65V146.86L183.922 146.395V153.125Z" fill="#D8DEE8"/>
<path d="M183.922 164.908L170.772 165.538V158.748L183.922 158.178V164.908Z" fill="#D8DEE8"/>
<path d="M163.938 185.245L63.9706 191.323V184.047L163.938 178.424V185.245Z" fill="#D8DEE8"/>
<path d="M163.938 197.188L63.9706 204.062V196.786L163.938 190.365V197.188Z" fill="#D8DEE8"/>
<path d="M163.938 209.13L63.9706 216.801V209.525L163.938 202.309V209.13Z" fill="#D8DEE8"/>
<path d="M163.938 221.073L63.9706 229.539V222.263L163.938 214.251V221.073Z" fill="#D8DEE8"/>
<path d="M183.922 184.03L170.772 184.83V178.04L183.922 177.3V184.03Z" fill="#D8DEE8"/>
<path d="M183.922 195.813L170.772 196.718V189.928L183.922 189.083V195.813Z" fill="#D8DEE8"/>
<path d="M183.922 207.597L170.772 208.606V201.816L183.922 200.866V207.597Z" fill="#D8DEE8"/>
<path d="M183.922 219.38L170.772 220.494V213.704L183.922 212.65V219.38Z" fill="#D8DEE8"/>
<path d="M105.1 63.8219L23.2288 62.0629C18.8225 61.9679 15.1986 65.4989 15.1986 69.8879V126.383C15.1986 122.123 18.6317 118.651 22.9094 118.584L105.101 117.294L122.451 90.6029L105.1 63.8219Z" fill="url(#paint5_linear)"/>
<path d="M76.1074 104.491C76.0482 103.854 75.9688 103.242 75.7218 102.692C77.7707 102.212 79.2934 100.42 79.2934 98.2898C79.2934 97.4188 79.0383 96.6068 78.5984 95.9178C80.1984 95.2078 81.3092 93.6408 81.3092 91.8208C81.3092 91.2348 81.1927 90.6748 80.9838 90.1608L81.0451 90.0148L94.7954 89.2468C97.3104 89.1058 99.1866 86.7798 98.9134 84.1498C98.6703 81.8068 96.7911 80.5998 94.5473 80.5778L70.5511 80.3478L69.9685 79.3198C67.9416 75.7448 63.5152 73.8608 60.0018 75.8458L49.1854 81.9558V106.66L64.9475 110.049C67.113 110.515 76.6709 110.579 76.1074 104.491Z" fill="white"/>
<path d="M48.0635 105.729V82.8209C48.0635 81.9679 47.3836 81.2699 46.5439 81.2619L35.4824 81.1649C34.6287 81.1569 33.9366 81.8499 33.9366 82.7109V105.839C33.9366 106.701 34.6287 107.393 35.4824 107.385L46.5439 107.287C47.3836 107.28 48.0635 106.583 48.0635 105.729Z" fill="white"/>
<path d="M133.389 260.356L133.109 264.806C133.109 264.806 133.744 265.475 134.966 265.009L136.299 260.639L133.389 260.356Z" fill="url(#paint6_linear)"/>
<path d="M133.949 263.628C133.949 263.628 131.76 264.517 132.185 265.481C132.413 265.999 133.203 267.168 133.886 268.139C134.518 269.038 135.658 269.436 136.714 269.122C137.069 269.016 137.431 268.913 137.752 268.831C138.416 268.661 138.454 267.737 137.808 267.51C137.495 267.4 137.184 267.311 136.914 267.269C136.113 267.146 135.01 265.261 134.881 264.506C134.75 263.751 133.949 263.628 133.949 263.628Z" fill="url(#paint7_linear)"/>
<path d="M128.687 217.644C131.911 218.752 143.836 223.239 146.491 233.532C146.633 234.081 146.996 235.609 147.013 238.105C147.082 248.494 141.014 257.286 136.601 262.401C135.21 262.378 133.819 262.355 132.427 262.332C131.732 259.68 131.094 255.715 132.093 251.252C133.62 244.432 137.579 242.663 136.815 239.315C135.429 233.236 121.251 234.156 119.915 228.712C119.432 226.747 120.492 223.41 128.687 217.644Z" fill="url(#paint8_linear)"/>
<path d="M88.8053 279.841L94.8598 279.7C95.2324 279.691 95.3931 279.228 95.1069 278.989C94.8256 278.753 94.4359 278.561 93.9388 278.612C92.7877 278.731 90.2044 277.128 89.0323 277.472C88.6496 277.584 88.3382 278.481 88.1785 278.729C87.8661 279.217 88.2247 279.855 88.8053 279.841Z" fill="url(#paint9_linear)"/>
<path d="M91.5261 275.21L89.0332 277.473C89.0332 277.473 89.904 278.12 91.1736 277.843L93.7217 276.097L91.5261 275.21Z" fill="url(#paint10_linear)"/>
<g opacity="0.3">
<path opacity="0.3" d="M139.383 244.448C141.055 239.953 143.06 234.411 140.77 231.264C138.452 228.079 133.375 230.767 128.28 228.201C126.391 227.249 124.449 225.546 122.833 222.463C119.974 225.402 119.585 227.375 119.914 228.713C121.249 234.156 135.428 233.237 136.814 239.316C137.577 242.664 133.618 244.433 132.092 251.253C131.233 255.089 131.586 258.556 132.142 261.139C132.638 258.741 133.41 256.222 134.588 253.679C136.416 249.737 137.621 249.184 139.383 244.448Z" fill="url(#paint11_linear)"/>
</g>
<path d="M130.534 216.346C128.572 225.317 124.389 239.015 114.808 253.313C107.715 263.898 99.9231 271.44 93.8113 276.479C93.3764 276.608 92.6351 276.767 91.7271 276.656C91.0522 276.573 90.5168 276.37 90.1562 276.199C90.5771 273.67 91.465 269.934 93.5712 265.899C97.4241 258.515 100.855 258.752 104.725 252.236C107.559 247.464 108.481 242.395 110.323 232.257C111.746 224.429 111.747 222.558 113.695 220.313C117.635 215.774 125.032 215.722 130.534 216.346Z" fill="url(#paint12_linear)"/>
<g opacity="0.3">
<path opacity="0.3" d="M95.0477 267.568C96.4227 265.407 98.8624 263.157 103.676 258.718C108.649 254.131 108.458 254.96 109.437 253.604C113.82 247.535 111.447 241.05 112.53 233.223C113.135 228.856 115.071 223.151 120.709 216.759C118.067 217.244 115.536 218.287 113.695 220.311C111.434 222.795 111.6 225.228 110.323 232.255C108.48 242.393 107.559 247.462 104.725 252.234C100.855 258.751 97.4241 258.514 93.5712 265.897C91.466 269.932 90.5781 273.668 90.1562 276.197C90.5158 276.368 91.0522 276.571 91.7271 276.654C92.2625 276.719 92.7376 276.69 93.1283 276.629C92.8109 271.5 94.3506 268.664 95.0477 267.568Z" fill="url(#paint13_linear)"/>
</g>
<path d="M135.833 158.051C135.833 158.051 137.445 170.003 124.797 178.43L138.257 181.627C138.257 181.627 142.565 173.607 139.446 160.323L135.833 158.051Z" fill="url(#paint14_linear)"/>
<path d="M138.202 160.322C138.202 160.322 138.927 158.539 138.811 157.737C138.694 156.934 136.775 155.863 135.467 154.757C134.159 153.651 135.516 155.869 135.82 156.374C136.125 156.879 137.191 157.636 137.038 159.352L138.202 160.322Z" fill="url(#paint15_linear)"/>
<path d="M123.141 169.421C123.802 168.125 124.075 168.132 124.237 167.448C124.606 165.889 123.651 163.909 122.842 163.881C122.319 163.863 122.276 164.672 121.171 165.931C119.817 167.474 118.995 167.272 118.198 168.611C118.011 168.924 117.173 170.335 117.689 171.387C118.348 172.73 120.943 172.943 122.029 171.907C122.543 171.417 122.326 171.018 123.141 169.421Z" fill="url(#paint16_linear)"/>
<path d="M121.195 170.82C121.195 170.82 121.659 173.284 121.329 175.287C121.031 177.097 117.662 178.978 117.017 179.517C116.371 180.056 118.729 180.641 120.892 180.36C123.054 180.078 128.977 178.192 129.877 177.14C130.777 176.088 128.83 176.607 127.192 176.408C125.553 176.209 123.99 173.476 123.942 172.08C123.893 170.683 121.195 170.82 121.195 170.82Z" fill="url(#paint17_linear)"/>
<path d="M121.9 172.658C121.9 172.658 123.556 173.382 125.023 172.214C126.336 171.168 124.383 167.957 123.047 167.916C122.601 167.902 121.951 168.22 121.567 168.685C121.34 168.96 121.327 169.143 120.947 169.584C120.597 169.991 120.444 170.028 120.391 170.226C120.324 170.473 120.438 170.887 121.338 171.598C120.89 171.516 120.503 171.633 120.353 171.893C120.329 171.934 120.28 172.064 120.295 172.198C120.348 172.683 120.984 172.908 121.9 172.658Z" fill="url(#paint18_linear)"/>
<path d="M158.29 164.09C158.29 164.09 159.292 163.951 158.98 162.044C158.735 160.549 158.921 160.047 159.275 160.312C159.63 160.577 159.68 161.441 159.68 161.441C159.68 161.441 160.973 160.343 161.505 158.905C162.037 157.467 162.38 158.678 162.493 159.397C162.608 160.116 161.733 162.349 161.239 162.766C160.745 163.182 160.022 165.017 160.022 165.017L158.29 164.09Z" fill="url(#paint19_linear)"/>
<path d="M160.962 164.6C159.821 163.805 158.681 163.009 157.54 162.214C156.152 170.709 152.997 174.043 150.317 175.501C143.853 179.019 138.082 172.75 125.709 175.308C122.299 176.013 116.356 177.326 113.06 182.163C112.193 183.434 111.886 184.397 110.446 193.516C108.607 205.173 108.542 207.208 108.801 209.718C109.275 214.312 109.563 217.095 111.691 219.559C117.339 226.102 129.346 222.728 130.852 222.284C133.633 221.464 137.955 220.189 139.671 216.531C140.479 214.81 140.394 213.236 139.152 206.941C136.692 194.471 136.378 193.664 137.065 192.298C139.382 187.69 146.724 190.327 152.927 186.041C156.552 183.536 160.64 178.076 160.962 164.6Z" fill="url(#paint20_linear)"/>
<path opacity="0.3" d="M125.225 220.62C126.435 218.148 124.808 215.87 126.594 212.898C128.869 209.111 132.962 210.397 134.501 207.599C137.135 202.814 126.769 196.14 128.875 188.522C129.88 184.885 133.393 182.252 136.326 181.255C142.84 179.041 147.1 184.685 153.206 182.92C154.654 182.502 156.315 181.635 157.994 179.836C156.51 182.955 154.665 184.84 152.926 186.042C146.724 190.327 139.382 187.691 137.065 192.299C136.378 193.665 136.692 194.472 139.152 206.942C140.393 213.237 140.48 214.811 139.671 216.532C137.954 220.191 133.632 221.465 130.851 222.285C130.028 222.528 126.056 223.646 121.704 223.537C123.646 222.752 124.69 221.71 125.225 220.62Z" fill="url(#paint21_linear)"/>
<path d="M178.507 141.939C181.336 143.369 184.889 142.056 186.444 139.007C187.999 135.958 186.966 132.327 184.138 130.897C183.991 130.823 183.842 130.761 183.692 130.701C184.217 129.014 184.614 127.313 184.879 125.612C185.041 125.612 185.204 125.609 185.369 125.594C188.597 125.308 191.158 122.355 191.09 119C191.022 115.644 188.352 113.156 185.124 113.443C184.956 113.458 184.79 113.485 184.625 113.514C184.288 111.851 183.827 110.227 183.244 108.655C183.393 108.569 183.54 108.479 183.685 108.379C186.446 106.453 187.329 102.652 185.657 99.89C183.984 97.127 180.391 96.449 177.631 98.374C177.489 98.473 177.356 98.579 177.225 98.687C176.134 97.487 174.939 96.375 173.644 95.359C173.735 95.21 173.824 95.06 173.904 94.902C175.459 91.853 177.491 88.522 174.64 87.137C168.047 83.932 165.216 86.676 163.661 89.725C163.581 89.883 163.512 90.043 163.444 90.204C161.857 89.763 160.25 89.458 158.633 89.29C158.643 89.12 158.651 88.951 158.647 88.779C158.58 85.424 159.579 83.608 156.34 83.545C149.276 83.408 146.894 86.461 146.961 89.816C146.965 89.991 146.979 90.163 146.996 90.333C145.377 90.792 143.788 91.38 142.24 92.09C142.167 91.94 142.091 91.792 142.003 91.647C140.331 88.884 136.738 88.206 133.977 90.132C131.216 92.058 130.333 95.859 132.006 98.621C132.091 98.763 132.185 98.895 132.281 99.025C131.058 100.242 129.913 101.564 128.855 102.982C128.718 102.897 128.58 102.813 128.433 102.739C125.605 101.309 122.051 102.622 120.496 105.671C118.941 108.72 119.974 112.351 122.802 113.781C122.949 113.855 123.099 113.917 123.248 113.977C122.723 115.664 122.326 117.365 122.061 119.066C121.899 119.066 121.737 119.069 121.571 119.084C118.344 119.37 115.783 122.323 115.85 125.678C115.917 129.034 118.588 131.522 121.815 131.235C121.984 131.22 122.149 131.194 122.314 131.164C122.652 132.827 123.113 134.451 123.696 136.024C123.548 136.11 123.4 136.2 123.256 136.3C120.495 138.226 119.613 142.027 121.285 144.789C122.957 147.552 128.492 148.835 131.253 146.91C131.395 146.811 129.586 146.1 129.718 145.992C130.808 147.192 132.004 148.304 133.298 149.32C133.208 149.468 133.118 149.619 133.038 149.777C131.483 152.826 132.516 156.457 135.344 157.887C138.173 159.317 141.726 158.004 143.281 154.955C143.361 154.797 143.431 154.637 143.498 154.476C145.085 154.917 146.692 155.222 148.309 155.39C148.299 155.56 148.291 155.729 148.295 155.901C148.362 159.256 151.033 161.745 154.26 161.458C157.487 161.172 160.048 158.219 159.98 154.864C159.976 154.689 159.962 154.517 159.944 154.347C161.563 153.888 163.152 153.3 164.7 152.59C164.773 152.74 164.85 152.888 164.937 153.033C166.609 155.796 170.202 156.474 172.963 154.549C175.724 152.623 176.607 148.822 174.935 146.059C174.849 145.918 174.755 145.785 174.66 145.655C175.882 144.438 177.027 143.116 178.086 141.698C178.222 141.782 178.362 141.865 178.507 141.939ZM143.249 142.385C132.98 137.194 129.231 124.011 134.877 112.94C140.523 101.869 153.424 97.103 163.693 102.294C173.962 107.485 177.711 120.668 172.065 131.739C166.419 142.809 153.518 147.576 143.249 142.385Z" fill="url(#paint22_linear)"/>
<path d="M185.371 125.595C188.598 125.308 191.159 122.356 191.091 119.001C191.023 115.645 188.353 113.157 185.125 113.444C184.957 113.459 184.791 113.486 184.626 113.515C184.29 111.852 183.828 110.228 183.245 108.656C183.394 108.57 183.542 108.48 183.686 108.379C186.447 106.453 189.862 101.8 187.915 99.2229C184.217 94.3309 180.392 96.4489 177.632 98.3739C177.49 98.4729 177.357 98.5789 177.226 98.6869C176.135 97.4869 174.94 96.3749 173.645 95.3599C173.737 95.2119 173.825 95.0609 173.905 94.9029C174.752 93.2439 174.826 91.4139 174.267 89.8579C171.6 94.5309 168.97 99.2229 166.386 103.941C174.579 109.918 177.187 121.697 172.066 131.739C167.727 140.249 159.1 145.027 150.677 144.428C150.302 145.398 149.933 146.374 149.53 147.334C148.439 149.941 147.198 152.495 145.957 155.045C146.738 155.192 147.523 155.307 148.309 155.389C148.299 155.559 148.291 155.729 148.295 155.9C148.362 159.256 150.409 162.107 156.257 161.798C159.492 161.627 160.049 158.219 159.98 154.863C159.976 154.688 159.962 154.516 159.944 154.346C161.563 153.887 163.152 153.299 164.7 152.589C164.773 152.739 164.85 152.887 164.937 153.032C166.609 155.795 172.41 156.969 175.17 155.043C177.931 153.117 176.606 148.821 174.935 146.058C174.849 145.916 174.755 145.784 174.66 145.654C175.882 144.437 177.027 143.115 178.086 141.697C178.222 141.783 178.361 141.866 178.507 141.94C181.336 143.37 184.889 142.057 186.444 139.008C187.999 135.959 186.967 132.328 184.138 130.898C183.991 130.824 183.842 130.762 183.692 130.702C184.217 129.015 184.614 127.314 184.879 125.613C185.042 125.612 185.205 125.609 185.371 125.595Z" fill="url(#paint23_linear)"/>
<path d="M181.55 142.284C184.378 143.714 187.932 142.401 189.487 139.352C191.041 136.303 190.009 132.672 187.18 131.242C187.034 131.168 186.884 131.106 186.734 131.046C187.26 129.359 187.656 127.658 187.922 125.957C188.083 125.957 188.246 125.954 188.412 125.939C191.639 125.653 194.2 122.7 194.132 119.345C194.065 115.989 191.394 113.501 188.167 113.788C187.998 113.803 187.832 113.83 187.668 113.859C187.33 112.196 186.869 110.572 186.285 109C186.434 108.914 186.582 108.824 186.726 108.724C189.488 106.798 190.37 102.997 188.698 100.235C187.026 97.472 183.433 96.794 180.672 98.719C180.53 98.818 180.398 98.924 180.266 99.032C179.175 97.832 177.98 96.72 176.685 95.705C176.777 95.557 176.865 95.406 176.946 95.248C178.5 92.199 177.468 88.568 174.639 87.138C171.811 85.708 168.257 87.021 166.703 90.07C166.622 90.228 166.553 90.388 166.486 90.549C164.899 90.108 163.292 89.803 161.675 89.635C161.685 89.465 161.693 89.296 161.689 89.124C161.621 85.769 158.951 83.28 155.724 83.567C152.496 83.853 149.935 86.806 150.003 90.161C150.007 90.336 150.022 90.508 150.04 90.678C148.421 91.137 146.832 91.725 145.284 92.435C145.21 92.285 145.134 92.137 145.047 91.992C143.374 89.229 139.781 88.551 137.021 90.477C134.259 92.403 133.378 96.204 135.049 98.966C135.134 99.107 135.229 99.24 135.324 99.37C134.102 100.587 132.957 101.909 131.898 103.327C131.762 103.242 131.623 103.158 131.476 103.084C128.648 101.654 125.094 102.967 123.54 106.016C121.985 109.065 123.017 112.696 125.846 114.126C125.992 114.2 126.142 114.262 126.292 114.322C125.766 116.009 125.37 117.71 125.104 119.411C124.943 119.411 124.78 119.414 124.614 119.429C121.387 119.716 118.826 122.668 118.894 126.023C118.961 129.379 121.632 131.866 124.859 131.58C125.028 131.565 125.194 131.539 125.358 131.509C125.696 133.172 126.157 134.796 126.741 136.369C126.592 136.455 126.444 136.545 126.301 136.645C123.54 138.571 122.658 142.372 124.329 145.134C126.001 147.897 129.595 148.575 132.355 146.65C132.497 146.551 132.629 146.445 132.761 146.337C133.852 147.537 135.047 148.649 136.342 149.665C136.251 149.813 136.162 149.964 136.081 150.122C134.527 153.171 135.559 156.802 138.388 158.232C141.216 159.662 144.77 158.349 146.324 155.3C146.405 155.142 146.474 154.982 146.541 154.821C148.128 155.262 149.735 155.567 151.352 155.735C151.342 155.904 151.334 156.074 151.337 156.246C151.405 159.601 154.075 162.09 157.302 161.803C160.53 161.517 163.091 158.564 163.023 155.209C163.02 155.034 163.004 154.862 162.986 154.692C164.605 154.233 166.194 153.645 167.742 152.935C167.816 153.085 167.892 153.233 167.979 153.378C169.652 156.141 173.244 156.82 176.005 154.894C178.767 152.968 179.649 149.167 177.977 146.404C177.892 146.263 177.797 146.13 177.702 146C178.924 144.783 180.069 143.461 181.128 142.043C181.264 142.126 181.403 142.21 181.55 142.284ZM146.291 142.729C136.022 137.538 132.274 124.355 137.92 113.284C143.565 102.213 156.467 97.447 166.736 102.638C177.005 107.829 180.753 121.012 175.107 132.083C169.462 143.154 156.56 147.92 146.291 142.729Z" fill="url(#paint24_linear)"/>
<path d="M254.398 232.327C258.59 234.002 263.465 231.696 265.286 227.177C267.108 222.658 265.185 217.637 260.994 215.962C260.777 215.875 260.557 215.806 260.337 215.74C260.87 213.281 261.218 210.82 261.381 208.374C261.611 208.353 261.841 208.329 262.074 208.287C266.615 207.478 269.875 202.971 269.357 198.22C268.838 193.469 264.737 190.273 260.196 191.082C259.959 191.124 259.727 191.183 259.497 191.245C258.81 188.928 257.95 186.682 256.925 184.525C257.125 184.384 257.323 184.239 257.515 184.078C261.188 181.002 261.961 175.501 259.242 171.791C256.524 168.081 251.341 167.567 247.668 170.643C247.48 170.801 247.304 170.968 247.131 171.138C245.434 169.572 243.597 168.144 241.634 166.865C241.745 166.643 241.852 166.419 241.947 166.184C243.769 161.665 246.23 156.687 242.013 155.078C232.256 151.355 228.588 155.6 226.767 160.119C226.673 160.353 226.594 160.589 226.52 160.826C224.214 160.398 221.896 160.167 219.582 160.13C219.575 159.888 219.565 159.646 219.538 159.403C219.019 154.652 220.208 151.952 215.606 152.267C205.57 152.955 202.575 157.582 203.093 162.332C203.121 162.58 203.163 162.822 203.209 163.061C200.971 163.915 198.791 164.946 196.685 166.147C196.562 165.944 196.435 165.742 196.294 165.548C193.574 161.838 188.392 161.324 184.719 164.401C181.046 167.477 180.272 172.978 182.991 176.688C183.131 176.878 183.281 177.054 183.432 177.227C181.851 179.106 180.394 181.124 179.072 183.268C178.867 183.164 178.66 183.063 178.442 182.976C174.251 181.301 169.376 183.607 167.555 188.126C165.733 192.645 167.655 197.666 171.847 199.341C172.064 199.428 172.283 199.497 172.504 199.563C171.972 202.022 171.624 204.483 171.461 206.929C171.231 206.95 171.001 206.974 170.768 207.015C166.227 207.824 162.966 212.331 163.484 217.082C164.002 221.833 168.104 225.028 172.645 224.219C172.882 224.177 173.114 224.119 173.344 224.057C174.031 226.374 174.891 228.62 175.915 230.777C175.716 230.918 175.518 231.063 175.326 231.224C171.653 234.3 170.879 239.801 173.598 243.511C176.318 247.221 184.33 248.351 188.003 245.275C188.191 245.117 185.537 244.334 185.709 244.164C187.407 245.73 189.244 247.158 191.206 248.437C191.096 248.659 190.988 248.883 190.894 249.118C189.072 253.637 190.993 258.658 195.186 260.333C199.377 262.008 204.253 259.702 206.074 255.183C206.168 254.949 206.246 254.713 206.321 254.476C208.627 254.903 210.945 255.135 213.259 255.172C213.266 255.414 213.276 255.656 213.303 255.899C213.821 260.65 217.923 263.845 222.464 263.036C227.005 262.227 230.266 257.72 229.747 252.969C229.72 252.721 229.678 252.479 229.632 252.24C231.87 251.386 234.051 250.355 236.156 249.154C236.28 249.357 236.406 249.559 236.549 249.752C239.269 253.462 244.451 253.976 248.124 250.9C251.797 247.824 252.57 242.323 249.851 238.613C249.712 238.423 249.562 238.247 249.41 238.074C250.991 236.195 252.449 234.177 253.77 232.034C253.973 232.139 254.181 232.241 254.398 232.327ZM204.444 237.36C189.225 231.279 182.248 213.049 188.862 196.642C195.475 180.235 213.175 171.864 228.393 177.945C243.613 184.026 250.59 202.256 243.976 218.663C237.363 235.07 219.664 243.441 204.444 237.36Z" fill="url(#paint25_linear)"/>
<path d="M262.073 208.288C266.614 207.479 269.874 202.972 269.356 198.221C268.838 193.47 264.736 190.274 260.195 191.084C259.958 191.126 259.726 191.185 259.496 191.246C258.809 188.929 257.949 186.683 256.924 184.526C257.124 184.385 257.322 184.24 257.514 184.079C261.187 181.003 265.446 173.977 262.358 170.564C256.499 164.087 251.339 167.568 247.666 170.644C247.478 170.802 247.302 170.969 247.129 171.139C245.432 169.573 243.595 168.145 241.632 166.866C241.743 166.644 241.85 166.42 241.945 166.186C242.936 163.727 242.812 161.122 241.823 158.986C238.629 165.947 235.489 172.931 232.419 179.945C244.791 187.4 249.974 203.781 243.976 218.663C238.892 231.274 227.259 239.128 215.238 239.331C214.827 240.754 214.426 242.183 213.977 243.596C212.757 247.43 211.319 251.207 209.879 254.979C211.005 255.089 212.133 255.155 213.259 255.173C213.266 255.415 213.276 255.657 213.303 255.9C213.821 260.651 217.083 264.439 225.339 263.271C229.906 262.625 230.266 257.721 229.747 252.97C229.72 252.722 229.678 252.48 229.632 252.241C231.87 251.387 234.051 250.356 236.156 249.155C236.28 249.358 236.406 249.559 236.549 249.753C239.269 253.463 247.644 254.404 251.317 251.328C254.99 248.252 252.571 242.324 249.851 238.614C249.712 238.424 249.562 238.248 249.41 238.075C250.991 236.196 252.449 234.178 253.771 232.035C253.975 232.139 254.182 232.24 254.4 232.327C258.592 234.002 263.467 231.696 265.288 227.177C267.109 222.658 265.188 217.637 260.996 215.962C260.779 215.875 260.559 215.806 260.339 215.74C260.872 213.281 261.22 210.82 261.383 208.374C261.61 208.354 261.841 208.33 262.073 208.288Z" fill="url(#paint26_linear)"/>
<path d="M258.756 232.436C262.948 234.111 267.823 231.805 269.644 227.286C271.465 222.767 269.544 217.746 265.352 216.071C265.135 215.984 264.915 215.915 264.695 215.849C265.229 213.39 265.576 210.929 265.739 208.483C265.969 208.462 266.199 208.438 266.432 208.397C270.973 207.588 274.233 203.081 273.715 198.33C273.197 193.579 269.095 190.383 264.554 191.192C264.317 191.234 264.085 191.293 263.855 191.355C263.168 189.038 262.308 186.792 261.283 184.635C261.483 184.494 261.681 184.349 261.873 184.188C265.546 181.112 266.319 175.611 263.601 171.901C260.881 168.191 255.699 167.677 252.026 170.753C251.838 170.911 251.662 171.078 251.489 171.248C249.792 169.682 247.955 168.254 245.992 166.975C246.103 166.753 246.21 166.528 246.305 166.294C248.127 161.775 246.204 156.754 242.013 155.079C237.822 153.404 232.946 155.71 231.125 160.229C231.031 160.463 230.952 160.699 230.878 160.936C228.572 160.508 226.254 160.277 223.94 160.24C223.933 159.998 223.923 159.756 223.896 159.513C223.377 154.762 219.275 151.567 214.734 152.376C210.194 153.185 206.933 157.692 207.452 162.443C207.479 162.691 207.521 162.933 207.567 163.172C205.329 164.026 203.149 165.057 201.043 166.258C200.92 166.055 200.793 165.853 200.652 165.659C197.933 161.949 192.75 161.435 189.077 164.511C185.404 167.587 184.631 173.088 187.349 176.798C187.489 176.988 187.639 177.164 187.79 177.337C186.209 179.216 184.752 181.234 183.43 183.377C183.225 183.273 183.019 183.172 182.801 183.085C178.609 181.41 173.734 183.716 171.913 188.235C170.091 192.754 172.013 197.775 176.205 199.45C176.422 199.537 176.642 199.606 176.863 199.672C176.33 202.131 175.982 204.592 175.819 207.038C175.589 207.059 175.359 207.083 175.126 207.124C170.585 207.933 167.324 212.44 167.843 217.191C168.361 221.942 172.463 225.137 177.004 224.328C177.241 224.286 177.473 224.228 177.703 224.166C178.39 226.482 179.25 228.729 180.274 230.886C180.075 231.027 179.877 231.172 179.685 231.333C176.012 234.409 175.238 239.91 177.957 243.62C180.676 247.33 185.859 247.844 189.532 244.768C189.72 244.61 189.896 244.443 190.068 244.273C191.767 245.839 193.603 247.267 195.565 248.546C195.455 248.768 195.348 248.992 195.253 249.227C193.432 253.746 195.354 258.767 199.545 260.442C203.736 262.117 208.612 259.811 210.433 255.292C210.527 255.058 210.605 254.822 210.68 254.586C212.986 255.013 215.304 255.245 217.618 255.282C217.625 255.524 217.635 255.766 217.662 256.009C218.181 260.76 222.283 263.955 226.823 263.146C231.364 262.337 234.626 257.83 234.106 253.079C234.079 252.831 234.037 252.589 233.991 252.35C236.229 251.496 238.41 250.465 240.515 249.264C240.639 249.467 240.765 249.669 240.908 249.862C243.627 253.572 248.81 254.086 252.483 251.01C256.156 247.934 256.929 242.433 254.21 238.723C254.071 238.533 253.921 238.357 253.769 238.184C255.35 236.305 256.808 234.287 258.13 232.143C258.331 232.248 258.539 232.349 258.756 232.436ZM208.802 237.469C193.583 231.388 186.606 213.158 193.22 196.751C199.834 180.344 217.533 171.973 232.751 178.054C247.971 184.135 254.948 202.365 248.334 218.772C241.721 235.179 224.022 243.55 208.802 237.469Z" fill="url(#paint27_linear)"/>
<path d="M234.504 151.921L237.76 149.973H239.23C239.23 149.973 239.731 151.829 239.674 151.921C239.019 152.989 235.969 153.802 234.067 153.869C233.752 153.88 233.311 153.882 233.196 153.654C233.004 153.268 233.866 152.458 234.504 151.921Z" fill="url(#paint28_linear)"/>
<path d="M237.818 147.847C237.823 148.982 237.775 149.783 237.49 150.135C237.289 150.383 239.221 150.941 239.231 149.973C239.238 149.336 239.338 148.243 239.441 147.922C238.9 147.897 238.359 147.872 237.818 147.847Z" fill="url(#paint29_linear)"/>
<path d="M212.731 151.603L215.987 149.655H217.456C217.456 149.655 217.958 151.511 217.9 151.603C217.246 152.671 214.196 153.484 212.294 153.551C211.977 153.562 211.538 153.564 211.423 153.336C211.231 152.95 212.093 152.14 212.731 151.603Z" fill="url(#paint30_linear)"/>
<path d="M216.976 147.542C216.502 148.445 216.001 149.464 215.716 149.816C215.515 150.064 217.12 150.562 217.456 149.654C217.73 148.918 218.496 147.938 218.597 147.617C218.057 147.592 217.517 147.567 216.976 147.542Z" fill="url(#paint31_linear)"/>
<path d="M217.646 94.3872C218.906 102.73 219.729 113.107 218.986 124.96C218.436 133.714 217.146 141.488 215.636 148.084C216.641 148.343 217.646 148.603 218.651 148.862C219.903 148.573 221.675 147.949 222.895 146.416C224.497 144.401 223.767 142.542 224.905 139.19C225.991 135.99 227.29 135.82 228.59 133.075C230.284 129.496 229.25 127.303 229.371 122.514C229.577 114.411 232.715 113.783 233.726 103.726C234.256 98.4602 234.517 95.4372 232.609 93.4982C229.938 90.7842 224.066 91.2652 217.646 94.3872Z" fill="url(#paint32_linear)"/>
<path d="M224.569 92.705C228.012 100.679 231.588 110.892 233.95 123.055C235.836 132.775 236.521 141.554 236.629 148.958C237.746 148.958 238.862 148.958 239.979 148.958C240.948 147.554 242.221 145.378 242.994 142.51C243.765 139.65 243.28 138.913 243.776 134.394C244.452 128.235 245.337 127.952 245.227 124.277C245.102 120.054 243.812 120.071 243.329 115.828C242.614 109.551 245.218 107.614 245.116 101.82C245.069 99.217 244.468 95.297 241.542 90.48C235.884 91.222 230.226 91.963 224.569 92.705Z" fill="url(#paint33_linear)"/>
<path d="M180.574 91.729L179.261 92.888C179.261 92.888 176.378 92.775 175.34 93.038C174.302 93.301 172.51 94.197 172.51 94.197C172.51 94.197 172.958 94.855 173.593 94.606C174.228 94.357 175.209 94.02 175.398 94.111C175.587 94.202 176.031 95.393 177.542 95.592C179.054 95.791 179.757 94.019 179.757 94.019L181.188 92.809L180.574 91.729Z" fill="url(#paint34_linear)"/>
<path d="M195.621 61.2151C195.088 61.2801 194.046 61.6001 191.684 65.9681C188.628 71.6201 187.826 75.7951 186.659 79.2251C185.567 82.4351 183.516 86.8681 179.29 91.7322C179.988 92.4552 180.686 93.1772 181.384 93.9002C187.371 93.7522 190.335 91.8522 191.936 90.1482C194.273 87.6611 193.552 85.7551 196.375 81.9771C199.678 77.5581 202.181 78.1381 203.325 75.2231C205.471 69.7581 199.403 60.7531 195.621 61.2151Z" fill="url(#paint35_linear)"/>
<path d="M225.602 53.4602C222.177 52.3672 219.495 52.6702 214.715 53.2102C207.739 53.9982 203.266 56.3002 199.389 58.2962C195.579 60.2572 194.57 61.3642 194.029 62.6322C192.768 65.5872 194.305 68.8162 195.286 70.8032C197.79 75.8772 200.113 75.7012 205.419 81.8092C210.087 87.1832 212.421 89.8692 213.962 93.8162C214.643 95.5622 215.309 97.8222 217.479 99.1522C219.586 100.443 221.978 100.163 223.342 99.9862C229.069 99.2402 229.576 95.5602 233.308 95.8172C236.281 96.0222 236.925 98.4252 242.018 99.2362C244.294 99.5982 244.958 99.2442 245.284 98.9862C246.524 98.0062 246.379 95.6652 245.201 90.8982C243.389 83.5702 241.774 81.1942 240.26 75.3892C238.687 69.3612 239.899 69.8912 238.585 66.4672C238.141 65.3172 234.525 56.3062 225.602 53.4602Z" fill="url(#paint36_linear)"/>
<path d="M224.899 83.842L212.827 70.6501C212.536 70.2671 212.056 70.0761 211.579 70.1531L197.753 72.4031C197.16 72.4991 196.887 73.192 197.256 73.664L208.495 88.061C208.796 88.447 209.291 88.631 209.773 88.538L224.11 85.898C225.056 85.714 225.481 84.607 224.899 83.842Z" fill="url(#paint37_linear)"/>
<path d="M225.406 79.5949L222.822 78.4719C222.822 78.4719 221.836 77.0689 221.036 76.8349C220.238 76.6009 217.371 76.9289 217.371 76.9289C217.371 76.9289 217.653 78.0519 218.217 78.2389C218.78 78.4259 220.519 78.5659 220.801 79.1279C221.083 79.6889 222.117 80.1099 222.493 79.9229C222.868 79.7359 225.265 80.5309 225.265 80.5309L225.406 79.5949Z" fill="url(#paint38_linear)"/>
<path opacity="0.3" d="M224.513 96.9853C225.705 95.5373 225.062 93.8003 226.691 92.3163C229.345 89.8993 234.147 91.6873 234.396 90.8153C234.695 89.7703 227.503 88.2563 226.691 84.1453C226.323 82.2813 227.677 81.9643 227.529 79.4762C227.389 77.1432 225.926 75.2212 223.006 71.4712C220.701 68.5112 220.077 68.2702 219.991 67.1352C219.731 63.7252 224.058 61.3522 225.853 60.1312C228.048 58.6382 230.341 57.8652 232.481 57.5112C236.476 61.1742 238.28 65.6782 238.583 66.4682C239.897 69.8912 238.686 69.3612 240.259 75.3902C241.773 81.1953 243.387 83.5703 245.199 90.8993C246.377 95.6663 246.522 98.0073 245.283 98.9873C244.956 99.2453 244.292 99.5993 242.016 99.2373C236.925 98.4273 236.28 96.0233 233.306 95.8183C229.575 95.5613 229.066 99.2413 223.34 99.9873C221.977 100.165 219.585 100.444 217.478 99.1533C217.003 98.8623 216.604 98.5253 216.257 98.1613C221.322 99.0873 223.514 98.2003 224.513 96.9853Z" fill="url(#paint39_linear)"/>
<path d="M201.12 49.8472C201.885 51.6772 204.749 56.2952 210.939 54.0322C212.595 53.4262 212.878 53.6402 212.974 53.7672C213.441 54.3872 210.122 58.5112 205.427 59.7672C202.562 60.5342 199.499 60.1492 199.336 59.3552C199.172 58.5562 201.219 58.6292 201.454 56.9622C201.618 55.8022 199.261 54.4112 198.048 53.6272C198.247 52.1102 200.921 51.3672 201.12 49.8472Z" fill="url(#paint40_linear)"/>
<path d="M195.971 53.4651C194.911 53.1181 194.051 51.9231 194.208 50.7491C194.344 49.7391 195.199 49.0951 195.71 48.7101C197.196 47.5921 199.615 46.9801 201.207 47.8701C202.151 48.3981 202.343 50.5501 202.399 50.9251C202.462 51.3491 202.249 51.6331 202.148 52.0411C202.01 52.6061 201.799 53.4991 201.469 54.9771C201.213 54.7511 200.875 54.4831 200.451 54.2261C200.288 54.1271 199.644 53.7461 198.922 53.5421C197.477 53.1351 196.977 53.7941 195.971 53.4651Z" fill="url(#paint41_linear)"/>
<path d="M202.302 53.4041C202.302 53.4041 202.289 55.5661 200.111 56.6871C198.165 57.6881 195.363 54.1141 196.019 52.6111C196.238 52.1091 196.962 51.524 197.722 51.299C198.171 51.166 198.397 51.231 199.126 51C199.8 50.788 199.925 50.632 200.19 50.659C200.521 50.693 200.956 51 201.33 52.3131C201.469 51.7781 201.816 51.3981 202.208 51.3451C202.27 51.3371 202.452 51.3381 202.605 51.4131C203.158 51.6851 203.088 52.4931 202.302 53.4041Z" fill="url(#paint42_linear)"/>
<path d="M214.547 54.628C216.811 50.823 227.468 52.215 234.646 56.379C236.985 57.735 244.114 61.87 244.612 69.053C244.666 69.834 244.806 73.006 242.937 75.974C239.794 80.966 232.363 83.169 224.512 81.227C224.595 80.393 224.68 79.559 224.763 78.726C225.432 78.749 228.093 78.764 230.458 76.808C230.932 76.416 233.747 74.088 233.306 71.972C232.564 68.419 223.665 70.356 217.896 64.384C215.311 61.706 213.057 57.132 214.547 54.628Z" fill="url(#paint43_linear)"/>
<defs>
<linearGradient id="paint0_linear" x1="49.3354" y1="82.019" x2="9.3879" y2="120.478" gradientUnits="userSpaceOnUse">
<stop stop-color="#AB316D"/>
<stop offset="1" stop-color="#792D3D"/>
</linearGradient>
<linearGradient id="paint1_linear" x1="21.5195" y1="144.661" x2="213.199" y2="144.661" gradientUnits="userSpaceOnUse">
<stop stop-color="#AB316D"/>
<stop offset="1" stop-color="#792D3D"/>
</linearGradient>
<linearGradient id="paint2_linear" x1="54.6199" y1="31.3353" x2="188.326" y2="273.066" gradientUnits="userSpaceOnUse">
<stop stop-color="#FFC444"/>
<stop offset="0.9964" stop-color="#F36F56"/>
</linearGradient>
<linearGradient id="paint3_linear" x1="27.8729" y1="144.584" x2="213.459" y2="144.584" gradientUnits="userSpaceOnUse">
<stop stop-color="#FFC444"/>
<stop offset="0.9964" stop-color="#F36F56"/>
</linearGradient>
<linearGradient id="paint4_linear" x1="76.7828" y1="27.7699" x2="172.658" y2="27.7699" gradientUnits="userSpaceOnUse">
<stop stop-color="#444B8C"/>
<stop offset="0.9964" stop-color="#26264F"/>
</linearGradient>
<linearGradient id="paint5_linear" x1="110.481" y1="43.888" x2="21.1782" y2="129.864" gradientUnits="userSpaceOnUse">
<stop stop-color="#FF9085"/>
<stop offset="1" stop-color="#FB6FBB"/>
</linearGradient>
<linearGradient id="paint6_linear" x1="132.791" y1="262.944" x2="136.582" y2="262.296" gradientUnits="userSpaceOnUse">
<stop offset="0.003597" stop-color="#F36F56"/>
<stop offset="1" stop-color="#FFC444"/>
</linearGradient>
<linearGradient id="paint7_linear" x1="137.46" y1="246.147" x2="133.489" y2="282.569" gradientUnits="userSpaceOnUse">
<stop stop-color="#444B8C"/>
<stop offset="0.9964" stop-color="#26264F"/>
</linearGradient>
<linearGradient id="paint8_linear" x1="144.908" y1="229.891" x2="112.408" y2="256.705" gradientUnits="userSpaceOnUse">
<stop stop-color="#AB316D"/>
<stop offset="1" stop-color="#792D3D"/>
</linearGradient>
<linearGradient id="paint9_linear" x1="106.211" y1="241.992" x2="94.4807" y2="272.235" gradientUnits="userSpaceOnUse">
<stop stop-color="#444B8C"/>
<stop offset="0.9964" stop-color="#26264F"/>
</linearGradient>
<linearGradient id="paint10_linear" x1="89.1351" y1="276.389" x2="93.6531" y2="276.817" gradientUnits="userSpaceOnUse">
<stop offset="0.003597" stop-color="#F36F56"/>
<stop offset="1" stop-color="#FFC444"/>
</linearGradient>
<linearGradient id="paint11_linear" x1="159.881" y1="252.689" x2="119.624" y2="239.038" gradientUnits="userSpaceOnUse">
<stop stop-color="#AB316D"/>
<stop offset="1" stop-color="#792D3D"/>
</linearGradient>
<linearGradient id="paint12_linear" x1="118.091" y1="229.803" x2="94.9929" y2="276.316" gradientUnits="userSpaceOnUse">
<stop stop-color="#AB316D"/>
<stop offset="1" stop-color="#792D3D"/>
</linearGradient>
<linearGradient id="paint13_linear" x1="115.181" y1="229.609" x2="92.5619" y2="275.156" gradientUnits="userSpaceOnUse">
<stop stop-color="#AB316D"/>
<stop offset="1" stop-color="#792D3D"/>
</linearGradient>
<linearGradient id="paint14_linear" x1="132.518" y1="181.529" x2="133.384" y2="144.127" gradientUnits="userSpaceOnUse">
<stop stop-color="#AA80F9"/>
<stop offset="0.9964" stop-color="#6165D7"/>
</linearGradient>
<linearGradient id="paint15_linear" x1="136.836" y1="156.684" x2="136.283" y2="164.759" gradientUnits="userSpaceOnUse">
<stop offset="0.003597" stop-color="#F36F56"/>
<stop offset="1" stop-color="#FFC444"/>
</linearGradient>
<linearGradient id="paint16_linear" x1="120.857" y1="170.857" x2="121.136" y2="161.323" gradientUnits="userSpaceOnUse">
<stop stop-color="#444B8C"/>
<stop offset="0.9964" stop-color="#26264F"/>
</linearGradient>
<linearGradient id="paint17_linear" x1="122.422" y1="162.018" x2="125.02" y2="201.161" gradientUnits="userSpaceOnUse">
<stop offset="0.003597" stop-color="#F36F56"/>
<stop offset="1" stop-color="#FFC444"/>
</linearGradient>
<linearGradient id="paint18_linear" x1="115.596" y1="166.385" x2="124.865" y2="172.097" gradientUnits="userSpaceOnUse">
<stop offset="0.003597" stop-color="#F36F56"/>
<stop offset="1" stop-color="#FFC444"/>
</linearGradient>
<linearGradient id="paint19_linear" x1="159.448" y1="164.215" x2="157.889" y2="169.215" gradientUnits="userSpaceOnUse">
<stop offset="0.003597" stop-color="#F36F56"/>
<stop offset="1" stop-color="#FFC444"/>
</linearGradient>
<linearGradient id="paint20_linear" x1="102.787" y1="233.721" x2="150.55" y2="163.651" gradientUnits="userSpaceOnUse">
<stop stop-color="#AA80F9"/>
<stop offset="0.9964" stop-color="#6165D7"/>
</linearGradient>
<linearGradient id="paint21_linear" x1="143.989" y1="180.22" x2="134.339" y2="230.704" gradientUnits="userSpaceOnUse">
<stop stop-color="#AA80F9"/>
<stop offset="0.9964" stop-color="#6165D7"/>
</linearGradient>
<linearGradient id="paint22_linear" x1="219.761" y1="233.254" x2="181.98" y2="169.482" gradientUnits="userSpaceOnUse">
<stop stop-color="#311944"/>
<stop offset="1" stop-color="#893976"/>
</linearGradient>
<linearGradient id="paint23_linear" x1="227.595" y1="228.613" x2="189.814" y2="164.841" gradientUnits="userSpaceOnUse">
<stop stop-color="#311944"/>
<stop offset="1" stop-color="#893976"/>
</linearGradient>
<linearGradient id="paint24_linear" x1="144.325" y1="105.421" x2="218.882" y2="211.948" gradientUnits="userSpaceOnUse">
<stop offset="0.00359712" stop-color="#E38DDD"/>
<stop offset="1" stop-color="#9571F6"/>
</linearGradient>
<linearGradient id="paint25_linear" x1="324.416" y1="356.69" x2="262.821" y2="270.938" gradientUnits="userSpaceOnUse">
<stop stop-color="#311944"/>
<stop offset="1" stop-color="#893976"/>
</linearGradient>
<linearGradient id="paint26_linear" x1="334.94" y1="349.126" x2="273.347" y2="263.376" gradientUnits="userSpaceOnUse">
<stop stop-color="#311944"/>
<stop offset="1" stop-color="#893976"/>
</linearGradient>
<linearGradient id="paint27_linear" x1="201.314" y1="184.799" x2="320.456" y2="326.602" gradientUnits="userSpaceOnUse">
<stop offset="0.00359712" stop-color="#E38DDD"/>
<stop offset="1" stop-color="#9571F6"/>
</linearGradient>
<linearGradient id="paint28_linear" x1="233.17" y1="151.923" x2="239.679" y2="151.923" gradientUnits="userSpaceOnUse">
<stop stop-color="#311944"/>
<stop offset="1" stop-color="#6B3976"/>
</linearGradient>
<linearGradient id="paint29_linear" x1="237.655" y1="151.555" x2="242.999" y2="135.45" gradientUnits="userSpaceOnUse">
<stop stop-color="#FFC444"/>
<stop offset="0.9964" stop-color="#F36F56"/>
</linearGradient>
<linearGradient id="paint30_linear" x1="211.396" y1="151.605" x2="217.905" y2="151.605" gradientUnits="userSpaceOnUse">
<stop stop-color="#311944"/>
<stop offset="1" stop-color="#6B3976"/>
</linearGradient>
<linearGradient id="paint31_linear" x1="216.228" y1="151.484" x2="222.113" y2="133.749" gradientUnits="userSpaceOnUse">
<stop stop-color="#FFC444"/>
<stop offset="0.9964" stop-color="#F36F56"/>
</linearGradient>
<linearGradient id="paint32_linear" x1="231.004" y1="84.4998" x2="216.717" y2="138.561" gradientUnits="userSpaceOnUse">
<stop stop-color="#311944"/>
<stop offset="1" stop-color="#6B3976"/>
</linearGradient>
<linearGradient id="paint33_linear" x1="248.748" y1="119.72" x2="228.081" y2="119.72" gradientUnits="userSpaceOnUse">
<stop stop-color="#311944"/>
<stop offset="1" stop-color="#6B3976"/>
</linearGradient>
<linearGradient id="paint34_linear" x1="175.161" y1="87.7586" x2="181.253" y2="108.674" gradientUnits="userSpaceOnUse">
<stop stop-color="#AB316D"/>
<stop offset="1" stop-color="#792D3D"/>
</linearGradient>
<linearGradient id="paint35_linear" x1="216.4" y1="102.654" x2="181.036" y2="69.4808" gradientUnits="userSpaceOnUse">
<stop stop-color="#AA80F9"/>
<stop offset="0.9964" stop-color="#6165D7"/>
</linearGradient>
<linearGradient id="paint36_linear" x1="232.543" y1="85.4454" x2="197.179" y2="52.2719" gradientUnits="userSpaceOnUse">
<stop stop-color="#AA80F9"/>
<stop offset="0.9964" stop-color="#6165D7"/>
</linearGradient>
<linearGradient id="paint37_linear" x1="212.814" y1="73.4461" x2="202.781" y2="106.401" gradientUnits="userSpaceOnUse">
<stop stop-color="#FFC444"/>
<stop offset="0.9964" stop-color="#F36F56"/>
</linearGradient>
<linearGradient id="paint38_linear" x1="220.315" y1="74.6067" x2="226.407" y2="95.5216" gradientUnits="userSpaceOnUse">
<stop stop-color="#AB316D"/>
<stop offset="1" stop-color="#792D3D"/>
</linearGradient>
<linearGradient id="paint39_linear" x1="232.544" y1="85.4444" x2="197.181" y2="52.2707" gradientUnits="userSpaceOnUse">
<stop stop-color="#AA80F9"/>
<stop offset="0.9964" stop-color="#6165D7"/>
</linearGradient>
<linearGradient id="paint40_linear" x1="212.563" y1="62.2016" x2="196.196" y2="47.7995" gradientUnits="userSpaceOnUse">
<stop stop-color="#AB316D"/>
<stop offset="1" stop-color="#792D3D"/>
</linearGradient>
<linearGradient id="paint41_linear" x1="207.798" y1="57.4083" x2="196.288" y2="48.9909" gradientUnits="userSpaceOnUse">
<stop stop-color="#444B8C"/>
<stop offset="0.9964" stop-color="#26264F"/>
</linearGradient>
<linearGradient id="paint42_linear" x1="198.843" y1="51.7593" x2="208.111" y2="68.1117" gradientUnits="userSpaceOnUse">
<stop stop-color="#AB316D"/>
<stop offset="1" stop-color="#792D3D"/>
</linearGradient>
<linearGradient id="paint43_linear" x1="239.785" y1="77.7249" x2="204.422" y2="44.5516" gradientUnits="userSpaceOnUse">
<stop stop-color="#AA80F9"/>
<stop offset="0.9964" stop-color="#6165D7"/>
</linearGradient>
</defs>
</svg>
