<svg width="282" height="278" viewBox="0 0 282 278" fill="none" xmlns="http://www.w3.org/2000/svg">
<g clip-path="url(#clip0)">
<path d="M146.326 0.0616033C74.6312 -2.02935 12.5279 49.354 3.14436 116.777C-7.11449 190.494 49.3484 256.821 118.823 267.445C205.237 280.659 289.055 204.216 281.529 121.287C275.859 58.807 219.206 2.18731 146.326 0.0616033Z" fill="#F4F7FA"/>
<path d="M128.123 167.643C158.399 147.522 203.858 167.922 205.994 161.145C206.158 160.624 207.129 158.185 199.941 154.028C177.635 141.129 160.516 137.086 166.176 107.396C171.836 77.7071 159.477 55.4264 130.885 50.5087C100.796 45.335 85.8358 2.37903 58.4405 9.08379C10.704 20.7677 38.0963 87.5721 79.5728 125.242C104.603 147.975 98.0425 179.421 110.348 180.002C116.848 180.309 118.443 174.076 128.123 167.643Z" fill="url(#paint0_linear)"/>
<g opacity="0.4">
<g opacity="0.4">
<path opacity="0.4" d="M153.55 185.864C153.344 185.186 150.492 172.55 150.28 171.872C130.767 109.112 92.1364 51.4945 39.6228 10.1013L38.7119 11.1418C91.0896 52.4278 129.605 109.923 149.007 172.542C149.305 172.752 151.758 185.328 152.056 185.541C152.392 185.782 153.215 185.62 153.55 185.864Z" fill="#FCFDFE"/>
<path opacity="0.4" d="M130.414 125.421L131.828 125.195C125.871 94.1893 155.889 55.6109 156.192 55.2257L155.037 54.4026C154.729 54.7928 124.346 93.8418 130.414 125.421Z" fill="#FCFDFE"/>
<path opacity="0.4" d="M96.7637 70.4401L97.7758 69.486C70.8673 43.9527 19.7366 42.6769 19.2221 42.668L19.2112 44.0282C19.7197 44.0371 70.2755 45.305 96.7637 70.4401Z" fill="#FCFDFE"/>
</g>
</g>
<g opacity="0.5">
<path opacity="0.5" d="M103.853 156.532C107.506 149.51 115.663 132.996 100.816 127.997C88.4568 123.836 79.557 123.548 79.3954 108.248C79.2328 92.9486 70.8703 83.1332 56.1913 83.5631C40.7441 84.0158 29.0221 64.2033 16.0986 70.2806C-6.41951 80.8704 11.9243 115.175 38.2093 125.797C64.4934 136.42 48.7269 145.037 47.4204 157.511C47.3649 158.676 47.3678 160.486 47.7763 162.622C50.2922 175.772 63.8233 178.468 73.2028 189.476C85.9944 204.489 100.9 162.206 103.853 156.532Z" fill="url(#paint1_linear)"/>
<g opacity="0.5">
<path opacity="0.5" d="M94.457 191.046L95.1757 190.931C86.8053 141.296 52.9666 95.9819 6.86375 72.6746L6.51581 73.2822C52.4244 96.4922 86.1213 141.617 94.457 191.046Z" fill="#FCFDFE"/>
<path opacity="0.5" d="M87.4387 164.377L88.1663 164.399C89.0208 144.624 107.578 129.735 107.765 129.587L107.301 129.061C107.112 129.21 88.306 144.29 87.4387 164.377Z" fill="#FCFDFE"/>
<path opacity="0.5" d="M92.6538 181.957L93.308 181.65C84.0097 163.71 45.6191 160.082 45.2325 160.047L45.1572 160.733C45.5388 160.767 83.5319 164.359 92.6538 181.957Z" fill="#FCFDFE"/>
<path opacity="0.5" d="M63.4554 120.782L64.1344 120.528C58.0757 105.741 69.1097 83.5851 69.2217 83.3627L68.5655 83.0708C68.4525 83.2962 57.2836 105.723 63.4554 120.782Z" fill="#FCFDFE"/>
<path opacity="0.5" d="M41.2555 96.8794L41.6619 96.3045C25.7547 86.3352 0.255753 90.8359 0 90.8825L0.13085 91.5587C0.383629 91.512 25.5961 87.066 41.2555 96.8794Z" fill="#FCFDFE"/>
</g>
</g>
<g opacity="0.5">
<path opacity="0.5" d="M116.925 166.131C112.541 155.135 95.6188 148.549 86.6189 157.597C76.4364 167.834 61.914 151.936 57.3897 133.156C52.9626 114.779 17.7917 112.056 23.7265 152.713C27.2714 176.993 50.9196 180.271 62.4691 184.769C74.0186 189.268 69.8512 207.208 86.0905 205.401C93.9574 204.525 116.208 197.1 120.168 187.131C123.19 179.524 118.183 169.288 116.925 166.131Z" fill="url(#paint2_linear)"/>
<g opacity="0.5">
<path opacity="0.5" d="M112.424 193.677C106.166 191.763 99.6335 189.468 93.1614 186.733C65.9892 175.248 34.3462 153.398 37.9129 114.527L37.4163 114.482C35.8282 131.784 40.9651 147.211 52.6821 160.333C62.0419 170.814 75.5997 179.853 92.977 187.197C99.4194 189.919 105.92 192.205 112.153 194.115C112.239 193.967 112.329 193.82 112.424 193.677Z" fill="white"/>
<path opacity="0.5" d="M57.815 165.604L57.8943 165.11C41.5122 162.457 20.8171 149.857 20.6099 149.73L20.3492 150.156C20.5583 150.284 41.3368 162.935 57.815 165.604Z" fill="white"/>
<path opacity="0.5" d="M50.2475 156.647C44.9153 137.574 54.1284 123.907 54.2216 123.771L53.8112 123.487C53.716 123.625 44.3691 137.474 49.7667 156.781L50.2475 156.647Z" fill="white"/>
<path opacity="0.5" d="M112.888 193.831C91.8865 181.87 95.3154 149.514 95.3759 149.201L94.8941 149.075C94.8069 149.376 91.4543 182.197 112.642 194.265L112.888 193.831Z" fill="white"/>
<path opacity="0.5" d="M103.283 191.182L103.323 190.683C87.9552 189.463 73.3961 202.288 73.2504 202.417L73.5825 202.789C73.7253 202.662 88.1297 189.978 103.283 191.182Z" fill="white"/>
</g>
</g>
<path d="M168.665 55.613C169.077 57.2086 169.598 58.7525 170.221 60.2318C170.093 60.3112 169.967 60.3927 169.844 60.485C167.438 62.289 166.865 65.8832 168.562 68.5132C170.259 71.1433 173.586 71.8125 175.991 70.0085C176.116 69.9142 176.234 69.8119 176.349 69.7086C177.43 70.8633 178.591 71.9277 179.821 72.8908C179.747 73.0317 179.673 73.1747 179.609 73.3256C178.375 76.2029 179.54 79.6511 182.213 81.0262C184.885 82.4023 188.054 81.1841 189.288 78.3068C189.351 78.1589 189.404 78.0099 189.454 77.86C190.903 78.28 192.391 78.5778 193.909 78.7516C193.91 78.9134 193.913 79.0772 193.927 79.2411C194.195 82.4212 196.788 84.7981 199.72 84.5509C202.652 84.3037 204.812 81.5256 204.545 78.3455C204.531 78.1807 204.507 78.0199 204.481 77.859C205.949 77.4341 207.367 76.89 208.725 76.2337C208.8 76.3727 206.996 76.3558 207.083 76.4909C208.78 79.1209 213.988 79.946 216.394 78.142C218.798 76.338 219.372 72.7438 217.675 70.1137C217.587 69.9767 217.491 69.8476 217.394 69.7206C218.446 68.5649 219.412 67.3218 220.284 66.0023C220.415 66.0857 220.549 66.1661 220.689 66.2376C223.361 67.6127 226.529 66.3955 227.764 63.5182C228.998 60.6409 227.832 57.1937 225.16 55.8176C225.023 55.7471 224.884 55.6885 224.744 55.6309C225.112 54.0672 225.368 52.4587 225.507 50.8166C225.657 50.8175 225.808 50.8156 225.959 50.8036C228.892 50.5564 231.052 47.7784 230.784 44.5983C230.516 41.4182 227.923 39.0413 224.991 39.2885C224.839 39.3014 224.691 39.3252 224.543 39.351C224.131 37.7555 223.61 36.2116 222.986 34.7323C223.113 34.6528 223.24 34.5714 223.363 34.4781C225.769 32.6741 226.343 29.0799 224.645 26.4498C222.948 23.8198 219.621 23.1506 217.216 24.9546C217.09 25.0489 216.972 25.1512 216.857 25.2544C215.777 24.0997 214.616 23.0354 213.386 22.0733C213.46 21.9323 213.534 21.7894 213.598 21.6385C214.832 18.7612 213.855 15.2891 207.737 12.938C204.931 11.8598 205.153 13.779 203.919 16.6563C203.856 16.8042 203.803 16.9532 203.753 17.1031C202.304 16.6831 200.815 16.3852 199.298 16.2115C199.297 16.0497 199.293 15.8868 199.28 15.722C199.012 12.5419 197.542 9.18107 190.752 9.64672C187.817 9.84827 188.395 13.4384 188.662 16.6176C188.676 16.7824 188.7 16.9432 188.726 17.1041C187.258 17.529 185.84 18.0731 184.482 18.7294C184.407 18.5894 184.33 18.4514 184.243 18.3164C182.546 15.6863 179.219 15.0171 176.814 16.8211C174.408 18.6251 173.836 22.2203 175.533 24.8494C175.622 24.9864 175.717 25.1154 175.814 25.2425C174.762 26.3982 173.796 27.6413 172.924 28.9608C172.792 28.8784 172.659 28.797 172.519 28.7255C169.847 27.3494 166.678 28.5676 165.444 31.4449C164.21 34.3222 165.376 37.7704 168.048 39.1455C168.185 39.216 168.324 39.2756 168.464 39.3322C168.096 40.8959 167.84 42.5043 167.7 44.1465C167.551 44.1455 167.4 44.1475 167.248 44.1604C164.316 44.4077 162.156 47.1857 162.424 50.3658C162.691 53.5459 165.285 55.9228 168.217 55.6756C168.369 55.6627 168.517 55.6389 168.665 55.613ZM177.33 49.1088C176.359 37.5639 184.201 27.4774 194.847 26.5789C205.492 25.6814 214.909 34.3113 215.879 45.8562C216.85 57.4012 209.007 67.4876 198.362 68.3862C187.717 69.2837 178.3 60.6528 177.33 49.1088Z" fill="#BFC6D1"/>
<path d="M168.049 39.1455C165.377 37.7694 164.211 34.3222 165.445 31.4449C166.679 28.5676 169.847 27.3504 172.52 28.7255C172.66 28.797 172.793 28.8784 172.925 28.9608C173.797 27.6413 174.763 26.3982 175.815 25.2425C175.718 25.1165 175.622 24.9874 175.534 24.8494C173.837 22.2193 172.532 17.0028 175.109 15.455C180.001 12.5181 182.547 15.6863 184.244 18.3164C184.331 18.4514 184.408 18.5894 184.483 18.7294C185.841 18.0731 187.259 17.53 188.727 17.1041C188.701 16.9442 188.677 16.7824 188.663 16.6176C188.518 14.887 189.095 13.2796 190.12 12.1299C190.774 17.1021 191.39 22.0783 191.956 27.0605C182.821 29.3639 176.45 38.6352 177.33 49.1069C178.076 57.981 183.814 65.1276 191.262 67.5542C191.246 68.5242 191.221 69.4962 191.23 70.4672C191.254 73.1032 191.425 75.7442 191.598 78.3832C190.876 78.2373 190.161 78.0626 189.456 77.858C189.406 78.0079 189.353 78.1579 189.29 78.3048C188.056 81.1821 185.298 82.9315 180.38 80.6202C177.66 79.3414 178.377 76.2009 179.611 73.3227C179.675 73.1727 179.748 73.0298 179.823 72.8878C178.593 71.9247 177.433 70.8614 176.351 69.7067C176.235 69.8099 176.117 69.9122 175.993 70.0065C173.587 71.8105 168.191 70.7978 166.493 68.1677C164.796 65.5377 167.44 62.2861 169.845 60.482C169.967 60.3897 170.094 60.3083 170.222 60.2289C169.599 58.7495 169.077 57.2056 168.666 55.6101C168.518 55.6359 168.37 55.6597 168.218 55.6726C165.286 55.9198 162.692 53.543 162.425 50.3628C162.157 47.1837 164.317 44.4047 167.249 44.1575C167.401 44.1446 167.552 44.1436 167.701 44.1436C167.841 42.5014 168.097 40.893 168.465 39.3292C168.325 39.2756 168.186 39.216 168.049 39.1455Z" fill="#BFC6D1"/>
<path d="M165.93 54.8464C166.342 56.442 166.863 57.9849 167.486 59.4652C167.358 59.5446 167.232 59.626 167.109 59.7184C164.703 61.5224 164.129 65.1166 165.827 67.7466C167.524 70.3767 170.851 71.0459 173.256 69.2419C173.382 69.1476 173.499 69.0453 173.614 68.942C174.695 70.0967 175.856 71.1601 177.086 72.1231C177.012 72.2641 176.938 72.4071 176.874 72.558C175.64 75.4353 176.805 78.8835 179.478 80.2586C182.15 81.6347 185.319 80.4165 186.553 77.5392C186.616 77.3922 186.669 77.2423 186.719 77.0924C188.168 77.5124 189.657 77.8102 191.174 77.984C191.175 78.1468 191.178 78.3096 191.192 78.4735C191.46 81.6536 194.053 84.0305 196.985 83.7833C199.917 83.536 202.077 80.758 201.81 77.5779C201.796 77.4131 201.772 77.2523 201.746 77.0914C203.214 76.6665 204.632 76.1224 205.99 75.4661C206.065 75.6051 206.143 75.7441 206.229 75.8791C207.927 78.5092 211.253 79.1784 213.658 77.3744C216.063 75.5704 216.637 71.9752 214.939 69.3461C214.851 69.2091 214.755 69.08 214.658 68.953C215.71 67.7973 216.676 66.5542 217.548 65.2347C217.679 65.3181 217.813 65.3985 217.953 65.47C220.625 66.8461 223.794 65.6289 225.028 62.7506C226.262 59.8733 225.096 56.4251 222.424 55.05C222.287 54.9795 222.148 54.9209 222.008 54.8633C222.376 53.2996 222.632 51.6911 222.772 50.0489C222.921 50.0499 223.072 50.048 223.224 50.035C226.156 49.7878 228.316 47.0098 228.048 43.8297C227.781 40.6496 225.187 38.2727 222.255 38.5199C222.103 38.5328 221.955 38.5566 221.807 38.5824C221.395 36.9869 220.874 35.444 220.251 33.9637C220.379 33.8842 220.505 33.8028 220.628 33.7105C223.034 31.9065 223.608 28.3123 221.91 25.6822C220.212 23.0522 216.886 22.382 214.481 24.187C214.355 24.2813 214.238 24.3836 214.123 24.4868C213.042 23.3321 211.881 22.2678 210.651 21.3057C210.725 21.1647 210.799 21.0218 210.863 20.8708C212.097 17.9935 210.932 14.5453 208.259 13.1702C205.587 11.7951 202.418 13.0124 201.184 15.8897C201.121 16.0376 201.068 16.1865 201.018 16.3365C199.569 15.9165 198.08 15.6186 196.563 15.4449C196.562 15.283 196.559 15.1192 196.545 14.9554C196.277 11.7753 193.684 9.39837 190.752 9.64559C187.82 9.89281 185.66 12.6708 185.927 15.851C185.941 16.0158 185.965 16.1766 185.991 16.3375C184.523 16.7624 183.105 17.3065 181.747 17.9628C181.672 17.8238 181.594 17.6848 181.508 17.5497C179.811 14.9197 176.484 14.2505 174.079 16.0545C171.675 17.8585 171.101 21.4537 172.798 24.0827C172.886 24.2207 172.982 24.3488 173.079 24.4759C172.027 25.6316 171.061 26.8747 170.189 28.1942C170.057 28.1118 169.924 28.0303 169.784 27.9589C167.112 26.5828 163.943 27.801 162.709 30.6783C161.475 33.5556 162.641 37.0038 165.313 38.3789C165.45 38.4494 165.589 38.509 165.729 38.5656C165.361 40.1293 165.105 41.7377 164.965 43.3799C164.816 43.3789 164.665 43.3809 164.513 43.3938C161.581 43.641 159.421 46.4191 159.689 49.5992C159.957 52.7793 162.55 55.1562 165.482 54.909C165.634 54.8961 165.782 54.8732 165.93 54.8464ZM174.595 48.3422C173.624 36.7973 181.466 26.7108 192.112 25.8123C202.757 24.9138 212.174 33.5447 213.144 45.0896C214.115 56.6346 206.272 66.721 195.627 67.6195C184.982 68.5181 175.565 59.8872 174.595 48.3422Z" fill="#D8DEE8"/>
<path d="M71.1548 191.555L70.8861 194.658L56.4599 204.207L54.2494 202.065L62.707 193.477C62.707 193.477 64.3873 192.978 61.8724 192.133L53.8975 191.559L54.5012 191.068L64.8244 190.258C64.8254 190.258 68.4099 190.908 71.1548 191.555Z" fill="#D8DEE8"/>
<path d="M200.676 204.458V212.623L225.709 236.89H233.411L223.783 216.395C223.783 216.395 219.289 213.705 228.918 213.705L263.579 220.675L263.084 218.503L221.857 205.157C221.858 205.155 209.02 204.458 200.676 204.458Z" fill="#97A6B7"/>
<path d="M245.328 214.108C250.768 214.745 255.254 211.485 255.244 206.83L254.872 39.0401C254.862 34.3845 250.36 31.3643 244.925 32.2916L244.225 32.4107L243.566 33.2666L45.761 67.7177C43.2501 68.1466 41.2467 69.5873 41.2536 72.692L41.5024 184.577C41.5094 187.682 43.9242 189.043 46.4361 189.338L243.359 211.113L244.503 214.012L245.328 214.108Z" fill="#97A6B7"/>
<path d="M243.085 213.977C248.499 214.613 252.965 211.359 252.955 206.715L252.584 39.313C252.574 34.6684 248.093 31.6531 242.683 32.5775L44.3494 66.4548C41.8484 66.8817 39.84 69.7471 39.8469 72.8458L40.0948 184.527C40.1017 187.626 42.122 190.383 44.625 190.677L243.085 213.977Z" fill="#D8DEE8"/>
<path opacity="0.3" d="M44.3553 69.0979L242.691 36.4379C245.577 35.9623 247.939 37.5757 247.945 40.0439L248.233 169.627L248.314 206.231C248.32 208.7 245.964 210.438 243.077 210.117L44.62 188.033C43.2768 187.883 42.1904 186.412 42.1864 184.745L42.1299 159.146L41.9376 72.5153C41.9336 70.8493 43.0131 69.3193 44.3553 69.0979Z" fill="#D8DEE8"/>
<path d="M243.045 196.039C244.168 196.138 245.081 195.441 245.079 194.484L244.737 40.5503C244.736 39.5931 243.819 38.9617 242.697 39.1414L44.3592 70.9486C43.8348 71.033 43.4106 71.6316 43.4116 72.283L43.6455 177.126C43.6465 177.777 44.0737 178.346 44.5981 178.393L243.045 196.039Z" fill="url(#paint3_linear)"/>
<path opacity="0.6" d="M61.4739 183.048C75.5829 172.81 65.5927 142.578 81.6348 126.886C98.4738 110.415 123.477 129.026 136.431 111.442C146.334 97.9998 134.701 83.385 144.116 70.4619C159.298 49.6199 200.852 72.4526 221.19 50.2354C224.15 47.0017 227.152 42.241 228.859 34.9385L242.683 32.5775C248.093 31.6531 252.574 34.6684 252.584 39.313L252.955 206.715C252.965 211.359 248.499 214.613 243.085 213.977L44.626 190.677C42.1229 190.383 40.1027 187.626 40.0958 184.527L40.0918 182.542C50.6213 187.373 57.1905 186.157 61.4739 183.048Z" fill="white"/>
<path opacity="0.2" d="M51.9615 169.857L233.836 183.164L234.208 50.8352L51.5184 80.1861L51.9615 169.857Z" fill="white"/>
<path d="M50.98 256.314C48.4503 256.568 45.8233 255.372 44.4008 253.094L24.354 220.968C22.529 218.043 23.4143 214.242 26.3455 212.461C29.2976 210.667 34.4731 211.345 36.3377 214.298L56.8177 246.737C58.7488 249.795 57.7783 253.651 54.6666 255.329C53.8994 255.742 51.8147 256.23 50.98 256.314Z" fill="url(#paint4_linear)"/>
<path opacity="0.3" d="M26.3455 212.461C29.2976 210.666 34.4731 211.345 36.3377 214.297L55.0631 243.957C52.7158 243.751 50.0591 244.245 47.1289 242.422C42.2507 239.388 43.5543 234.247 39.4721 230.537C37.6065 228.841 34.4116 227.259 28.4966 227.605L24.354 220.966C22.529 218.042 23.4143 214.243 26.3455 212.461Z" fill="url(#paint5_linear)"/>
<path d="M16.5793 207.045C16.7022 207.025 16.8261 207.014 16.95 207.011L25.8003 205.443L29.6177 228.532L21.0371 229.834C20.826 229.927 20.6069 229.993 20.3799 230.031C17.3416 230.535 14.0277 225.798 12.9779 219.451C11.9282 213.104 13.54 207.55 16.5793 207.045Z" fill="url(#paint6_linear)"/>
<path d="M25.8003 205.443C23.7126 213.689 24.9795 221.349 29.6177 228.532L99.0783 238.832L89.0465 173.916L25.8003 205.443Z" fill="url(#paint7_linear)"/>
<path opacity="0.3" d="M78.1255 222.735C71.462 221.396 68.0074 212.607 60.6768 213.509C54.9243 214.216 54.1224 220.056 48.4264 220.385C42.5957 220.722 40.6111 214.695 33.8337 213.578C30.7527 213.071 27.7313 213.76 24.9071 215.089C25.2679 219.747 26.8332 224.221 29.6167 228.532L99.0773 238.832L91.5386 217.476C85.6642 222.353 81.3561 223.385 78.1255 222.735Z" fill="url(#paint8_linear)"/>
<path d="M80.8337 208.304C83.8928 226.811 93.5559 240.623 102.416 239.154C111.276 237.685 115.978 221.49 112.919 202.984C109.86 184.477 100.197 170.664 91.3364 172.134C82.4763 173.603 77.7746 189.797 80.8337 208.304Z" fill="url(#paint9_linear)"/>
<path d="M102.228 238.017C104.108 237.706 105.826 236.609 107.333 234.757C108.866 232.872 110.11 230.309 111.032 227.136C112.969 220.467 113.236 211.956 111.784 203.171C110.332 194.387 107.34 186.417 103.361 180.729C101.467 178.023 99.4641 175.998 97.4071 174.709C95.3849 173.443 93.4063 172.959 91.5258 173.271C89.6453 173.583 87.9274 174.68 86.4207 176.532C84.8871 178.416 83.6431 180.98 82.7212 184.153C81.9113 186.942 81.3938 190.053 81.1718 193.37C80.8625 197.986 84.6473 202.126 85.4918 207.237C86.3899 212.672 84.3568 218.676 86.3027 223.139C87.5022 225.891 88.8761 228.391 90.3928 230.56C92.2861 233.266 94.2895 235.291 96.3464 236.58C98.3687 237.846 100.347 238.329 102.228 238.017Z" fill="url(#paint10_linear)"/>
<path d="M98.2695 205.865C99.6731 214.355 95.1747 222.027 88.3199 222.987C81.5712 223.932 75.0703 217.997 73.7063 209.743C72.3423 201.489 76.5989 193.855 83.3089 192.676C90.124 191.477 96.8658 197.375 98.2695 205.865Z" fill="url(#paint11_linear)"/>
<path opacity="0.3" d="M97.1681 205.906C98.2099 212.21 96.3027 217.669 92.9561 218.093C89.661 218.51 86.2054 213.875 85.1923 207.746C84.1792 201.617 85.9685 196.177 89.2358 195.585C92.5526 194.984 96.1252 199.601 97.1681 205.906Z" fill="url(#paint12_linear)"/>
<path d="M79.3278 119.004C79.3278 147.632 101.146 172.342 129.561 174.299C159.782 176.38 185.728 152.218 185.728 120.208C185.728 88.1984 159.782 63.4494 129.561 64.8464C101.147 66.1589 79.3278 90.3747 79.3278 119.004Z" fill="url(#paint13_linear)"/>
<path d="M76.4611 119.004C76.4611 147.632 98.2793 172.342 126.695 174.299C156.915 176.38 182.861 152.218 182.861 120.208C182.861 88.1984 156.915 63.4494 126.695 64.8464C98.2793 66.1589 76.4611 90.3747 76.4611 119.004Z" fill="url(#paint14_linear)"/>
<g opacity="0.3">
<path opacity="0.3" d="M116.697 155.943C126.959 144.261 117.262 129.272 128.014 114.719C137.992 101.214 152.036 105.994 162.855 91.7579C165.162 88.7228 166.843 85.4493 168.041 82.0825C177.209 92.018 182.861 105.419 182.861 120.207C182.861 152.217 156.915 176.379 126.695 174.298C116.233 173.577 106.69 169.792 98.8276 163.93C107.63 163.123 113.167 159.961 116.697 155.943Z" fill="url(#paint15_linear)"/>
</g>
<path d="M81.244 119.057C81.244 144.96 101.044 167.207 126.695 168.825C153.807 170.536 176.948 148.779 176.948 120.14C176.948 91.5015 153.807 69.2208 126.695 70.3179C101.045 71.3564 81.244 93.1556 81.244 119.057Z" fill="url(#paint16_linear)"/>
<path d="M126.695 168.825C119.175 168.351 112.172 166.113 106.041 162.564C110.842 161.098 114.252 158.725 116.697 155.942C126.959 144.26 117.262 129.271 128.014 114.718C137.992 101.213 152.036 105.993 162.855 91.757C163.808 90.503 164.653 89.2073 165.403 87.8809C172.593 96.5823 176.948 107.833 176.948 120.14C176.948 148.78 153.807 170.536 126.695 168.825Z" fill="#EFF2F6"/>
<path d="M90.9655 119.168C90.9655 139.53 106.625 156.845 126.695 157.88C147.65 158.961 165.328 142.025 165.328 120.009C165.328 97.992 147.65 80.6557 126.695 81.2633C106.624 81.8451 90.9655 98.8051 90.9655 119.168Z" fill="url(#paint17_linear)"/>
<path opacity="0.3" d="M128.014 114.719C136.526 103.198 147.986 104.981 157.893 96.9216C162.559 103.378 165.327 111.365 165.327 120.009C165.327 142.025 147.649 158.961 126.695 157.88C123.204 157.7 119.852 157.03 116.695 155.943C126.959 144.261 117.262 129.272 128.014 114.719Z" fill="url(#paint18_linear)"/>
<path d="M100.896 119.28C100.896 133.982 112.271 146.357 126.695 146.935C141.569 147.531 153.973 135.426 153.973 119.88C153.973 104.334 141.569 91.9494 126.695 92.2086C112.272 92.4608 100.896 104.578 100.896 119.28Z" fill="url(#paint19_linear)"/>
<path d="M147.94 102.436C151.707 107.203 153.972 113.273 153.972 119.881C153.972 135.427 141.568 147.532 126.694 146.935C124.857 146.861 123.069 146.596 121.351 146.161C123.255 136.408 120.054 125.49 128.012 114.719C133.775 106.922 140.877 105.218 147.94 102.436Z" fill="#EFF2F6"/>
<path d="M111.046 119.395C111.046 128.313 117.988 135.741 126.695 135.99C135.564 136.243 142.876 128.976 142.876 119.754C142.876 110.533 135.564 103.1 126.695 103.154C117.988 103.205 111.046 110.476 111.046 119.395Z" fill="url(#paint20_linear)"/>
<path opacity="0.3" d="M122.18 135.186C122.393 128.534 122.918 121.616 128.014 114.72C130.758 111.005 133.804 108.676 137.005 106.952C140.585 110.001 142.876 114.607 142.876 119.755C142.876 128.977 135.565 136.244 126.696 135.99C125.121 135.945 123.607 135.665 122.18 135.186Z" fill="url(#paint21_linear)"/>
<path d="M133.732 118.612L121.719 111.142C120.994 110.691 120.115 111.563 120.115 112.68V126.38C120.115 127.497 120.994 128.477 121.719 128.114L133.732 122.122C135.096 121.442 135.096 119.46 133.732 118.612Z" fill="white"/>
<path d="M41.5389 119.036C41.4655 119.013 54.1451 117.899 54.1451 117.899L47.7553 112.625C45.6081 110.852 34.124 112.55 31.3861 113.193L31.4139 113.971L41.5389 119.036Z" fill="url(#paint22_linear)"/>
<path d="M98.188 122.319L125.911 120.318C126.141 120.301 126.127 119.903 125.897 119.895L98.0661 118.932L98.188 122.319Z" fill="url(#paint23_linear)"/>
<path d="M41.4021 124.846C41.3297 124.873 54.4128 125.29 54.4128 125.29L48.4135 130.797C46.3972 132.648 34.8061 131.386 32.0255 130.846L31.9977 130.068L41.4021 124.846Z" fill="url(#paint24_linear)"/>
<path d="M42.8683 124.812C42.7969 124.839 55.8204 125.256 55.8204 125.256L49.8479 130.75C47.8406 132.597 45.0858 133.381 42.3915 132.858L32.0236 130.846L42.8683 124.812Z" fill="url(#paint25_linear)"/>
<path d="M42.6511 118.811C42.5778 118.787 55.5537 117.88 55.5537 117.88L49.1926 112.618C47.0544 110.849 44.2471 110.169 41.5944 110.794L31.3861 113.193L42.6511 118.811Z" fill="url(#paint26_linear)"/>
<path d="M87.846 126.279L95.4056 126.07C98.0623 125.996 100.112 123.559 100.006 120.625C99.9001 117.691 97.6767 115.334 95.019 115.36L87.4545 115.433L87.846 126.279Z" fill="url(#paint27_linear)"/>
<g opacity="0.3">
<path opacity="0.3" d="M93.2585 122.418C95.7783 121.441 97.7351 119.768 99.2488 117.938C99.6969 118.724 99.9705 119.642 100.006 120.625C100.112 123.559 98.0622 125.996 95.4056 126.07L87.8461 126.279L87.7311 123.093C89.5431 123.298 91.2848 123.184 93.2585 122.418Z" fill="url(#paint28_linear)"/>
</g>
<path d="M40.1986 124.755L87.8459 126.279C90.794 126.172 90.4024 115.326 87.4534 115.433L39.9964 119.158L40.1986 124.755Z" fill="white"/>
<g opacity="0.3">
<path opacity="0.3" d="M54.7607 123.328C64.0976 122.641 65.3675 120.271 73.7567 120.697C81.4878 121.09 85.4986 123.358 89.7443 123.171C89.4955 124.899 88.8739 126.241 87.846 126.278L40.1986 124.754L40.1203 122.578C46.0353 123.594 50.965 123.608 54.7607 123.328Z" fill="#D8DEE8"/>
</g>
<path d="M39.1767 121.995C39.2332 123.555 39.6912 124.81 40.1997 124.798C40.7072 124.786 41.073 123.515 41.0165 121.96C40.96 120.406 40.504 119.151 39.9955 119.157C39.488 119.165 39.1202 120.435 39.1767 121.995Z" fill="#C7CCD3"/>
<path d="M174.307 140.102C173.579 139.544 172.85 138.986 172.121 138.428C171.484 138.609 161.015 141.761 158.942 150.984C158.657 152.253 157.607 156.928 160.164 159.934C164.45 164.973 176.89 162.989 182.729 155.942C187.318 150.405 187.888 141.673 185.236 140.038C182.028 138.058 172.464 145.462 171.736 146.026C170.274 147.157 168.946 148.362 168.714 148.15C168.319 147.792 171.459 143.679 174.307 140.102Z" fill="url(#paint29_linear)"/>
<path d="M254.921 205.39C254.921 205.39 254.364 203.94 255.237 203.181C256.11 202.423 260.942 200.227 263.368 200.273C265.792 200.319 263.839 202.19 262.455 203.25C261.071 204.309 257.841 206.528 257.011 206.716C256.179 206.904 254.921 205.39 254.921 205.39Z" fill="url(#paint30_linear)"/>
<path d="M250.645 207.955C252.052 206.858 253.28 206 254.208 205.381C256.261 204.013 257.176 203.592 258.093 203.305C258.892 203.055 260.703 202.591 260.873 202.967C261.045 203.349 259.367 204.248 255.244 207.381C254.645 207.836 252.745 209.289 252.745 209.289L250.645 207.955Z" fill="url(#paint31_linear)"/>
<path d="M189.285 272.87C189.285 272.87 189.845 274.319 188.972 275.08C188.1 275.84 183.271 278.042 180.847 278C178.422 277.958 180.373 276.084 181.756 275.022C183.139 273.961 186.364 271.737 187.195 271.548C188.025 271.358 189.285 272.87 189.285 272.87Z" fill="url(#paint32_linear)"/>
<path d="M188.936 266.454C189.038 268.302 188.847 269.801 188.643 270.844C188.354 272.334 188.178 273.178 187.473 273.925C186.227 275.247 184.045 275.507 183.729 274.976C183.37 274.373 185.678 273.196 186.445 270.37C186.78 269.132 186.702 268.012 186.57 267.225L188.936 266.454Z" fill="url(#paint33_linear)"/>
<path d="M180.634 191.114C177.365 194.559 178.08 199.483 179.103 208.307C179.961 215.71 181.131 226.658 182.231 240.518C183.229 250.185 184.228 259.853 185.226 269.52C186.891 269.52 188.555 269.52 190.218 269.52C192.259 265.179 194.69 258.532 194.811 250.319C194.912 243.516 193.324 242.623 193.018 234.918C192.849 230.68 193.224 228.306 196.408 209.916C198.941 195.287 199.439 192.542 197.406 190.315C193.822 186.385 184.789 186.734 180.634 191.114Z" fill="url(#paint34_linear)"/>
<path opacity="0.4" d="M190.619 258.474C189.759 255.777 187.479 253.022 187.324 247.674C187.141 241.364 190.163 239.79 189.72 233.873C189.295 228.187 186.365 227.774 185.526 222.173C184.55 215.666 188.163 213.965 189.419 206.271C190.565 199.252 188.906 192.413 187.179 187.841C191.057 187.132 195.232 187.932 197.407 190.315C199.44 192.542 198.942 195.287 196.409 209.916C193.225 228.304 192.85 230.68 193.019 234.918C193.325 242.622 194.912 243.516 194.812 250.319C194.691 258.532 192.26 265.179 190.219 269.521C189.668 269.521 189.118 269.521 188.567 269.521C191.236 264.661 191.461 261.118 190.619 258.474Z" fill="url(#paint35_linear)"/>
<path d="M255.783 208.78C248.784 218.438 235.401 234.396 223.83 231.69C217.712 230.259 215.491 224.404 197.508 199.67C193.183 193.721 189.502 188.819 186.888 185.377C193.877 183.644 200.867 181.91 207.857 180.177C212.575 187.973 215.677 194.574 217.598 199.03C222.191 209.684 223.846 216.938 228.026 217.379C230.069 217.595 231.395 216.043 234.217 213.779C237.912 210.815 243.637 207.064 252.19 204.178C253.386 205.714 254.585 207.247 255.783 208.78Z" fill="url(#paint36_linear)"/>
<path d="M205.201 136.588C202.905 137.299 199.586 139.281 194.956 138.554C193.562 138.336 188.624 137.56 186.872 133.462C185.33 129.854 187.525 126.215 187.798 125.775C189.373 123.236 191.802 122.239 194.515 121.166C198.033 119.776 199.62 120.059 202.234 119.396C208.701 117.753 208.826 113.519 214.632 110.606C222.052 106.882 225.675 111.877 231.831 108.59C238.742 104.899 236.299 97.4708 242.404 92.5462C250.877 85.7104 270.69 87.8361 276.926 99.6263C280.527 106.435 279.849 116.943 274.766 122.84C271.804 126.279 267.552 128.106 267.765 131.172C267.917 133.354 270.493 133.651 272.003 136.751C273.951 140.747 272.146 145.335 271.854 146.076C269.149 152.954 256.813 157.186 245.946 155.72C226.349 153.075 217.681 132.725 205.201 136.588Z" fill="url(#paint37_linear)"/>
<path d="M207.58 137.882C202.22 137.861 195.585 137.921 188.804 138.637C174.225 140.178 174.798 147.444 177.438 154.067C180.132 160.827 180.038 166.795 179.983 168.919C179.896 172.34 179.276 175.082 178.034 180.567C175.877 190.095 174.271 192.284 175.789 194.72C178.004 198.272 184.209 198.098 185.298 198.045C190.809 197.779 191.979 194.539 196.626 194.027C202.026 193.431 203.274 197.493 210.781 200.225C219.642 203.451 231.05 202.597 236.348 196.656C238.394 194.362 239.707 191.191 238.827 190.194C237.63 188.835 233.463 192.744 229.028 191.193C226.09 190.166 226.356 187.904 222.837 185.698C218.602 183.042 216.112 184.996 213.24 183.282C208.762 180.608 209.725 172.808 209.362 159.967C209.215 154.65 208.798 147.085 207.58 137.882Z" fill="url(#paint38_linear)"/>
<path d="M207.58 137.882C215.356 138.262 218.136 146.369 226.254 147.968C231.173 148.937 238.509 147.608 249.044 137.36C250.536 138.052 252.03 138.744 253.523 139.436C251.989 148.638 247.725 153.801 245.633 155.976C233.676 168.398 210.999 168.018 198.72 157.368C194.867 154.026 192.694 150.242 191.514 147.755C195.395 142.92 201.043 137.562 207.58 137.882Z" fill="url(#paint39_linear)"/>
<path d="M190.556 131.886C191.042 131.537 191.724 131.764 191.909 132.334C192.418 133.912 193.47 136.595 194.904 137.266C196.969 138.231 200.079 137.807 200.471 138.19C200.863 138.571 191.199 143.594 184.761 141.31C184.716 141.295 184.672 141.275 184.631 141.252L184.264 141.054C183.537 140.662 183.702 139.575 184.512 139.414C185.754 139.168 189.007 138.233 189.826 136.812C189.92 136.649 189.947 135.366 189.923 135.18L189.659 133.101C189.619 132.781 189.757 132.463 190.019 132.274L190.556 131.886Z" fill="url(#paint40_linear)"/>
<path d="M192.077 132.973C192.077 132.973 191.029 134.847 188.977 134.363C187.14 133.931 187.648 129.251 188.982 128.565C189.427 128.337 190.292 128.311 190.906 128.6C191.339 128.803 192.572 130.011 192.135 131.581C192.564 131.4 192.969 131.469 193.093 131.679C193.251 131.944 192.92 132.37 192.844 132.466C192.586 132.801 192.239 132.927 192.077 132.973Z" fill="url(#paint41_linear)"/>
<path d="M250.299 137.941L251.033 136.493C251.033 136.493 247.287 130.357 250.357 129.371C253.427 128.386 252.562 130.141 252.214 130.978C251.866 131.815 252.426 134.544 252.959 135.378C253.492 136.212 252.564 138.99 252.564 138.99L250.299 137.941Z" fill="url(#paint42_linear)"/>
<path opacity="0.4" d="M223.769 196.17C221.832 194.849 223.165 192.261 220.973 190.169C218.967 188.255 216.771 189.393 213.185 188.369C208.873 187.137 205.533 183.631 203.998 180.568C202.904 178.385 202.992 176.954 203.998 165.767C204.957 155.113 205.228 152.512 206.595 152.166C209.082 151.539 211.309 159.365 216.18 159.366C218.931 159.367 219.305 156.87 222.77 155.566C228.653 153.352 232.858 158.558 239.146 158.366C240.752 158.316 242.702 157.897 244.928 156.643C235.866 165.401 221.269 167.314 209.435 163.347C209.595 174.175 209.174 180.851 213.243 183.28C216.114 184.995 218.605 183.04 222.84 185.696C226.358 187.903 226.093 190.165 229.031 191.191C233.466 192.742 237.633 188.832 238.83 190.192C239.628 191.097 238.615 193.782 236.895 195.987C235.885 195.568 234.77 195.263 233.555 195.169C228.912 194.807 226.054 197.727 223.769 196.17Z" fill="url(#paint43_linear)"/>
<path d="M161.709 118.667L161.813 117.144L160.042 116.219C159.646 116.012 159.163 116.087 158.848 116.403C157.177 118.073 152.31 123.68 152.861 131.85C152.89 132.279 153.184 132.645 153.596 132.765C154.346 132.982 155.186 133.104 155.186 133.104L161.709 118.667Z" fill="url(#paint44_linear)"/>
<path d="M173.539 133.068L174.105 137.774C174.105 137.774 174.459 139.076 174.404 139.639C175.117 140.152 176.486 140.079 176.486 140.079L177.466 134.265L173.685 133.007L173.539 133.068Z" fill="url(#paint45_linear)"/>
<path d="M172.605 139.102L173.179 137.286C173.179 137.286 173.871 135.789 175.821 135.534C177.772 135.279 177.75 136.333 177.75 136.333L176.478 136.71C176.478 136.71 175.655 136.949 175.09 138.143C174.3 139.359 173.501 139.917 173.501 139.917L172.605 139.102Z" fill="url(#paint46_linear)"/>
<path d="M181.189 131.688C181.189 131.688 166.539 124.334 161.813 117.143C154.458 121.85 155.185 133.102 155.185 133.102C155.185 133.102 173.009 133.384 179.588 135.879C181.356 134.873 181.189 131.688 181.189 131.688Z" fill="url(#paint47_linear)"/>
<path d="M148.667 134.554C149.07 134.253 149.302 133.748 149.23 133.214C147.235 118.48 156.32 113.228 156.41 113.177C157.099 112.793 157.346 111.92 156.963 111.23C156.578 110.539 155.708 110.292 155.019 110.676C154.572 110.924 144.144 116.95 146.398 133.598C146.504 134.381 147.223 134.93 148.005 134.824C148.253 134.791 148.478 134.695 148.667 134.554Z" fill="url(#paint48_linear)"/>
</g>
<defs>
<linearGradient id="paint0_linear" x1="91.455" y1="18.5734" x2="145.248" y2="183.448" gradientUnits="userSpaceOnUse">
<stop stop-color="#FF9085"/>
<stop offset="1" stop-color="#FB6FBB"/>
</linearGradient>
<linearGradient id="paint1_linear" x1="5.95441" y1="130.902" x2="109.398" y2="130.902" gradientUnits="userSpaceOnUse">
<stop offset="0.00359712" stop-color="#E38DDD"/>
<stop offset="1" stop-color="#9571F6"/>
</linearGradient>
<linearGradient id="paint2_linear" x1="80.9598" y1="135.687" x2="59.4152" y2="196.823" gradientUnits="userSpaceOnUse">
<stop stop-color="#FFC444"/>
<stop offset="0.9964" stop-color="#F36F56"/>
</linearGradient>
<linearGradient id="paint3_linear" x1="-5.56471" y1="260.701" x2="189.302" y2="95.5968" gradientUnits="userSpaceOnUse">
<stop offset="0.00359712" stop-color="#E38DDD"/>
<stop offset="1" stop-color="#9571F6"/>
</linearGradient>
<linearGradient id="paint4_linear" x1="48.3665" y1="220.877" x2="32.729" y2="246.973" gradientUnits="userSpaceOnUse">
<stop stop-color="#311944"/>
<stop offset="1" stop-color="#893976"/>
</linearGradient>
<linearGradient id="paint5_linear" x1="45.6431" y1="219.245" x2="30.0054" y2="245.341" gradientUnits="userSpaceOnUse">
<stop stop-color="#311944"/>
<stop offset="1" stop-color="#893976"/>
</linearGradient>
<linearGradient id="paint6_linear" x1="12.6567" y1="217.755" x2="29.6169" y2="217.755" gradientUnits="userSpaceOnUse">
<stop stop-color="#AA80F9"/>
<stop offset="0.9964" stop-color="#6165D7"/>
</linearGradient>
<linearGradient id="paint7_linear" x1="50.3715" y1="177.375" x2="84.7492" y2="273.491" gradientUnits="userSpaceOnUse">
<stop stop-color="#AA80F9"/>
<stop offset="0.9964" stop-color="#6165D7"/>
</linearGradient>
<linearGradient id="paint8_linear" x1="44.2774" y1="178.567" x2="79.0855" y2="275.886" gradientUnits="userSpaceOnUse">
<stop stop-color="#AA80F9"/>
<stop offset="0.9964" stop-color="#6165D7"/>
</linearGradient>
<linearGradient id="paint9_linear" x1="75.5761" y1="187.551" x2="118.233" y2="223.67" gradientUnits="userSpaceOnUse">
<stop offset="0.00359712" stop-color="#E38DDD"/>
<stop offset="1" stop-color="#9571F6"/>
</linearGradient>
<linearGradient id="paint10_linear" x1="76.4752" y1="208.496" x2="110.979" y2="203.688" gradientUnits="userSpaceOnUse">
<stop stop-color="#311944"/>
<stop offset="1" stop-color="#893976"/>
</linearGradient>
<linearGradient id="paint11_linear" x1="74.8397" y1="176.533" x2="97.2856" y2="239.289" gradientUnits="userSpaceOnUse">
<stop stop-color="#FFC444"/>
<stop offset="0.9964" stop-color="#F36F56"/>
</linearGradient>
<linearGradient id="paint12_linear" x1="82.9544" y1="183.752" x2="99.5161" y2="230.057" gradientUnits="userSpaceOnUse">
<stop stop-color="#FFC444"/>
<stop offset="0.9964" stop-color="#F36F56"/>
</linearGradient>
<linearGradient id="paint13_linear" x1="118.678" y1="71.4656" x2="163.4" y2="226.028" gradientUnits="userSpaceOnUse">
<stop stop-color="#AB316D"/>
<stop offset="1" stop-color="#792D3D"/>
</linearGradient>
<linearGradient id="paint14_linear" x1="115.811" y1="71.4656" x2="160.533" y2="226.028" gradientUnits="userSpaceOnUse">
<stop stop-color="#FFC444"/>
<stop offset="0.9964" stop-color="#F36F56"/>
</linearGradient>
<linearGradient id="paint15_linear" x1="120.55" y1="67.6748" x2="166.263" y2="225.66" gradientUnits="userSpaceOnUse">
<stop stop-color="#FFC444"/>
<stop offset="0.9964" stop-color="#F36F56"/>
</linearGradient>
<linearGradient id="paint16_linear" x1="116.632" y1="76.287" x2="156.868" y2="215.347" gradientUnits="userSpaceOnUse">
<stop stop-color="white"/>
<stop offset="0.9964" stop-color="#EBEFF2"/>
</linearGradient>
<linearGradient id="paint17_linear" x1="118.452" y1="85.9194" x2="149.729" y2="194.017" gradientUnits="userSpaceOnUse">
<stop stop-color="#FFC444"/>
<stop offset="0.9964" stop-color="#F36F56"/>
</linearGradient>
<linearGradient id="paint18_linear" x1="132.757" y1="106.537" x2="153.903" y2="179.619" gradientUnits="userSpaceOnUse">
<stop stop-color="#FFC444"/>
<stop offset="0.9964" stop-color="#F36F56"/>
</linearGradient>
<linearGradient id="paint19_linear" x1="120.51" y1="95.5406" x2="142.841" y2="172.72" gradientUnits="userSpaceOnUse">
<stop stop-color="white"/>
<stop offset="0.9964" stop-color="#EBEFF2"/>
</linearGradient>
<linearGradient id="paint20_linear" x1="122.805" y1="105.155" x2="136.2" y2="151.45" gradientUnits="userSpaceOnUse">
<stop stop-color="#FFC444"/>
<stop offset="0.9964" stop-color="#F36F56"/>
</linearGradient>
<linearGradient id="paint21_linear" x1="128.042" y1="110.709" x2="138.544" y2="147.005" gradientUnits="userSpaceOnUse">
<stop stop-color="#FFC444"/>
<stop offset="0.9964" stop-color="#F36F56"/>
</linearGradient>
<linearGradient id="paint22_linear" x1="54.145" y1="115.439" x2="31.3864" y2="115.439" gradientUnits="userSpaceOnUse">
<stop stop-color="#FFC444"/>
<stop offset="0.9964" stop-color="#F36F56"/>
</linearGradient>
<linearGradient id="paint23_linear" x1="126.059" y1="119.612" x2="98.1266" y2="120.622" gradientUnits="userSpaceOnUse">
<stop stop-color="#444B8C"/>
<stop offset="0.9964" stop-color="#26264F"/>
</linearGradient>
<linearGradient id="paint24_linear" x1="54.4123" y1="128.308" x2="31.9968" y2="128.308" gradientUnits="userSpaceOnUse">
<stop stop-color="#FFC444"/>
<stop offset="0.9964" stop-color="#F36F56"/>
</linearGradient>
<linearGradient id="paint25_linear" x1="55.821" y1="128.914" x2="32.0249" y2="128.914" gradientUnits="userSpaceOnUse">
<stop stop-color="#AB316D"/>
<stop offset="1" stop-color="#792D3D"/>
</linearGradient>
<linearGradient id="paint26_linear" x1="55.5542" y1="114.689" x2="31.3864" y2="114.689" gradientUnits="userSpaceOnUse">
<stop stop-color="#AB316D"/>
<stop offset="1" stop-color="#792D3D"/>
</linearGradient>
<linearGradient id="paint27_linear" x1="93.8383" y1="113.313" x2="93.3821" y2="134.11" gradientUnits="userSpaceOnUse">
<stop stop-color="#AB316D"/>
<stop offset="1" stop-color="#792D3D"/>
</linearGradient>
<linearGradient id="paint28_linear" x1="94.0604" y1="113.318" x2="93.6043" y2="134.115" gradientUnits="userSpaceOnUse">
<stop stop-color="#AB316D"/>
<stop offset="1" stop-color="#792D3D"/>
</linearGradient>
<linearGradient id="paint29_linear" x1="175.77" y1="138.734" x2="163.823" y2="180.605" gradientUnits="userSpaceOnUse">
<stop stop-color="#FF9085"/>
<stop offset="1" stop-color="#FB6FBB"/>
</linearGradient>
<linearGradient id="paint30_linear" x1="250.045" y1="215.912" x2="271.369" y2="186.121" gradientUnits="userSpaceOnUse">
<stop stop-color="#AB316D"/>
<stop offset="1" stop-color="#792D3D"/>
</linearGradient>
<linearGradient id="paint31_linear" x1="259.929" y1="199.249" x2="232.541" y2="240.369" gradientUnits="userSpaceOnUse">
<stop stop-color="#FFC444"/>
<stop offset="0.9964" stop-color="#F36F56"/>
</linearGradient>
<linearGradient id="paint32_linear" x1="194.146" y1="262.34" x2="172.864" y2="292.163" gradientUnits="userSpaceOnUse">
<stop stop-color="#AB316D"/>
<stop offset="1" stop-color="#792D3D"/>
</linearGradient>
<linearGradient id="paint33_linear" x1="188.007" y1="276.29" x2="177.46" y2="241.375" gradientUnits="userSpaceOnUse">
<stop stop-color="#FFC444"/>
<stop offset="0.9964" stop-color="#F36F56"/>
</linearGradient>
<linearGradient id="paint34_linear" x1="174.639" y1="267.788" x2="191.163" y2="209.897" gradientUnits="userSpaceOnUse">
<stop stop-color="#AB316D"/>
<stop offset="1" stop-color="#792D3D"/>
</linearGradient>
<linearGradient id="paint35_linear" x1="177.676" y1="268.655" x2="194.2" y2="210.764" gradientUnits="userSpaceOnUse">
<stop stop-color="#AB316D"/>
<stop offset="1" stop-color="#792D3D"/>
</linearGradient>
<linearGradient id="paint36_linear" x1="205.476" y1="226.124" x2="228.059" y2="184.895" gradientUnits="userSpaceOnUse">
<stop stop-color="#AB316D"/>
<stop offset="1" stop-color="#792D3D"/>
</linearGradient>
<linearGradient id="paint37_linear" x1="248.163" y1="78.3872" x2="225.864" y2="147.634" gradientUnits="userSpaceOnUse">
<stop stop-color="#444B8C"/>
<stop offset="0.9964" stop-color="#26264F"/>
</linearGradient>
<linearGradient id="paint38_linear" x1="214.823" y1="143.461" x2="186.386" y2="243.124" gradientUnits="userSpaceOnUse">
<stop stop-color="#FF9085"/>
<stop offset="1" stop-color="#FB6FBB"/>
</linearGradient>
<linearGradient id="paint39_linear" x1="222.088" y1="145.534" x2="193.651" y2="245.196" gradientUnits="userSpaceOnUse">
<stop stop-color="#FF9085"/>
<stop offset="1" stop-color="#FB6FBB"/>
</linearGradient>
<linearGradient id="paint40_linear" x1="199.478" y1="157.29" x2="188.393" y2="130.251" gradientUnits="userSpaceOnUse">
<stop stop-color="#FFC444"/>
<stop offset="0.9964" stop-color="#F36F56"/>
</linearGradient>
<linearGradient id="paint41_linear" x1="194.404" y1="126.786" x2="171.738" y2="150.693" gradientUnits="userSpaceOnUse">
<stop stop-color="#FFC444"/>
<stop offset="0.9964" stop-color="#F36F56"/>
</linearGradient>
<linearGradient id="paint42_linear" x1="250.587" y1="123.631" x2="252.65" y2="161.363" gradientUnits="userSpaceOnUse">
<stop stop-color="#FFC444"/>
<stop offset="0.9964" stop-color="#F36F56"/>
</linearGradient>
<linearGradient id="paint43_linear" x1="244.927" y1="174.381" x2="203.21" y2="174.381" gradientUnits="userSpaceOnUse">
<stop stop-color="#FF9085"/>
<stop offset="1" stop-color="#FB6FBB"/>
</linearGradient>
<linearGradient id="paint44_linear" x1="151.602" y1="121.61" x2="164.908" y2="128.908" gradientUnits="userSpaceOnUse">
<stop stop-color="#AB316D"/>
<stop offset="1" stop-color="#792D3D"/>
</linearGradient>
<linearGradient id="paint45_linear" x1="169.655" y1="133.503" x2="183.702" y2="141.208" gradientUnits="userSpaceOnUse">
<stop stop-color="#AB316D"/>
<stop offset="1" stop-color="#792D3D"/>
</linearGradient>
<linearGradient id="paint46_linear" x1="176.357" y1="135.457" x2="173.618" y2="139.549" gradientUnits="userSpaceOnUse">
<stop stop-color="#FFC444"/>
<stop offset="0.9964" stop-color="#F36F56"/>
</linearGradient>
<linearGradient id="paint47_linear" x1="162.767" y1="117.867" x2="178.989" y2="161.214" gradientUnits="userSpaceOnUse">
<stop stop-color="#444B8C"/>
<stop offset="0.9964" stop-color="#26264F"/>
</linearGradient>
<linearGradient id="paint48_linear" x1="154.393" y1="123.313" x2="147.096" y2="121.524" gradientUnits="userSpaceOnUse">
<stop stop-color="#AB316D"/>
<stop offset="1" stop-color="#792D3D"/>
</linearGradient>
<clipPath id="clip0">
<rect width="282" height="278" fill="white"/>
</clipPath>
</defs>
</svg>
