<svg width="282" height="288" viewBox="0 0 282 288" fill="none" xmlns="http://www.w3.org/2000/svg">
<g clip-path="url(#clip0)">
<path d="M213.236 22.6167C222.864 36.1125 211.974 58.271 226.156 68.3479C239.961 78.157 256.62 61.6649 269.622 70.0961C288.909 82.6036 286.022 140.798 258.398 177.226C250.091 188.182 243.099 192.483 240.111 204.807C233.696 231.266 257.381 246.716 253.043 259.816C243.274 289.309 88.5429 315.601 25.426 227.938C-4.0521 186.995 -9.02393 127.477 16.4514 81.9645C62.4836 -0.275599 191.631 -7.66514 213.236 22.6167Z" fill="#F4F7FA"/>
<path d="M171.309 249.777C173.491 248.744 177.329 244.572 177.882 243.072C181.56 233.086 189.658 214.836 185.576 204.354C184.879 202.563 176.185 203.508 174.502 202.203C168.812 201.458 166.793 201.553 161.731 198.185C146.79 188.241 162.882 155.267 131.855 155.56C109.129 155.774 93.9995 168.538 85.8542 135.744C77.7099 102.951 33.4198 52.7305 6.82262 86.0639C-8.44168 105.194 20.0805 126.085 16.5924 149.44C13.2782 171.632 26.4586 184.75 50.4513 189.652C74.4439 194.555 66.4574 206.885 66.4333 226.963C66.4041 251.081 101.184 244.086 116.966 239.485C129.674 235.78 164.532 234.93 171.309 249.777Z" fill="url(#paint0_linear)"/>
<path d="M181.753 224.642C161.622 221.791 142.228 215.881 124.111 207.077C106.701 198.618 90.4439 187.48 75.7877 173.974C47.3369 147.753 25.3819 113.022 12.2959 73.533L12.6236 73.4243C40.2551 156.807 103.5 213.209 181.801 224.3L181.753 224.642Z" fill="#FCFDFE"/>
<path d="M65.2238 236.918L65.0198 236.639C73.6034 230.374 86.06 224.408 100.094 219.84C113.626 215.436 127.448 212.782 138.015 212.557L138.022 212.903C115.363 213.383 82.7056 224.156 65.2238 236.918Z" fill="#FCFDFE"/>
<path d="M166.437 222.297C155.577 217.423 147.603 207.262 142.733 192.094C139.179 181.02 137.33 167.576 137.241 152.136L137.586 152.134C137.675 167.539 139.518 180.948 143.062 191.989C147.899 207.06 155.811 217.151 166.577 221.982L166.437 222.297Z" fill="#FCFDFE"/>
<path d="M71.8745 170.082C52.2133 160.014 29.1626 163.083 13.2871 167.431L13.1956 167.098C29.1284 162.735 52.2706 159.656 72.0303 169.775L71.8745 170.082Z" fill="#FCFDFE"/>
<path d="M39.5305 130.848C30.0674 107.485 36.9913 81.9787 41.9611 68.8542L42.2838 68.977C37.3321 82.0542 30.4313 107.465 39.8491 130.718L39.5305 130.848Z" fill="#FCFDFE"/>
<path d="M117.517 277.188C129.656 275.401 141.783 273.334 153.888 270.989C154.085 271.167 158.064 244.748 145.531 230.893C120.746 204.053 137.441 179.963 142.203 165.689C149.748 145.575 145.779 123.795 125.334 123.473C102.657 122.672 98.5458 85.0914 102.656 50.9054C105.834 34.2332 90.123 14.0051 74.4446 9.3813C58.4394 4.25935 42.4674 14.7428 37.572 47.9756C30.1615 86.4531 58.2072 109.656 68.5921 128.948C78.8102 147.885 55.0397 163.207 74.1731 179.987C90.2668 194.896 110.55 205.614 103.13 224.342C95.506 242.858 97.3315 257.996 117.517 277.188Z" fill="url(#paint1_linear)"/>
<path d="M133.825 278.751C133.802 278.444 122.401 223.478 102.252 168.986C99.4848 160.213 96.4842 151.38 93.5831 142.839C85.8057 119.947 77.764 96.2743 73.9421 72.6876C69.6649 46.2928 71.1908 22.5169 78.6053 0L78.933 0.108699C62.4564 50.1446 77.7348 95.1159 93.9088 142.728C96.8109 151.271 99.8125 160.104 102.578 168.874C122.583 222.975 134.174 278.515 134.17 278.748L133.825 278.742L133.998 278.745L133.825 278.751Z" fill="#FCFDFE"/>
<path d="M79.5201 98.4442C65.9747 83.3753 49.6389 61.9706 40.8623 50.4717C36.9479 45.3427 34.1192 41.6368 33.7865 41.4295L33.8539 41.3208L33.8197 41.1014C34.075 41.0642 34.5485 41.6298 41.1357 50.2623C49.9103 61.7572 66.2401 83.1549 79.7764 98.2127L79.5201 98.4442Z" fill="#FCFDFE"/>
<path d="M75.302 77.8336L74.9612 77.7783C77.1013 64.5884 82.1395 52.7563 89.5299 43.5591C95.3953 36.2611 100.979 32.7626 102.473 32.1135C102.807 31.9675 102.915 31.9705 102.999 32.0269L102.807 32.3137C102.843 32.3369 102.875 32.3359 102.875 32.3369C102.358 32.3691 96.7966 35.466 90.7351 42.6382C85.2466 49.135 78.1115 60.5142 75.302 77.8336Z" fill="#FCFDFE"/>
<path d="M114.13 204.218C112.211 188.08 115.961 170.73 125.279 152.652C130.132 143.235 136.319 134.012 143.67 125.237C144.072 124.758 144.361 124.412 144.405 124.337L144.704 124.51C144.648 124.607 144.439 124.857 143.934 125.46C133.713 137.661 110.379 169.757 114.472 204.176L114.13 204.218Z" fill="#FCFDFE"/>
<path d="M108.649 187.287C101.215 175.261 89.4859 169.135 80.9556 166.114C71.2834 162.688 63.6487 162.382 63.5824 162.377L63.5653 162.206L63.51 162.37L63.3914 162.2L63.52 162.038C63.7663 161.978 94.4035 163.588 108.942 187.104L108.649 187.287Z" fill="#FCFDFE"/>
<path d="M131.8 269.689C131.54 262.631 134.049 250.612 147.472 233.446C147.806 233.02 148.068 232.684 148.102 232.617L148.227 232.681L148.434 232.651C148.449 232.755 148.449 232.757 147.744 233.659C134.386 250.743 131.888 262.675 132.145 269.677L131.8 269.689Z" fill="#FCFDFE"/>
<path d="M128.714 256.505C125.177 244.287 108.007 235.288 98.0868 231.011C97.745 230.864 97.5389 230.775 97.4585 230.733L97.6163 230.427C97.6867 230.463 97.9118 230.56 98.2235 230.694C108.2 234.995 125.47 244.054 129.046 256.41L128.714 256.505Z" fill="#FCFDFE"/>
<path d="M270.731 261.502L42.4534 259.493V265.437C42.4534 267.051 43.4486 268.422 44.7976 268.667L109.348 280.372C110.114 280.511 110.891 280.548 111.664 280.482L268.252 267.136C269.65 267.017 270.732 265.64 270.732 263.983V261.502H270.731Z" fill="#BFC8D6"/>
<path d="M187.89 251.866L44.8138 262.74C42.2535 262.934 40.1717 260.866 40.1717 258.121V148.121C40.1717 145.376 42.2535 143.15 44.8138 143.15H187.89C189.999 143.15 191.705 145.162 191.705 147.644V247.083C191.705 249.564 190 251.706 187.89 251.866Z" fill="#BFC8D6"/>
<path d="M190.172 251.866L47.0956 262.74C44.5352 262.934 42.4534 260.866 42.4534 258.121V148.121C42.4534 145.376 44.5352 143.15 47.0956 143.15H190.172C192.281 143.15 193.987 145.162 193.987 147.644V247.083C193.987 249.564 192.281 251.706 190.172 251.866Z" fill="white"/>
<path d="M185.715 244.856L52.4548 254.302C50.371 254.449 48.6782 252.753 48.6782 250.511V154.206C48.6782 151.964 50.371 150.14 52.4548 150.13L185.715 149.538C187.455 149.53 188.862 151.178 188.862 153.22V240.938C188.862 242.978 187.455 244.732 185.715 244.856Z" fill="#D8DEE8"/>
<path d="M123.686 146.159C123.686 147.18 122.95 148.012 122.041 148.015C121.13 148.018 120.391 147.189 120.391 146.165C120.391 145.14 121.13 144.31 122.041 144.309C122.951 144.308 123.686 145.136 123.686 146.159Z" fill="white"/>
<path opacity="0.48" d="M155.7 221.697C144.67 215.315 135.997 223.402 127.627 215.422C122.553 210.585 125.044 206.977 118.8 199.749C111.884 191.742 107.382 194.433 100.432 187.227C91.644 178.115 96.0388 171.026 88.4695 164.484C79.2868 156.548 69.3833 163.893 60.6419 156.282C56.8713 152.999 54.8026 148.226 53.723 143.15H45.1695C43.6708 143.15 42.4534 144.457 42.4534 146.068V260.093C42.4534 261.704 43.6708 262.918 45.1695 262.803L190.988 251.672C191.704 251.617 192.338 251.167 192.745 250.516C182.071 250.098 175.513 246.25 171.321 242.271C163.12 234.488 164.543 226.814 155.7 221.697Z" fill="white"/>
<path d="M195.874 251.373L42.4534 262.818L109.348 274.948C110.114 275.087 110.891 275.124 111.664 275.058L270.731 261.501L198.314 251.45C197.505 251.338 196.688 251.312 195.874 251.373Z" fill="url(#paint2_linear)"/>
<path d="M64.8395 263.106L192.567 253.436L232.097 258.878L105.471 269.215L64.8395 263.106Z" fill="#D8DEE8"/>
<g opacity="0.75">
<path opacity="0.75" d="M75.8659 157.692L61.1916 157.743V152.988H75.8659V157.692Z" fill="white"/>
<path opacity="0.75" d="M152.752 157.422L85.1863 157.659V152.988H152.752V157.422Z" fill="white"/>
<path opacity="0.75" d="M99.3499 165.503L85.1863 165.637V160.967L99.3499 160.883V165.503Z" fill="white"/>
<path opacity="0.75" d="M173.65 164.8L108.35 165.419V160.828L173.65 160.438V164.8Z" fill="white"/>
<path opacity="0.75" d="M99.3499 173.397L85.1863 173.617V168.946L99.3499 168.777V173.397Z" fill="white"/>
<path opacity="0.75" d="M173.65 172.251L108.35 173.258V168.669L173.65 167.889V172.251Z" fill="white"/>
<path opacity="0.75" d="M75.8659 181.794L61.1916 182.108V177.354L75.8659 177.091V181.794Z" fill="white"/>
<path opacity="0.75" d="M152.752 180.149L85.1863 181.595V176.924L152.752 175.713V180.149Z" fill="white"/>
<path opacity="0.75" d="M99.3499 189.186L85.1863 189.573V184.902L99.3499 184.564V189.186Z" fill="white"/>
<path opacity="0.75" d="M173.65 187.151L108.35 188.939V184.35L173.65 182.79V187.151Z" fill="white"/>
<path opacity="0.75" d="M99.3499 197.08L85.1863 197.552V192.88L99.3499 192.458V197.08Z" fill="white"/>
<path opacity="0.75" d="M173.65 194.602L108.35 196.78V192.189L173.65 190.24V194.602Z" fill="white"/>
<path opacity="0.75" d="M99.3499 204.974L85.1863 205.53V200.86L99.3499 200.353V204.974Z" fill="white"/>
<path opacity="0.75" d="M173.65 202.052L108.35 204.62V200.029L173.65 197.69V202.052Z" fill="white"/>
<path opacity="0.75" d="M122.241 211.83L108.566 212.45V207.861L122.241 207.289V211.83Z" fill="white"/>
<path opacity="0.75" d="M183.622 209.05L130.933 211.436V206.926L183.622 204.724V209.05Z" fill="white"/>
<path opacity="0.75" d="M75.8659 221.965L61.1916 222.717V217.963L75.8659 217.262V221.965Z" fill="white"/>
<path opacity="0.75" d="M152.752 218.023L85.1863 221.487V216.816L152.752 213.589V218.023Z" fill="white"/>
<path opacity="0.75" d="M99.3499 228.655L85.1863 229.466V224.795L99.3499 224.034V228.655Z" fill="white"/>
<path opacity="0.75" d="M173.65 224.402L108.35 228.14V223.551L173.65 220.041V224.402Z" fill="white"/>
<path opacity="0.75" d="M99.3499 236.549L85.1863 237.444V232.774L99.3499 231.927V236.549Z" fill="white"/>
<path opacity="0.75" d="M173.65 231.853L108.35 235.981V231.39L173.65 227.491V231.853Z" fill="white"/>
<path opacity="0.75" d="M75.8659 246.068L61.1916 247.083V242.329L75.8659 241.365V246.068Z" fill="white"/>
<path opacity="0.75" d="M152.752 240.749L85.1863 245.423V240.752L152.752 236.314V240.749Z" fill="white"/>
</g>
<mask id="mask0" mask-type="alpha" maskUnits="userSpaceOnUse" x="-5" y="77" width="273" height="182">
<path d="M34.5294 95.7658L131.785 77.4983L267.942 84.3423L262.313 238.786L-4.17163 258.513L34.5294 95.7658Z" fill="#C4C4C4"/>
</mask>
<g mask="url(#mask0)">
<path d="M246.156 153.429C246.156 153.429 248.429 150.61 252.691 150.433C256.949 150.256 262.745 147.598 265.232 147.344C265.832 147.283 266.128 147.103 266.18 146.876C266.284 146.411 263.525 145.761 261.075 145.702C256.729 145.596 254.192 147.339 253.604 146.462C252.948 145.481 255.757 142.759 255.243 142.161C254.844 141.697 252.935 143.218 250.889 144.154C249.438 144.818 243.753 151.865 243.753 151.865L246.156 153.429Z" fill="url(#paint3_linear)"/>
<path d="M249.258 152.317C248.91 169.236 240.718 184.604 227.6 192.171C227.057 192.484 226.503 192.786 225.941 193.073C201.971 205.325 177.954 184.592 175.064 182.013C174.316 181.347 170.738 178.069 167.008 172.629C162.803 166.511 158.406 157.649 157.647 146.717C157.338 142.243 156.394 128.599 163.458 124.464C170.73 120.206 182.302 128.463 187.003 131.816C206.883 145.999 207.361 163.41 218.295 165.177C223.195 165.97 230.979 163.743 242.673 147.884C244.871 149.364 247.063 150.841 249.258 152.317Z" fill="url(#paint4_linear)"/>
<path opacity="0.3" d="M227.598 192.171C227.055 192.484 226.501 192.786 225.94 193.073C201.97 205.325 177.952 184.592 175.062 182.013C174.315 181.347 170.737 178.069 167.007 172.629C168.167 167.37 169.744 160.4 169.744 160.4C169.744 160.4 180.03 159.121 184.91 171.327C186.673 175.737 188.802 180.034 192.406 183.128C196.042 186.254 198.856 185.778 203.439 185.062C207.656 184.406 212.062 187.626 215.716 189.178C219.499 190.784 223.422 192.44 227.598 192.171Z" fill="url(#paint5_linear)"/>
<path d="M145.656 314H165.79C165.521 311.02 165.268 308.012 165.032 304.974C162.746 275.388 162.556 248.297 163.498 224.278C151.105 226.097 138.727 227.914 126.364 229.729C128.129 254.798 132.85 273.799 137.005 286.818C140.19 296.801 143.416 304.436 145.656 314Z" fill="url(#paint6_linear)"/>
<path opacity="0.3" d="M145.656 314H151.329C151.105 312.661 150.966 311.208 150.938 309.593C150.794 301.501 153.602 300.888 153.416 293.141C153.134 281.39 146.492 275.125 143.157 267.686C139.635 259.834 138.287 247.289 147.778 226.585C140.635 227.633 133.498 228.681 126.364 229.728C128.129 254.797 132.85 273.798 137.005 286.817C140.191 296.8 143.416 304.437 145.656 314Z" fill="url(#paint7_linear)"/>
<path d="M103.358 314H128.043C130.651 282.919 133.544 252.387 136.689 222.419C112.255 219.536 103.414 227.963 100.559 231.367C91.7698 241.843 94.5402 259.861 100.083 295.911C101.375 304.305 102.478 309.442 103.358 314Z" fill="url(#paint8_linear)"/>
<path d="M66.6292 127.262C81.1998 122.245 103.476 116.725 130.788 118.106C146.647 118.909 161.901 120.767 172.73 123.996C174.196 132.488 174.065 142.056 175.532 150.552C175.869 159.061 175.978 170.583 175.053 184.185C174.13 197.786 173.226 197.979 171.11 217.164C167.662 248.433 169.104 256.635 163.024 260.304C159.071 262.689 157.642 259.715 137.5 257.342C124.017 255.753 117.145 255.006 110.329 257.297C101.056 260.413 97.9549 265.833 94.133 263.995C90.47 262.232 90.0036 255.655 89.5613 244.194C88.8787 226.516 88.921 214.506 88.8576 210.207C88.5691 190.48 83.7642 175.368 77.6132 156.025C73.7692 143.935 69.7212 134.144 66.6292 127.262Z" fill="url(#paint9_linear)"/>
<path d="M128.978 98.5129C128.762 103.481 128.025 107.385 127.381 110.05C126.643 113.103 126.185 113.875 125.619 114.489C124.767 115.413 123.511 116.154 116.562 117.484C112.783 118.207 112.305 118.15 112.202 118.529C111.705 120.376 121.548 127.407 132.148 126.538C138.642 126.006 144.705 122.568 144.448 120.544C144.19 118.507 137.693 119.18 135.961 115.416C134.756 112.798 136.438 109.294 138.361 106.426C136.819 102.992 130.518 101.944 128.978 98.5129Z" fill="url(#paint10_linear)"/>
<path d="M141.78 103.172C144.068 101.525 145.403 97.7528 144.365 94.7334C143.472 92.1357 141.104 91.0094 139.687 90.3341C135.58 88.3805 129.589 88.4168 126.388 91.869C124.491 93.9151 125.256 99.7556 125.338 100.787C125.432 101.954 126.089 102.566 126.553 103.58C127.194 104.987 128.189 107.217 129.791 110.924C130.262 110.149 130.899 109.208 131.741 108.24C132.065 107.867 133.352 106.417 134.922 105.386C138.067 103.315 139.611 104.732 141.78 103.172Z" fill="url(#paint11_linear)"/>
<path d="M126.963 107.305C126.963 107.305 128.212 113.043 133.926 114.558C139.044 115.915 143.575 104.489 141.181 100.931C140.381 99.7446 138.356 98.6787 136.454 98.5982C135.33 98.5509 134.839 98.876 133.006 98.7612C131.315 98.6556 130.934 98.3284 130.332 98.5801C129.578 98.8951 128.739 100.009 128.61 103.75C127.982 102.423 126.962 101.65 126.021 101.774C125.87 101.794 125.448 101.921 125.135 102.224C124.001 103.319 124.618 105.416 126.963 107.305Z" fill="url(#paint12_linear)"/>
<path d="M130.332 97.8051C130.513 98.0739 129.47 98.7603 128.985 100.067C128.042 102.602 129.542 106.535 132.01 107.662C133.471 108.327 134.194 107.522 136.781 108.091C138.384 108.445 139.605 109.085 140.355 109.543C140.222 112.63 138.569 115.194 136.329 115.884C133.918 116.628 131.7 114.931 130.773 114.221C130.153 113.747 128.164 112.231 127.689 109.705C127.194 107.073 128.824 106.138 127.916 104.164C127.458 103.169 126.641 102.528 126.216 100.757C126.102 100.276 126.053 99.8684 126.03 99.5977C127.785 98.6123 130.07 97.4166 130.332 97.8051Z" fill="url(#paint13_linear)"/>
<path d="M138.197 109.974C138.197 109.974 136.925 110.195 135.091 109.453C135.002 109.417 134.893 109.411 134.865 109.456C134.762 109.626 135.692 110.857 136.901 110.909C137.761 110.945 138.622 110.379 138.58 110.147C138.563 110.05 138.382 110.001 138.197 109.974Z" fill="url(#paint14_linear)"/>
<path opacity="0.3" d="M155.186 249.912C145.277 245.388 145.334 236.326 136.088 232.417C122.91 226.844 108.37 239.161 106.102 235.659C103.743 232.017 121.101 221.178 118.79 210.223C116.954 201.519 104.839 202.908 98.356 190.957C92.2101 179.628 98.1681 169.282 92.7268 165.312C90.7756 163.889 87.3358 163.301 80.8169 166.215C85.3625 181.021 88.6225 194.073 88.8587 210.21C88.922 214.51 88.8798 226.519 89.5623 244.198C90.0046 255.659 90.4711 262.236 94.1341 263.998C97.956 265.836 101.057 260.416 110.33 257.3C117.146 255.01 124.019 255.756 137.501 257.346C157.643 259.72 159.073 262.693 163.025 260.308C165.6 258.754 166.825 256.376 167.644 251.787C163.598 252.176 159.309 251.794 155.186 249.912Z" fill="url(#paint15_linear)"/>
<path d="M80.0731 210.112L84.9012 209.894C84.9012 209.894 90.1937 205.358 92.6033 205.676C95.0138 205.993 98.6206 207.777 99.0608 208.147C99.5011 208.517 97.741 210.537 95.9818 210.316C94.2227 210.094 90.2983 211.03 89.5966 212.63C88.895 214.231 85.8512 215.163 85.3335 214.213L78.8438 215.468L80.0731 210.112Z" fill="url(#paint16_linear)"/>
<path d="M81.5327 208.375C81.8705 212.497 81.008 215.281 79.5685 217.18C73.1914 225.591 51.5509 221.829 38.7122 210.299C29.2199 201.776 24.1978 188.669 24.3828 176.982C24.7447 154.178 45.0401 132.005 75.3084 124.525C79.7967 138.515 85.3716 149.567 89.864 163.57C71.1648 163.671 58.7393 181.136 60.42 191.606C61.6745 199.407 70.4059 206.521 81.5327 208.375Z" fill="url(#paint17_linear)"/>
</g>
<path d="M109.348 84.8258C93.9069 85.9339 81.0974 74.1048 81.0974 58.434C81.0974 42.7632 93.9069 29.5924 109.348 29.0842C124.464 28.587 136.528 40.4553 136.528 55.5323C136.528 70.6093 124.465 83.7408 109.348 84.8258Z" fill="url(#paint18_linear)"/>
<path d="M111.231 85.4547C95.7897 86.5628 82.9802 74.7337 82.9802 59.0629C82.9802 43.3921 95.7897 30.2213 111.231 29.7131C126.346 29.2159 138.411 41.0842 138.411 56.1612C138.411 71.2372 126.346 84.3697 111.231 85.4547Z" fill="url(#paint19_linear)"/>
<path d="M136.57 56.2568C136.57 70.3344 125.336 82.5389 111.231 83.5323C96.8421 84.5458 84.9644 73.5521 84.9644 58.9582C84.9644 44.3643 96.8421 32.1276 111.231 31.6344C125.337 31.1513 136.57 42.1793 136.57 56.2568Z" fill="white"/>
<mask id="mask1" mask-type="alpha" maskUnits="userSpaceOnUse" x="87" y="34" width="48" height="48">
<path d="M134.097 56.3986C134.097 69.1286 123.944 80.1649 111.195 81.0631C98.1899 81.9797 87.4545 72.0383 87.4545 58.8414C87.4545 45.6445 98.1899 34.5792 111.195 34.1332C123.945 33.6963 134.097 43.6686 134.097 56.3986Z" fill="white"/>
</mask>
<g mask="url(#mask1)">
<path d="M108.13 39.7556C103.561 39.9146 99.2267 42.7398 97.3027 46.3973C94.9847 50.8047 98.0798 52.728 96.5679 59.7411C95.1757 66.1997 91.9238 67.497 92.4616 71.6427C93.0507 76.1839 97.4927 78.8058 99.2478 79.8415C107.145 84.5024 119.488 83.507 125.758 76.4406C126.281 75.8508 130.609 70.9724 129.441 66.8126C128.395 63.0907 123.914 63.3524 122.986 59.4764C122.187 56.137 125.248 54.8436 124.956 49.9471C124.899 48.989 124.63 44.4548 121.222 42.5737C118.953 41.3216 116.46 41.8863 115.546 42.1419C114.451 41.3367 111.78 39.6277 108.13 39.7556Z" fill="url(#paint20_linear)"/>
<path d="M84.9644 76.7908C84.9644 76.7908 108.041 61.8164 136.571 73.4593C136.571 73.4593 132.937 85.2411 111.232 87.397C88.8486 89.6183 84.9644 76.7908 84.9644 76.7908Z" fill="url(#paint21_linear)"/>
<path d="M107.142 57.7976L106.277 64.3004C105.982 66.5197 104.469 68.4551 102.365 69.3026L95.3312 72.1338C95.3312 72.1338 108.794 77.771 125.797 70.1883L118.045 67.975C115.845 67.2856 114.345 65.2938 114.249 62.9276L114.027 57.4373L107.142 57.7976Z" fill="url(#paint22_linear)"/>
<path d="M117.633 51.5575C117.633 57.0006 114.361 63.0314 110.305 63.2598C106.226 63.4893 102.902 57.7685 102.902 52.2701C102.902 46.7717 106.226 43.6225 110.305 43.4494C114.361 43.2763 117.633 46.1145 117.633 51.5575Z" fill="url(#paint23_linear)"/>
<path d="M113.55 46.831C111.347 47.0444 108.01 47.7288 105.698 50.2712C101.817 54.5397 103.66 60.9016 101.934 61.3787C100.396 61.8034 98.0132 57.3306 98.0524 52.2801C98.0845 48.0499 99.529 43.0014 103.288 41.5903C105.495 40.762 106.145 41.9305 113.264 42.3331C117.412 42.5676 115.785 44.5031 116.718 45.1563C120.86 48.0579 120.336 58.2375 118.106 58.4861C117.049 58.6038 115.588 56.0282 113.55 46.831Z" fill="url(#paint24_linear)"/>
</g>
<path d="M240.859 133.437C223.904 133.977 209.842 120.195 209.842 102.703C209.842 85.2114 223.903 71.0775 240.859 71.1963C257.463 71.312 270.719 85.1047 270.719 101.944C270.719 118.783 257.463 132.907 240.859 133.437Z" fill="url(#paint25_linear)"/>
<path d="M242.996 133.437C226.041 133.977 211.979 120.195 211.979 102.703C211.979 85.2114 226.04 71.0775 242.996 71.1963C259.601 71.312 272.856 85.1047 272.856 101.944C272.856 118.783 259.601 132.907 242.996 133.437Z" fill="url(#paint26_linear)"/>
<path d="M270.833 101.969C270.833 117.693 258.491 130.817 242.996 131.29C227.196 131.773 214.157 118.966 214.157 102.676C214.157 86.3859 227.196 73.2534 242.996 73.342C258.491 73.4296 270.833 86.245 270.833 101.969Z" fill="white"/>
<mask id="mask2" mask-type="alpha" maskUnits="userSpaceOnUse" x="219" y="81" width="48" height="48">
<path d="M266.384 103.401C266.384 116.131 256.231 127.168 243.482 128.066C230.477 128.982 219.741 119.041 219.741 105.844C219.741 92.6472 230.477 81.5819 243.482 81.1359C256.232 80.699 266.384 90.6713 266.384 103.401Z" fill="white"/>
</mask>
<g mask="url(#mask2)">
<path d="M214.157 122.653C214.157 122.653 239.493 106.97 270.834 121.252C270.834 121.252 266.841 134.248 242.997 135.676C218.421 137.149 214.157 122.653 214.157 122.653Z" fill="url(#paint27_linear)"/>
<path d="M238.505 102.372L237.555 109.593C237.28 114.184 232.828 116.001 232.828 116.001C238.054 122.207 248.041 121.735 251.535 115.666C249.121 114.801 246.415 111.065 246.309 108.419L246.065 102.278L238.505 102.372Z" fill="url(#paint28_linear)"/>
<path d="M250.028 95.8743C250.028 101.952 246.435 108.541 241.979 108.613C237.499 108.687 233.849 102.151 233.849 96.0112C233.849 89.8717 237.499 86.504 241.979 86.4929C246.436 86.4819 250.028 89.7962 250.028 95.8743Z" fill="url(#paint29_linear)"/>
<path d="M233.608 97.5631C234.056 97.4866 234.504 97.4111 234.952 97.3346C234.746 96.8334 233.898 94.6161 234.952 92.6616C235.963 90.7855 238.346 89.8625 240.163 89.9763C242.228 90.1061 243.467 91.0693 244.504 90.3134C245.086 89.8887 245.275 89.1208 245.341 88.5229C245.387 88.9044 245.491 89.469 245.759 90.092C246.53 91.8815 247.833 92.2479 248.543 93.4295C249.02 94.2246 249.331 95.5592 248.543 97.9214C248.937 97.8942 249.33 97.8661 249.723 97.8389C250.138 96.5133 250.636 94.6342 250.945 92.3375C251.405 88.9275 251.721 86.5804 250.416 85.4411C250.156 85.2146 249.006 84.3138 246.253 85.1683C245.607 84.4849 244.248 83.2349 242.156 82.6058C241.433 82.3884 237.842 81.3075 234.658 83.6506C232.493 85.2438 230.795 88.2149 231.341 90.6667C231.63 91.9631 232.419 92.5428 233.113 95.0489C233.405 96.1057 233.54 96.9964 233.608 97.5631Z" fill="url(#paint30_linear)"/>
<path d="M248.91 98.128C248.91 98.128 249.426 95.4608 250.996 95.7114C252.562 95.9621 250.317 100.344 248.91 100.885V98.128Z" fill="url(#paint31_linear)"/>
<path d="M234.857 98.2665C234.857 98.2665 234.331 95.5842 232.729 95.864C231.123 96.1448 233.423 100.535 234.857 101.047V98.2665Z" fill="url(#paint32_linear)"/>
</g>
<path d="M183.083 86.3799C162.271 86.2138 145.005 68.9356 145.005 47.8691C145.005 26.8026 162.271 10.4705 183.083 11.4458C203.456 12.3999 219.715 29.6499 219.715 49.9173C219.715 70.1847 203.456 86.5429 183.083 86.3799Z" fill="url(#paint33_linear)"/>
<path d="M185.607 86.3799C164.795 86.2138 147.528 68.9356 147.528 47.8691C147.528 26.8026 164.795 10.4705 185.607 11.4458C205.98 12.3999 222.239 29.6499 222.239 49.9173C222.239 70.1847 205.98 86.5429 185.607 86.3799Z" fill="url(#paint34_linear)"/>
<path d="M219.758 49.8487C219.758 68.7734 204.619 83.9732 185.607 83.7961C166.213 83.6149 150.202 67.5617 150.202 47.9424C150.202 28.3232 166.213 13.1476 185.607 14.0303C204.619 14.8948 219.758 30.925 219.758 49.8487Z" fill="white"/>
<mask id="mask3" mask-type="alpha" maskUnits="userSpaceOnUse" x="155" y="19" width="63" height="63">
<path d="M217.43 48.5635C217.43 65.3279 204.038 79.8617 187.223 81.0447C170.07 82.2516 155.91 69.1597 155.91 51.7805C155.91 34.4013 170.07 19.8291 187.223 19.2418C204.039 18.6665 217.43 31.7992 217.43 48.5635Z" fill="white"/>
</mask>
<g mask="url(#mask3)">
<path d="M159.777 71.9571C157.905 66.5181 164.936 64.6622 165.832 52.0027C165.892 51.1432 167.084 33.852 169.739 30.5296C170.092 30.0877 170.486 29.7385 170.486 29.7385C171.814 28.7079 173.866 28.8286 181.19 25.77C187.467 23.1481 187.104 23.2236 187.915 23.0746C192.634 22.206 199.611 26.5309 201.907 32.302C203.966 37.4773 201.496 41.8957 205.186 50.9932V50.9942C209.762 64.0834 212.05 70.6275 209.979 74.737C203.685 87.2253 163.981 84.1666 159.777 71.9571Z" fill="url(#paint35_linear)"/>
<path d="M150.202 71.9157C150.202 71.9157 181.308 54.2611 219.758 72.9735C219.758 72.9735 214.86 88.422 185.607 88.9916C155.438 89.5784 150.202 71.9157 150.202 71.9157Z" fill="url(#paint36_linear)"/>
<path d="M180.095 48.762L178.929 57.4106C178.531 60.3616 176.492 62.8023 173.655 63.7152L164.174 66.7658C164.174 66.7658 182.32 75.7878 205.237 67.42L194.79 63.6135C191.825 62.45 189.803 59.6118 189.674 56.4212L189.374 49.0166L180.095 48.762Z" fill="url(#paint37_linear)"/>
<path d="M194.236 41.4991C194.236 48.8152 189.826 56.5721 184.359 56.4443C178.86 56.3154 174.38 48.2677 174.38 40.8761C174.38 33.4835 178.86 29.6076 184.359 29.8129C189.826 30.0162 194.236 34.183 194.236 41.4991Z" fill="url(#paint38_linear)"/>
<path d="M174.049 45.6339C174.997 45.6097 173.629 37.8941 177.301 35.8671C179.74 34.5214 183.971 35.9264 186.35 38.5C190.101 42.5561 188.002 48.1833 190.843 49.4706C192.646 50.2878 195.054 48.7228 196.206 47.5603C199.808 43.9329 199.317 36.0331 195.06 31.4577C191.666 27.8102 187.059 27.5385 185.963 27.5073C179.693 27.3301 173.934 31.814 172.614 37.2681C171.6 41.46 173.348 45.652 174.049 45.6339Z" fill="url(#paint39_linear)"/>
</g>
</g>
<defs>
<linearGradient id="paint0_linear" x1="-7.08266" y1="127.017" x2="374.039" y2="319.05" gradientUnits="userSpaceOnUse">
<stop stop-color="#FF9085"/>
<stop offset="1" stop-color="#FB6FBB"/>
</linearGradient>
<linearGradient id="paint1_linear" x1="74.4" y1="14.7869" x2="122.177" y2="273.332" gradientUnits="userSpaceOnUse">
<stop stop-color="#FFC444"/>
<stop offset="0.9964" stop-color="#F36F56"/>
</linearGradient>
<linearGradient id="paint2_linear" x1="42.4534" y1="263.216" x2="270.732" y2="263.216" gradientUnits="userSpaceOnUse">
<stop offset="0.494" stop-color="#EBEFF2"/>
<stop offset="1" stop-color="white"/>
</linearGradient>
<linearGradient id="paint3_linear" x1="259.184" y1="145.038" x2="234.625" y2="163.962" gradientUnits="userSpaceOnUse">
<stop stop-color="#FFC444"/>
<stop offset="0.9964" stop-color="#F36F56"/>
</linearGradient>
<linearGradient id="paint4_linear" x1="237.434" y1="116.825" x2="184.772" y2="169.793" gradientUnits="userSpaceOnUse">
<stop stop-color="#AA80F9"/>
<stop offset="0.9964" stop-color="#6165D7"/>
</linearGradient>
<linearGradient id="paint5_linear" x1="192.764" y1="189.953" x2="202.928" y2="166.498" gradientUnits="userSpaceOnUse">
<stop stop-color="#5958DA"/>
<stop offset="0.9964" stop-color="#5153CA"/>
</linearGradient>
<linearGradient id="paint6_linear" x1="188.485" y1="358.198" x2="146.697" y2="248.716" gradientUnits="userSpaceOnUse">
<stop stop-color="#311944"/>
<stop offset="1" stop-color="#893976"/>
</linearGradient>
<linearGradient id="paint7_linear" x1="181.222" y1="360.922" x2="139.448" y2="251.475" gradientUnits="userSpaceOnUse">
<stop stop-color="#311944"/>
<stop offset="1" stop-color="#893976"/>
</linearGradient>
<linearGradient id="paint8_linear" x1="168.387" y1="359.66" x2="113.683" y2="256.48" gradientUnits="userSpaceOnUse">
<stop stop-color="#311944"/>
<stop offset="1" stop-color="#893976"/>
</linearGradient>
<linearGradient id="paint9_linear" x1="95.0687" y1="241.417" x2="167.496" y2="74.2731" gradientUnits="userSpaceOnUse">
<stop stop-color="#AA80F9"/>
<stop offset="0.9964" stop-color="#6165D7"/>
</linearGradient>
<linearGradient id="paint10_linear" x1="119.193" y1="136.456" x2="142.844" y2="93.3264" gradientUnits="userSpaceOnUse">
<stop stop-color="#FFC444"/>
<stop offset="0.463" stop-color="#FFC244"/>
<stop offset="0.6297" stop-color="#FEBB46"/>
<stop offset="0.7486" stop-color="#FCB048"/>
<stop offset="0.8447" stop-color="#FA9F4C"/>
<stop offset="0.9261" stop-color="#F78951"/>
<stop offset="0.9964" stop-color="#F36F56"/>
</linearGradient>
<linearGradient id="paint11_linear" x1="114.942" y1="120.988" x2="138.767" y2="92.036" gradientUnits="userSpaceOnUse">
<stop stop-color="#311944"/>
<stop offset="1" stop-color="#6B3976"/>
</linearGradient>
<linearGradient id="paint12_linear" x1="134.152" y1="100.727" x2="120.755" y2="150.215" gradientUnits="userSpaceOnUse">
<stop stop-color="#FFC444"/>
<stop offset="0.9964" stop-color="#F36F56"/>
</linearGradient>
<linearGradient id="paint13_linear" x1="118.272" y1="124.075" x2="142.449" y2="94.6947" gradientUnits="userSpaceOnUse">
<stop stop-color="#311944"/>
<stop offset="1" stop-color="#6B3976"/>
</linearGradient>
<linearGradient id="paint14_linear" x1="137.533" y1="108.032" x2="134.914" y2="113.818" gradientUnits="userSpaceOnUse">
<stop stop-color="#FFC444"/>
<stop offset="1" stop-color="#F36F56"/>
</linearGradient>
<linearGradient id="paint15_linear" x1="108.136" y1="247.067" x2="180.607" y2="79.8249" gradientUnits="userSpaceOnUse">
<stop stop-color="#8F70E5"/>
<stop offset="0.9964" stop-color="#6B5FB1"/>
</linearGradient>
<linearGradient id="paint16_linear" x1="87.338" y1="206.831" x2="90.6983" y2="217.075" gradientUnits="userSpaceOnUse">
<stop stop-color="#FFC444"/>
<stop offset="0.9964" stop-color="#F36F56"/>
</linearGradient>
<linearGradient id="paint17_linear" x1="41.8128" y1="216.983" x2="113.637" y2="51.2321" gradientUnits="userSpaceOnUse">
<stop stop-color="#AA80F9"/>
<stop offset="0.9964" stop-color="#6165D7"/>
</linearGradient>
<linearGradient id="paint18_linear" x1="81.0976" y1="56.9836" x2="136.529" y2="56.9836" gradientUnits="userSpaceOnUse">
<stop stop-color="#444B8C"/>
<stop offset="0.9964" stop-color="#26264F"/>
</linearGradient>
<linearGradient id="paint19_linear" x1="82.9799" y1="57.6117" x2="138.411" y2="57.6117" gradientUnits="userSpaceOnUse">
<stop offset="0.00359712" stop-color="#E38DDD"/>
<stop offset="1" stop-color="#9571F6"/>
</linearGradient>
<linearGradient id="paint20_linear" x1="119.625" y1="38.5973" x2="111.946" y2="62.3726" gradientUnits="userSpaceOnUse">
<stop stop-color="#AB316D"/>
<stop offset="1" stop-color="#792D3D"/>
</linearGradient>
<linearGradient id="paint21_linear" x1="84.9639" y1="78.3405" x2="136.57" y2="78.3405" gradientUnits="userSpaceOnUse">
<stop stop-color="#FF9085"/>
<stop offset="1" stop-color="#FB6FBB"/>
</linearGradient>
<linearGradient id="paint22_linear" x1="110.504" y1="59.6933" x2="110.603" y2="78.9905" gradientUnits="userSpaceOnUse">
<stop offset="0.003597" stop-color="#F36F56"/>
<stop offset="1" stop-color="#FFC444"/>
</linearGradient>
<linearGradient id="paint23_linear" x1="113.236" y1="31.9438" x2="108.785" y2="61.899" gradientUnits="userSpaceOnUse">
<stop offset="0.003597" stop-color="#F36F56"/>
<stop offset="1" stop-color="#FFC444"/>
</linearGradient>
<linearGradient id="paint24_linear" x1="114.033" y1="36.6568" x2="106.101" y2="61.2144" gradientUnits="userSpaceOnUse">
<stop stop-color="#AB316D"/>
<stop offset="1" stop-color="#792D3D"/>
</linearGradient>
<linearGradient id="paint25_linear" x1="209.843" y1="102.323" x2="270.72" y2="102.323" gradientUnits="userSpaceOnUse">
<stop stop-color="#444B8C"/>
<stop offset="0.9964" stop-color="#26264F"/>
</linearGradient>
<linearGradient id="paint26_linear" x1="211.979" y1="102.323" x2="272.857" y2="102.323" gradientUnits="userSpaceOnUse">
<stop stop-color="#FF9085"/>
<stop offset="1" stop-color="#FB6FBB"/>
</linearGradient>
<linearGradient id="paint27_linear" x1="214.157" y1="125.515" x2="270.833" y2="125.515" gradientUnits="userSpaceOnUse">
<stop stop-color="#AB316D"/>
<stop offset="1" stop-color="#792D3D"/>
</linearGradient>
<linearGradient id="paint28_linear" x1="242.125" y1="104.733" x2="242.234" y2="125.727" gradientUnits="userSpaceOnUse">
<stop offset="0.003597" stop-color="#F36F56"/>
<stop offset="1" stop-color="#FFC444"/>
</linearGradient>
<linearGradient id="paint29_linear" x1="245.214" y1="75.771" x2="239.908" y2="108.497" gradientUnits="userSpaceOnUse">
<stop offset="0.003597" stop-color="#F36F56"/>
<stop offset="1" stop-color="#FFC444"/>
</linearGradient>
<linearGradient id="paint30_linear" x1="242.432" y1="82.5536" x2="239.835" y2="98.5723" gradientUnits="userSpaceOnUse">
<stop stop-color="#444B8C"/>
<stop offset="0.9964" stop-color="#26264F"/>
</linearGradient>
<linearGradient id="paint31_linear" x1="253.496" y1="77.1334" x2="248.207" y2="109.755" gradientUnits="userSpaceOnUse">
<stop offset="0.003597" stop-color="#F36F56"/>
<stop offset="1" stop-color="#FFC444"/>
</linearGradient>
<linearGradient id="paint32_linear" x1="237.447" y1="74.5144" x2="232.131" y2="107.305" gradientUnits="userSpaceOnUse">
<stop offset="0.003597" stop-color="#F36F56"/>
<stop offset="1" stop-color="#FFC444"/>
</linearGradient>
<linearGradient id="paint33_linear" x1="145.004" y1="48.8928" x2="219.716" y2="48.8928" gradientUnits="userSpaceOnUse">
<stop stop-color="#444B8C"/>
<stop offset="0.9964" stop-color="#26264F"/>
</linearGradient>
<linearGradient id="paint34_linear" x1="147.528" y1="48.8928" x2="222.239" y2="48.8928" gradientUnits="userSpaceOnUse">
<stop offset="0.003597" stop-color="#F36F56"/>
<stop offset="1" stop-color="#FFC444"/>
</linearGradient>
<linearGradient id="paint35_linear" x1="231.473" y1="-26.3417" x2="142.786" y2="141.404" gradientUnits="userSpaceOnUse">
<stop stop-color="#AB316D"/>
<stop offset="1" stop-color="#792D3D"/>
</linearGradient>
<linearGradient id="paint36_linear" x1="185.014" y1="71.8327" x2="181.641" y2="132.053" gradientUnits="userSpaceOnUse">
<stop stop-color="#444B8C"/>
<stop offset="0.9964" stop-color="#26264F"/>
</linearGradient>
<linearGradient id="paint37_linear" x1="184.627" y1="51.7237" x2="184.76" y2="77.4586" gradientUnits="userSpaceOnUse">
<stop offset="0.003597" stop-color="#F36F56"/>
<stop offset="1" stop-color="#FFC444"/>
</linearGradient>
<linearGradient id="paint38_linear" x1="188.262" y1="14.5851" x2="182.324" y2="54.5545" gradientUnits="userSpaceOnUse">
<stop offset="0.003597" stop-color="#F36F56"/>
<stop offset="1" stop-color="#FFC444"/>
</linearGradient>
<linearGradient id="paint39_linear" x1="202.53" y1="8.03129" x2="168.932" y2="71.5805" gradientUnits="userSpaceOnUse">
<stop stop-color="#AB316D"/>
<stop offset="1" stop-color="#792D3D"/>
</linearGradient>
<clipPath id="clip0">
<rect width="282" height="288" fill="white"/>
</clipPath>
</defs>
</svg>
