<svg width="16" height="20" viewBox="0 0 16 20" fill="none" xmlns="http://www.w3.org/2000/svg">
<rect y="2" width="16" height="16" rx="4" fill="#0069FF"/>
<g clip-path="url(#clip0)">
<path fill-rule="evenodd" clip-rule="evenodd" d="M2.68314 8.00855C2.3684 7.9754 2.05112 8.04054 1.7749 8.19503C1.49869 8.34951 1.2771 8.58576 1.1406 8.87129C1.0041 9.15682 0.95938 9.47762 1.0126 9.78959C1.06581 10.1016 1.21435 10.3894 1.43779 10.6135C1.66123 10.8377 1.9486 10.9871 2.26041 11.0413C2.57222 11.0955 2.89316 11.0517 3.17911 10.9161C3.46506 10.7805 3.70199 10.5596 3.85733 10.2839C4.01267 10.0082 4.07879 9.69108 4.04661 9.37624C4.0112 9.02628 3.85628 8.6992 3.60794 8.45009C3.35959 8.20098 3.033 8.04505 2.68314 8.00855ZM2.6335 10.3427C2.46423 10.3654 2.29209 10.3345 2.14128 10.2543C1.99048 10.1741 1.86859 10.0487 1.79274 9.8957C1.71689 9.74267 1.6909 9.56972 1.71842 9.40116C1.74594 9.2326 1.82559 9.0769 1.94617 8.95594C2.06675 8.83498 2.2222 8.75485 2.39067 8.7268C2.55915 8.69875 2.73218 8.7242 2.88544 8.79957C3.0387 8.87494 3.1645 8.99644 3.24514 9.14699C3.32579 9.29755 3.35723 9.46959 3.33505 9.63893C3.31178 9.81706 3.23043 9.98254 3.10361 10.1098C2.97678 10.237 2.81155 10.3188 2.6335 10.3427ZM4.86595 8.06916C4.81282 8.06928 4.76039 8.08125 4.71247 8.1042C4.66454 8.12714 4.62234 8.16048 4.58892 8.20178C4.55551 8.24309 4.53172 8.29133 4.51929 8.34299C4.50687 8.39464 4.50611 8.44842 4.51709 8.50041C4.5507 8.66882 4.70801 8.7839 4.87938 8.7839H5.87384L4.32622 10.832C4.31478 10.8471 4.30777 10.8651 4.30598 10.884C4.3042 10.9028 4.30771 10.9219 4.31612 10.9388C4.32453 10.9558 4.33751 10.9702 4.3536 10.9802C4.36969 10.9902 4.38826 10.9956 4.40722 10.9957H6.83481C7.00606 10.9957 7.16349 10.8806 7.1971 10.7122C7.20808 10.6602 7.20733 10.6064 7.19491 10.5548C7.1825 10.5031 7.15873 10.4549 7.12533 10.4136C7.09193 10.3723 7.04974 10.3389 7.00183 10.316C6.95392 10.293 6.9015 10.281 6.84838 10.2809H5.6367L7.18313 8.23439C7.19469 8.21912 7.20176 8.20094 7.20356 8.18187C7.20536 8.16281 7.20181 8.14362 7.19331 8.12646C7.18481 8.1093 7.1717 8.09485 7.15545 8.08473C7.13919 8.07461 7.12044 8.06921 7.10129 8.06916H4.86595ZM14.5665 8.0774C14.4861 8.09651 14.4146 8.14248 14.3639 8.2077C14.3132 8.27293 14.2863 8.3535 14.2876 8.4361V9.62612L12.3594 8.09163C12.3442 8.07963 12.326 8.07214 12.3068 8.07002C12.2876 8.0679 12.2682 8.07125 12.2509 8.07967C12.2335 8.08809 12.2189 8.10124 12.2086 8.11761C12.1984 8.13399 12.193 8.15292 12.193 8.17222V10.6294C12.1917 10.712 12.2187 10.7925 12.2694 10.8578C12.3201 10.923 12.3915 10.9689 12.4719 10.9881C12.5241 10.9995 12.5782 10.9992 12.6302 10.9869C12.6822 10.9747 12.7308 10.951 12.7725 10.9175C12.8141 10.884 12.8477 10.8415 12.8707 10.7933C12.8937 10.7451 12.9057 10.6923 12.9056 10.6389V9.43858L14.8339 10.9731C14.849 10.9851 14.8672 10.9926 14.8864 10.9947C14.9056 10.9968 14.925 10.9935 14.9423 10.985C14.9597 10.9766 14.9743 10.9635 14.9846 10.9471C14.9948 10.9308 15.0002 10.9118 15.0001 10.8925V8.42644C15.0002 8.37301 14.9883 8.32026 14.9652 8.27206C14.9422 8.22386 14.9086 8.18145 14.867 8.14795C14.8254 8.11445 14.7767 8.09073 14.7247 8.07851C14.6727 8.0663 14.6186 8.06592 14.5665 8.0774ZM9.54575 8.71548C10.3614 8.71548 10.9708 9.1465 10.9708 9.53205C10.9708 9.91759 10.3614 10.3486 9.54575 10.3486C8.73014 10.3486 8.12073 9.91759 8.12073 9.53205C8.12073 9.1465 8.73014 8.71548 9.54575 8.71548ZM9.54575 8.00077C8.36519 8.00077 7.40819 8.68635 7.40819 9.53205C7.40819 10.3777 8.36519 11.0633 9.54575 11.0633C10.7263 11.0633 11.6833 10.3777 11.6833 9.53205C11.6833 8.68635 10.7263 8.00077 9.54575 8.00077Z" fill="white"/>
</g>
<defs>
<clipPath id="clip0">
<rect width="14" height="3.06452" fill="white" transform="translate(1 8)"/>
</clipPath>
</defs>
</svg>
